<?xml version="1.0" encoding="UTF-8"?>
<svg id="Layer_2" data-name="Layer 2" xmlns="http://www.w3.org/2000/svg" xmlns:xlink="http://www.w3.org/1999/xlink" viewBox="0 0 1920 342.16129">
  <defs>
    <style>
      .cls-1 {
        fill: url(#linear-gradient-2);
      }

      .cls-1, .cls-2, .cls-3, .cls-4, .cls-5 {
        stroke-width: 0px;
      }

      .cls-1, .cls-3 {
        opacity: .81;
      }

      .cls-2 {
        fill: url(#linear-gradient-5);
      }

      .cls-3 {
        fill: url(#linear-gradient-3);
      }

      .cls-4 {
        fill: url(#linear-gradient-4);
        opacity: .46;
      }

      .cls-5 {
        fill: url(#linear-gradient);
        opacity: .6;
      }
    </style>
    <linearGradient id="linear-gradient" x1="883.838306" y1="328.078198" x2="883.838306" y2="-60.921802" gradientUnits="userSpaceOnUse">
      <stop offset="0" stop-color="#e9e9ea"/>
      <stop offset="1" stop-color="#72d0f6"/>
    </linearGradient>
    <linearGradient id="linear-gradient-2" x1="1125.935888" y1="308.336263" x2="1125.935888" y2="-80.663737" xlink:href="#linear-gradient"/>
    <linearGradient id="linear-gradient-3" x1="1302.935484" y1="320.911993" x2="1302.935484" y2="-68.088007" gradientTransform="translate(2076.322581) rotate(-180) scale(1 -1)" xlink:href="#linear-gradient"/>
    <linearGradient id="linear-gradient-4" x1="884.740327" y1="354.677012" x2="884.740327" y2="-37.919949" gradientTransform="translate(1864.666053 46.911454) rotate(-176.964012) scale(1 -1)" gradientUnits="userSpaceOnUse">
      <stop offset="0" stop-color="#fff"/>
      <stop offset="1" stop-color="#72d0f6"/>
    </linearGradient>
    <linearGradient id="linear-gradient-5" x1="981.617857" y1="240.483871" x2="981.617857" y2="-148.516129" gradientUnits="userSpaceOnUse">
      <stop offset="0" stop-color="#e9e9ea"/>
      <stop offset="1" stop-color="#72d0f6"/>
    </linearGradient>
  </defs>
  <path class="cls-5" d="m1723.912547,142.08302c15.951134-18.261719,25.522685-41.586853,25.522685-67.004822,0-58.542175-50.751653-106-113.357149-106-33.985641,0-64.473617,13.989319-85.250184,36.141296-27.926918-15.129517-62.990508-24.141296-101.072486-24.141296-40.820645,0-78.172891,10.35437-106.984033,27.499878-19.535217-20.203247-45.364978-32.499878-73.692496-32.499878-15.899495,0-31.009986,3.87915-44.665467,10.849121-30.45044-29.432007-73.886964-47.849121-122.112867-47.849121-57.103774,0-107.495969,25.817383-137.557261,65.176086-22.09776-7.489624-46.706584-11.676086-72.65293-11.676086-34.332746,0-66.332355,7.318237-93.256183,19.940491-21.64075-19.539734-50.316221-31.440491-81.774204-31.440491-23.9337,0-46.254239,6.892761-65.094769,18.792297-25.465532-14.98877-56.483682-23.792297-89.956963-23.792297-27.679061,0-53.676835,6.023621-76.248359,16.580933-20.038405-7.321716-43.970621-11.580933-69.682683-11.580933-43.827262,0-82.492165,12.36615-105.487616,31.204895-11.010071-2.088989-22.516704-3.204895-34.362966-3.204895-28.853132,0-55.709628,6.579041-78.198233,17.889099-20.103405-11.310059-44.111435-17.889099-69.904402-17.889099C57.363082,9.078198,0,58.550732,0,119.578198s57.363082,110.5,128.12398,110.5c24.911765,0,48.15767-6.138367,67.829884-16.747375,25.073362,23.759766,67.425786,39.372375,115.452556,39.372375,60.658697,0,112.260113-24.906555,131.432214-59.677063,28.756587,28.184509,71.47271,46.052063,119.169606,46.052063,36.806909,0,70.646911-10.641968,97.397479-28.45105,17.170535,9.217468,36.80007,14.45105,57.654254,14.45105,20.063217,0,38.994778-4.841064,55.692027-13.416138,31.075515,21.637085,73.090059,34.916138,119.33836,34.916138,45.014162,0,86.016603-12.580505,116.826608-33.202576,26.644851,16.22467,58.783153,25.702576,93.383584,25.702576,38.979244,0,74.833006-12.02948,103.228492-32.182495,17.965266,14.601501,39.886266,23.182495,63.549842,23.182495,11.934218,0,23.422453-2.19043,34.187107-6.226257,11.486963,27.639282,55.599882,48.226257,108.269387,48.226257,36.259875,0,68.461587-9.758789,88.758133-24.856873,15.216525,13.099487,34.104824,20.856873,54.566997,20.856873,4.484636,0,8.891867-.379395,13.203242-1.099243,16.178049,35.985107,52.791975,61.099243,95.376402,61.099243,57.568206,0,104.236459-45.890808,104.236459-102.5,0-34.438904-17.273282-64.909485-43.764065-83.495178Z"/>
  <path class="cls-1" d="m1966.010129,122.341085c15.951134-18.261719,25.522685-41.586853,25.522685-67.004822,0-58.542175-50.751653-106-113.357149-106-33.985641,0-64.473617,13.989319-85.250184,36.141296-27.926918-15.129517-62.990508-24.141296-101.072486-24.141296-40.820645,0-78.172891,10.35437-106.984033,27.499878-19.535217-20.203247-45.364978-32.499878-73.692496-32.499878-15.899495,0-31.009986,3.87915-44.665467,10.849121-30.45044-29.432007-73.886964-47.849121-122.112867-47.849121-57.103774,0-107.495969,25.817383-137.557261,65.176086-22.09776-7.489624-46.706584-11.676086-72.65293-11.676086-34.332746,0-66.332355,7.318237-93.256183,19.940491-21.64075-19.539734-50.316221-31.440491-81.774204-31.440491-23.9337,0-46.254239,6.892761-65.094769,18.792297-25.465532-14.98877-56.483682-23.792297-89.956963-23.792297-27.679061,0-53.676835,6.023621-76.248359,16.580933-20.038405-7.321716-43.970621-11.580933-69.682683-11.580933-43.827262,0-82.492165,12.36615-105.487616,31.204895-11.010071-2.088989-22.516704-3.204895-34.362966-3.204895-28.853132,0-55.709628,6.579041-78.198233,17.889099-20.103405-11.310059-44.111435-17.889099-69.904402-17.889099-70.760898,0-128.12398,49.472534-128.12398,110.5s57.363082,110.5,128.12398,110.5c24.911765,0,48.15767-6.138367,67.829884-16.747375,25.073362,23.759766,67.425786,39.372375,115.452556,39.372375,60.658697,0,112.260113-24.906555,131.432214-59.677063,28.756587,28.184509,71.47271,46.052063,119.169606,46.052063,36.806909,0,70.646911-10.641968,97.397479-28.45105,17.170535,9.217468,36.80007,14.45105,57.654254,14.45105,20.063217,0,38.994778-4.841064,55.692027-13.416138,31.075515,21.637085,73.090059,34.916138,119.33836,34.916138,45.014162,0,86.016603-12.580505,116.826608-33.202576,26.644851,16.22467,58.783153,25.702576,93.383584,25.702576,38.979244,0,74.833006-12.02948,103.228492-32.182495,17.965266,14.601501,39.886266,23.182495,63.549842,23.182495,11.934218,0,23.422453-2.19043,34.187107-6.226257,11.486963,27.639282,55.599882,48.226257,108.269387,48.226257,36.259875,0,68.461587-9.758789,88.758133-24.856873,15.216525,13.099487,34.104824,20.856873,54.566997,20.856873,4.484636,0,8.891867-.379395,13.203242-1.099243,16.178049,35.985107,52.791975,61.099243,95.376402,61.099243,57.568206,0,104.236459-45.890808,104.236459-102.5,0-34.438904-17.273282-64.909485-43.764065-83.495178Z"/>
  <path class="cls-3" d="m-66.687144,134.916815c-15.951134-18.261719-25.522685-41.586853-25.522685-67.004822,0-58.542175,50.751653-106,113.357149-106,33.985641,0,64.473617,13.989319,85.250184,36.141296,27.926918-15.129517,62.990508-24.141296,101.072486-24.141296,40.820645,0,78.172891,10.35437,106.984033,27.499878,19.535217-20.203247,45.364978-32.499878,73.692496-32.499878,15.899495,0,31.009986,3.87915,44.665467,10.849121,30.45044-29.432007,73.886964-47.849121,122.112867-47.849121,57.103774,0,107.495969,25.817383,137.557261,65.176086,22.09776-7.489624,46.706584-11.676086,72.65293-11.676086,34.332746,0,66.332355,7.318237,93.256183,19.940491,21.64075-19.539734,50.316221-31.440491,81.774204-31.440491,23.9337,0,46.254239,6.892761,65.094769,18.792297,25.465532-14.98877,56.483682-23.792297,89.956963-23.792297,27.679061,0,53.676835,6.023621,76.248359,16.580933,20.038405-7.321716,43.970621-11.580933,69.682683-11.580933,43.827262,0,82.492165,12.36615,105.487616,31.204895,11.010071-2.088989,22.516704-3.204895,34.362966-3.204895,28.853132,0,55.709628,6.579041,78.198233,17.889099,20.103405-11.310059,44.111435-17.889099,69.904402-17.889099,70.760898,0,128.12398,49.472534,128.12398,110.5s-57.363082,110.5-128.12398,110.5c-24.911765,0-48.15767-6.138367-67.829884-16.747375-25.073362,23.759766-67.425786,39.372375-115.452556,39.372375-60.658697,0-112.260113-24.906555-131.432214-59.677063-28.756587,28.184509-71.47271,46.052063-119.169606,46.052063-36.806909,0-70.646911-10.641968-97.397479-28.45105-17.170535,9.217468-36.80007,14.45105-57.654254,14.45105-20.063217,0-38.994778-4.841064-55.692027-13.416138-31.075515,21.637085-73.090059,34.916138-119.33836,34.916138-45.014162,0-86.016603-12.580505-116.826608-33.202576-26.644851,16.22467-58.783153,25.702576-93.383584,25.702576-38.979244,0-74.833006-12.02948-103.228492-32.182495-17.965266,14.601501-39.886266,23.182495-63.549842,23.182495-11.934218,0-23.422453-2.19043-34.187107-6.226257-11.486963,27.639282-55.599882,48.226257-108.269387,48.226257-36.259875,0-68.461587-9.758789-88.758133-24.856873-15.216525,13.099487-34.104824,20.856873-54.566997,20.856873-4.484636,0-8.891867-.379395-13.203242-1.099243-16.178049,35.985107-52.791975,61.099243-95.376402,61.099243-57.568206,0-104.236459-45.890808-104.236459-102.5,0-34.438904,17.273282-64.909485,43.764065-83.495178Z"/>
  <path class="cls-4" d="m93.051694,117.388368c-15.828655-19.650399-24.745416-44.05925-23.550685-69.991929,2.75168-59.727646,58.075368-104.904708,123.569081-100.905764,35.553521,2.170843,66.790473,18.390871,87.484319,42.318532,29.926426-13.652047,67.03121-20.606617,106.870047-18.17412,42.703848,2.60743,81.292598,15.557361,110.627005,34.890382,21.386068-19.364542,48.985432-30.260295,78.6198-28.450866,16.632997,1.015585,32.258255,5.938474,46.2161,13.921834,33.238633-28.08297,79.544706-44.098508,129.995444-41.018064,59.738177,3.64752,111.241641,33.206517,140.839778,75.282402,23.469247-6.229787,49.410142-8.929129,76.553488-7.271799,35.916639,2.193014,69.048523,11.703429,96.621157,26.301048,23.55755-18.553102,54.115299-28.863193,87.024552-26.853805,25.037848,1.528772,48.064131,9.986842,67.214524,23.330786,27.344871-13.665672,60.207797-20.666176,95.22532-18.528061,28.955996,1.768008,55.87001,9.574221,78.986611,21.78708,21.306994-6.190021,46.543487-9.006809,73.44174-7.364443,45.849171,2.799479,85.716576,17.885773,108.887405,38.574842,11.616195-1.42802,23.706121-1.831533,36.098894-1.074849,30.184231,1.843002,57.970477,10.270734,80.964951,23.246285,21.562458-10.254975,46.987303-15.43372,73.970192-13.786187,74.025354,4.519873,131.709426,58.658302,128.840929,120.921565-2.868497,62.263263-65.203321,109.073526-139.228675,104.553653-26.061035-1.591246-50.090833-9.338753-70.171938-21.419161-27.346876,22.639329-72.387015,35.862819-122.629433,32.795095-63.457101-3.874592-116.268384-32.581556-134.690632-69.280785-31.407999,26.918406-76.934606,42.419271-126.831932,39.372618-38.504944-2.351052-73.405899-15.370058-100.55348-35.248471-18.395926,8.307348-39.177038,12.393066-60.993301,11.060999-20.988806-1.281544-40.566202-7.429898-57.630697-17.245157-33.526157,20.090275-78.103143,30.954536-126.485046,28.000412-47.090828-2.875293-89.393533-18.329594-120.655607-41.337256-28.636688,14.85127-62.70314,22.468258-98.899813,20.258146-40.777497-2.48981-77.719896-17.053055-106.478108-39.427936-19.480388,13.749643-42.816019,21.104191-67.571281,19.592673-12.484786-.762302-24.400058-3.730902-35.471626-8.536049-13.316038,27.465241-60.431702,45.651374-115.531041,42.287094-37.932674-2.31611-71.16127-14.329407-91.684509-31.029672-16.534239,12.39279-36.658546,19.100766-58.064713,17.793739-4.691529-.286457-9.284248-.955048-13.760687-1.964864-18.615822,35.680423-58.099329,58.964391-102.64833,56.244299-60.224035-3.677186-106.888239-53.478224-104.227416-111.233744,1.618745-35.136287,21.121126-65.120557,49.707614-82.390501Z"/>
  <path class="cls-2" d="m1873.535147,54.488693c16.935518-18.261719,27.097752-41.586853,27.097752-67.004822,0-58.542175-53.883662-106-120.352697-106-36.082978,0-68.452443,13.989319-90.511183,36.141296-29.650357-15.129517-66.877808-24.141296-107.309918-24.141296-43.339787,0-82.997132,10.35437-113.586281,27.499878-20.740783-20.203247-48.164563-32.499878-78.240241-32.499878-16.880692,0-32.923688,3.87915-47.421883,10.849121-32.329612-29.432007-78.44671-47.849121-129.648753-47.849121-60.627788,0-114.12981,25.817383-146.046258,65.176086-23.461467-7.489624-49.588962-11.676086-77.136522-11.676086-36.451504,0-70.425887,7.318237-99.011252,19.940491-22.976254-19.539734-53.421359-31.440491-86.820691-31.440491-25.410707,0-49.108702,6.892761-69.111928,18.792297-27.037072-14.98877-59.969429-23.792297-95.508429-23.792297-29.387204,0-56.989365,6.023621-80.953833,16.580933-21.275024-7.321716-46.684156-11.580933-73.982973-11.580933-46.53195,0-87.58296,12.36615-111.997517,31.204895-11.68953-2.088989-23.906265-3.204895-36.483589-3.204895-30.63373,0-59.147607,6.579041-83.024038,17.889099-21.344035-11.310059-46.83366-17.889099-74.218375-17.889099-75.127728,0-136.030827,49.472534-136.030827,110.5s60.903099,110.5,136.030827,110.5c26.449131,0,51.129599-6.138367,72.015833-16.747375,26.620701,23.759766,71.586797,39.372375,122.577417,39.372375,64.402094,0,119.187961-24.906555,139.543219-59.677063,30.531227,28.184509,75.883467,46.052063,126.523856,46.052063,39.078354,0,75.006706-10.641968,103.408117-28.45105,18.230171,9.217468,39.071093,14.45105,61.21224,14.45105,21.301368,0,41.401242-4.841064,59.128919-13.416138,32.993262,21.637085,77.600626,34.916138,126.703024,34.916138,47.792097,0,91.3249-12.580505,124.036265-33.202576,28.28917,16.22467,62.410806,25.702576,99.146515,25.702576,41.384749,0,79.451135-12.02948,109.598976-32.182495,19.073946,14.601501,42.347745,23.182495,67.471659,23.182495,12.670708,0,24.86791-2.19043,36.296877-6.226257,12.195852,27.639282,59.031088,48.226257,114.950957,48.226257,38.497562,0,72.68652-9.758789,94.235616-24.856873,16.155574,13.099487,36.209517,20.856873,57.934461,20.856873,4.761394,0,9.440606-.379395,14.018047-1.099243,17.176436,35.985107,56.049897,61.099243,101.262315,61.099243,61.120882,0,110.669147-45.890808,110.669147-102.5,0-34.438904-18.339259-64.909485-46.464853-83.495178Z"/>
</svg>