<?xml version="1.0" encoding="UTF-8"?>
<svg id="Layer_2" data-name="Layer 2" xmlns="http://www.w3.org/2000/svg" xmlns:xlink="http://www.w3.org/1999/xlink" viewBox="0 0 1025.77417 250.419355">
  <defs>
    <style>
      .cls-1 {
        fill: url(#linear-gradient);
        opacity: .35;
        stroke-width: 0px;
      }
    </style>
    <linearGradient id="linear-gradient" x1="512.887085" y1="239.580645" x2="512.887085" y2="0" gradientUnits="userSpaceOnUse">
      <stop offset="0" stop-color="#e9e9ea"/>
      <stop offset="1" stop-color="#72d0f6"/>
    </linearGradient>
  </defs>
  <path class="cls-1" d="m0,0v239.580645c27.920532,0,52.724609-13.106592,68.459106-33.406257,15.283691,20.540922,37.087891,33.406257,61.307007,33.406257,23.196045,0,44.184509-11.792265,59.344177-30.834334,16.057007,19.071044,38.040344,30.834334,62.292908,30.834334,17.266357,0,33.381042-5.966054,47.028625-16.281197,11.809692,10.294327,25.812012,16.281197,40.842346,16.281197,20.371887,0,38.862915-10.975243,52.541809-28.821859,13.53833,17.87643,31.660583,28.821859,51.587219,28.821859,19.165466,0,36.657776-10.132448,50.012573-26.809994,12.695801,16.605109,29.828003,26.809994,48.697144,26.809994,16.363525,0,31.419006-7.680314,43.41217-20.544353,11.454773,11.581051,25.538452,18.429321,40.778015,18.429321,16.872375,0,32.336853-8.377165,44.373901-22.299864,15.123352,13.167058,34.307922,21.046385,55.1875,21.046385,20.431152,0,39.240417-7.543368,54.20874-20.204048,8.669556,3.820599,18.09906,5.941501,27.975159,5.941501,10.241943,0,20.006714-2.273861,28.937744-6.367817,15.253662,14.919824,35.349609,23.998874,57.384827,23.998874,25.579041,0,48.549316-12.226358,64.356323-31.635115,15.785278,19.286604,39.947388,31.635115,67.046875,31.635115V0H0Z"/>
</svg>