<?xml version="1.0" encoding="UTF-8"?>
<svg id="Layer_2" data-name="Layer 2" xmlns="http://www.w3.org/2000/svg" xmlns:xlink="http://www.w3.org/1999/xlink" viewBox="0 0 1920 342.16129">
  <defs>
    <style>
      .cls-1 {
        fill: url(#linear-gradient-2);
        opacity: .81;
      }

      .cls-1, .cls-2, .cls-3, .cls-4 {
        stroke-width: 0px;
      }

      .cls-2 {
        fill: url(#linear-gradient-3);
        opacity: .46;
      }

      .cls-3 {
        fill: url(#linear-gradient);
        opacity: .6;
      }

      .cls-4 {
        fill: url(#linear-gradient-4);
      }
    </style>
    <linearGradient id="linear-gradient" x1="910.225806" y1="328.078198" x2="910.225806" y2="-60.921802" gradientUnits="userSpaceOnUse">
      <stop offset="0" stop-color="#e9e9ea"/>
      <stop offset="1" stop-color="#72d0f6"/>
    </linearGradient>
    <linearGradient id="linear-gradient-2" x1="1188.935484" y1="308.336263" x2="1188.935484" y2="-80.663737" xlink:href="#linear-gradient"/>
    <linearGradient id="linear-gradient-3" x1="845.310277" y1="359.172893" x2="845.310277" y2="-38.262114" gradientTransform="translate(1864.666053 46.911454) rotate(-176.964012) scale(1 -1)" gradientUnits="userSpaceOnUse">
      <stop offset="0" stop-color="#fff"/>
      <stop offset="1" stop-color="#72d0f6"/>
    </linearGradient>
    <linearGradient id="linear-gradient-4" x1="960" y1="240.483871" x2="960" y2="-148.516129" gradientUnits="userSpaceOnUse">
      <stop offset="0" stop-color="#e9e9ea"/>
      <stop offset="1" stop-color="#72d0f6"/>
    </linearGradient>
  </defs>
  <path class="cls-3" d="m1877.34336,142.08302c18.363403-18.261719,29.382446-41.586853,29.382446-67.004822,0-58.542175-58.426758-106-130.5-106-39.125244,0-74.223877,13.989319-98.142456,36.141296-32.150269-15.129517-72.516479-24.141296-116.357544-24.141296-46.993896,0-89.994873,10.35437-123.163086,27.499878-22.489502-20.203247-52.225464-32.499878-84.836914-32.499878-18.303955,0-35.699585,3.87915-51.420166,10.849121-35.05542-29.432007-85.060791-47.849121-140.579834-47.849121-65.739502,0-123.752441,25.817383-158.359863,65.176086-25.439575-7.489624-53.769958-11.676086-83.640137-11.676086-39.524841,0-76.363708,7.318237-107.359192,19.940491-24.913452-19.539734-57.925476-31.440491-94.140808-31.440491-27.553162,0-53.249207,6.892761-74.938965,18.792297-29.31665-14.98877-65.025635-23.792297-103.561035-23.792297-31.864929,0-61.794312,6.023621-87.779297,16.580933-23.068787-7.321716-50.620239-11.580933-80.220703-11.580933-50.4552,0-94.967346,12.36615-121.440369,31.204895-12.67511-2.088989-25.921875-3.204895-39.559631-3.204895-33.216553,0-64.134521,6.579041-90.024048,17.889099-23.143616-11.310059-50.782349-17.889099-80.475952-17.889099-81.461975,0-147.5,49.472534-147.5,110.5S-41.236169,230.078198,40.225806,230.078198c28.679138,0,55.440491-6.138367,78.087708-16.747375,28.865173,23.759766,77.622498,39.372375,132.912292,39.372375,69.832031,0,129.237061-24.906555,151.308533-59.677063,33.105408,28.184509,82.281433,46.052063,137.191467,46.052063,42.373169,0,81.33075-10.641968,112.12677-28.45105,19.767212,9.217468,42.365295,14.45105,66.37323,14.45105,23.097351,0,44.891907-4.841064,64.114258-13.416138,35.775024,21.637085,84.143372,34.916138,137.385742,34.916138,51.821594,0,99.02478-12.580505,134.494141-33.202576,30.674316,16.22467,67.672852,25.702576,107.505859,25.702576,44.874023,0,86.149902-12.02948,118.8396-32.182495,20.682129,14.601501,45.918213,23.182495,73.1604,23.182495,13.739014,0,26.9646-2.19043,39.357178-6.226257,13.224121,27.639282,64.008179,48.226257,124.642822,48.226257,41.743408,0,78.814941-9.758789,102.180908-24.856873,17.5177,13.099487,39.262451,20.856873,62.819092,20.856873,5.162842,0,10.236572-.379395,15.199951-1.099243,18.624634,35.985107,60.775635,61.099243,109.800049,61.099243,66.27417,0,120-45.890808,120-102.5,0-34.438904-19.885498-64.909485-50.382446-83.495178Z"/>
  <path class="cls-1" d="m2156.053038,122.341085c18.363403-18.261719,29.382446-41.586853,29.382446-67.004822,0-58.542175-58.426758-106-130.5-106-39.125244,0-74.223877,13.989319-98.142456,36.141296-32.150269-15.129517-72.516479-24.141296-116.357544-24.141296-46.993896,0-89.994873,10.35437-123.163086,27.499878-22.489502-20.203247-52.225464-32.499878-84.836914-32.499878-18.303955,0-35.699585,3.87915-51.420166,10.849121-35.05542-29.432007-85.060791-47.849121-140.579834-47.849121-65.739502,0-123.752441,25.817383-158.359863,65.176086-25.439575-7.489624-53.769958-11.676086-83.640137-11.676086-39.524841,0-76.363708,7.318237-107.359192,19.940491-24.913452-19.539734-57.925476-31.440491-94.140808-31.440491-27.553162,0-53.249207,6.892761-74.938965,18.792297-29.31665-14.98877-65.025635-23.792297-103.561035-23.792297-31.864929,0-61.794312,6.023621-87.779297,16.580933-23.068787-7.321716-50.620239-11.580933-80.220703-11.580933-50.4552,0-94.967346,12.36615-121.440369,31.204895-12.67511-2.088989-25.921875-3.204895-39.559631-3.204895-33.216553,0-64.134521,6.579041-90.024048,17.889099-23.143616-11.310059-50.782349-17.889099-80.475952-17.889099-81.461975,0-147.5,49.472534-147.5,110.5s66.038025,110.5,147.5,110.5c28.679138,0,55.440491-6.138367,78.087708-16.747375,28.865173,23.759766,77.622498,39.372375,132.912292,39.372375,69.832031,0,129.237061-24.906555,151.308533-59.677063,33.105408,28.184509,82.281433,46.052063,137.191467,46.052063,42.373169,0,81.33075-10.641968,112.12677-28.45105,19.767212,9.217468,42.365295,14.45105,66.37323,14.45105,23.097351,0,44.891907-4.841064,64.114258-13.416138,35.775024,21.637085,84.143372,34.916138,137.385742,34.916138,51.821594,0,99.02478-12.580505,134.494141-33.202576,30.674316,16.22467,67.672852,25.702576,107.505859,25.702576,44.874023,0,86.149902-12.02948,118.8396-32.182495,20.682129,14.601501,45.918213,23.182495,73.1604,23.182495,13.739014,0,26.9646-2.19043,39.357178-6.226257,13.224121,27.639282,64.008179,48.226257,124.642822,48.226257,41.743408,0,78.814941-9.758789,102.180908-24.856873,17.5177,13.099487,39.262451,20.856873,62.819092,20.856873,5.162842,0,10.236572-.379395,15.199951-1.099243,18.624634,35.985107,60.775635,61.099243,109.800049,61.099243,66.27417,0,120-45.890808,120-102.5,0-34.438904-19.885498-64.909485-50.382446-83.495178Z"/>
  <path class="cls-2" d="m-.150416,117.388368c-18.222402-19.650399-28.487632-44.05925-27.112224-69.991929C-24.094827-12.331207,39.595388-57.508269,114.993629-53.509325c40.930233,2.170843,76.891107,18.390871,100.714457,42.318532,34.452159-13.652047,77.168251-20.606617,123.031862-18.17412,49.161894,2.60743,93.586369,15.557361,127.35698,34.890382,24.620255-19.364542,56.393434-30.260295,90.509368-28.450866,19.148383,1.015585,37.136628,5.938474,53.2053,13.921834,38.265267-28.08297,91.574146-44.098508,149.654483-41.018064,68.772302,3.64752,128.064567,33.206517,162.13879,75.282402,27.01847-6.229787,56.882373-8.929129,88.13057-7.271799,41.348265,2.193014,79.49064,11.703429,111.233046,26.301048,27.120127-18.553102,62.299084-28.863193,100.185159-26.853805,28.824288,1.528772,55.332806,9.986842,77.379288,23.330786,31.4802-13.665672,69.312942-20.666176,109.626119-18.528061,33.334973,1.768008,64.319158,9.574221,90.931651,21.78708,24.529223-6.190021,53.582197-9.006809,84.548237-7.364443,52.782881,2.799479,98.67938,17.885773,125.354303,38.574842,13.372897-1.42802,27.291167-1.831533,41.558082-1.074849,34.748952,1.843002,66.737276,10.270734,93.209173,23.246285,24.82332-10.254975,54.09313-15.43372,85.156606-13.786187,85.22011,4.519873,151.627667,58.658302,148.325371,120.921565-3.302296,62.263263-75.063933,109.073526-160.284043,104.553653-30.00221-1.591246-57.666003-9.338753-80.783947-21.419161-31.482508,22.639329-83.334007,35.862819-141.17452,32.795095-73.053635-3.874592-133.851498-32.581556-155.059717-69.280785-36.157789,26.918406-88.569325,42.419271-146.012557,39.372618-44.327996-2.351052-84.506976-15.370058-115.760049-35.248471-21.177917,8.307348-45.101729,12.393066-70.217236,11.060999-24.162915-1.281544-46.700974-7.429898-66.346111-17.245157-38.596273,20.090275-89.914578,30.954536-145.613211,28.000412-54.212311-2.875293-102.912399-18.329594-138.902195-41.337256-32.967377,14.85127-72.185653,22.468258-113.856301,20.258146-46.944224-2.48981-89.473373-17.053055-122.580651-39.427936-22.426381,13.749643-49.291028,21.104191-77.789996,19.592673-14.372844-.762302-28.090046-3.730902-40.835953-8.536049-15.329804,27.465241-69.570709,45.651374-133.002647,42.287094-43.669182-2.31611-81.922895-14.329407-105.549836-31.029672-19.03469,12.39279-42.202369,19.100766-66.845763,17.793739-5.401022-.286457-10.688293-.955048-15.841698-1.964864-21.431068,35.680423-66.885614,58.964391-118.171701,56.244299-69.331636-3.677186-123.052806-53.478224-119.98959-111.233744,1.863545-35.136287,24.315246-65.120557,57.224831-82.390501Z"/>
  <path class="cls-4" d="m1927.117554,54.488693c18.363403-18.261719,29.382446-41.586853,29.382446-67.004822,0-58.542175-58.426758-106-130.5-106-39.125244,0-74.223877,13.989319-98.142456,36.141296-32.150269-15.129517-72.516479-24.141296-116.357544-24.141296-46.993896,0-89.994873,10.35437-123.163086,27.499878-22.489502-20.203247-52.225464-32.499878-84.836914-32.499878-18.303955,0-35.699585,3.87915-51.420166,10.849121-35.05542-29.432007-85.060791-47.849121-140.579834-47.849121-65.739502,0-123.752441,25.817383-158.359863,65.176086-25.439575-7.489624-53.769958-11.676086-83.640137-11.676086-39.524841,0-76.363708,7.318237-107.359192,19.940491-24.913452-19.539734-57.925476-31.440491-94.140808-31.440491-27.553162,0-53.249207,6.892761-74.938965,18.792297-29.31665-14.98877-65.025635-23.792297-103.561035-23.792297-31.864929,0-61.794312,6.023621-87.779297,16.580933-23.068787-7.321716-50.620239-11.580933-80.220703-11.580933-50.4552,0-94.967346,12.36615-121.440369,31.204895-12.67511-2.088989-25.921875-3.204895-39.559631-3.204895-33.216553,0-64.134521,6.579041-90.024048,17.889099-23.143616-11.310059-50.782349-17.889099-80.475952-17.889099C8.538025-78.516129-57.5-29.043595-57.5,31.983871S8.538025,142.483871,90,142.483871c28.679138,0,55.440491-6.138367,78.087708-16.747375,28.865173,23.759766,77.622498,39.372375,132.912292,39.372375,69.832031,0,129.237061-24.906555,151.308533-59.677063,33.105408,28.184509,82.281433,46.052063,137.191467,46.052063,42.373169,0,81.33075-10.641968,112.12677-28.45105,19.767212,9.217468,42.365295,14.45105,66.37323,14.45105,23.097351,0,44.891907-4.841064,64.114258-13.416138,35.775024,21.637085,84.143372,34.916138,137.385742,34.916138,51.821594,0,99.02478-12.580505,134.494141-33.202576,30.674316,16.22467,67.672852,25.702576,107.505859,25.702576,44.874023,0,86.149902-12.02948,118.8396-32.182495,20.682129,14.601501,45.918213,23.182495,73.1604,23.182495,13.739014,0,26.9646-2.19043,39.357178-6.226257,13.224121,27.639282,64.008179,48.226257,124.642822,48.226257,41.743408,0,78.814941-9.758789,102.180908-24.856873,17.5177,13.099487,39.262451,20.856873,62.819092,20.856873,5.162842,0,10.236572-.379395,15.199951-1.099243,18.624634,35.985107,60.775635,61.099243,109.800049,61.099243,66.27417,0,120-45.890808,120-102.5,0-34.438904-19.885498-64.909485-50.382446-83.495178Z"/>
</svg>