<?xml version="1.0" encoding="UTF-8"?>
<svg id="Layer_1" data-name="Layer 1" xmlns="http://www.w3.org/2000/svg" viewBox="0 0 1920 1080">
  <defs>
    <style>
      .cls-1 {
        fill: #fff;
        stroke: #231f20;
        stroke-miterlimit: 10;
        stroke-width: 3px;
      }
    </style>
  </defs>
  <path class="cls-1" d="m1837.935547,538.026123c0-107.040833-77.256226-193.814514-172.556641-193.814514-.841064,0-1.677612.022278-2.515869.035767-14.882324-85.253296-94.342285-150.340881-190.148926-150.340881-50.570557,0-96.581543,18.142395-130.953735,47.803772-23.023804-30.137817-50.941284-47.803772-81.039673-47.803772-25.135376,0-48.748291,12.3255-69.263184,33.937195-32.476196-40.872009-77.717285-66.239624-127.766235-66.239624-47.173584,0-90.075195,22.538513-122.04425,59.351562-33.172974-17.166565-72.059448-27.049133-113.6427-27.049133-48.25238,0-92.868835,13.311279-129.144043,35.866455-31.833374-22.606934-70.478577-35.866455-112.154541-35.866455-75.238037,0-140.617065,43.182495-173.807617,106.655151-16.887817-2.494141-34.307312-3.814819-52.12439-3.814819-153.92688,0-278.709229,97.399048-278.709229,217.546875,0,99.106445,84.908936,182.724182,201.038818,208.975952,21.195496,31.709351,61.897583,63.659241,113.145874,85.384094,73.233398,31.044739,144.541809,31.267456,175.055237,3.636108,34.668518,34.081238,83.774536,55.352722,138.23291,55.352722,23.476013,0,45.953186-3.962097,66.713379-11.188965,41.181152,29.962891,107.666931,49.4245,182.690796,49.4245,75.554199,0,142.450684-19.737183,183.561646-50.060974,27.391113,7.638733,57.041748,11.825439,88.007324,11.825439,33.444214,0,65.353882-4.884033,94.539062-13.727844,45.682861,32.249329,106.75,51.963379,173.852051,51.963379,141.530029,0,256.262939-87.65918,256.262939-195.792236,0-2.147583-.061523-4.283875-.151367-6.414734,49.720215-34.014832,82.922363-95.47406,82.922363-165.64502Z"/>
</svg>