<?xml version="1.0" encoding="UTF-8"?>
<svg xmlns="http://www.w3.org/2000/svg" viewBox="0 0 1920 1080">
  <defs>
    <style>
      .cls-1 {
        fill: #bde6fa;
      }

      .cls-1, .cls-2, .cls-3, .cls-4 {
        stroke-width: 0px;
      }

      .cls-2 {
        fill: none;
      }

      .cls-3 {
        fill: #a7dff4;
      }

      .cls-4 {
        fill: #fff;
      }
    </style>
  </defs>
  <g id="Layer_1" data-name="Layer 1">
    <rect class="cls-4" width="1920" height="1080"/>
  </g>
  <g id="BODY">
    <g>
      <polygon class="cls-2" points="252.976074 370.551331 281.661316 307.615601 281.61322 307.510132 252.927979 370.445801 252.976074 370.551331"/>
      <polygon class="cls-2" points="1724.941406 874.753479 1753.626709 811.817749 1753.578613 811.71228 1724.893311 874.647949 1724.941406 874.753479"/>
      <polygon class="cls-2" points="311.846985 370.55127 340.532227 307.615601 340.484131 307.510132 311.798889 370.44574 311.846985 370.55127"/>
      <polygon class="cls-2" points="223.254395 810.588745 214.131592 791.125366 223.12854 810.864807 223.254395 810.588745"/>
      <polygon class="cls-2" points="311.846985 874.753418 340.825867 811.173523 340.777405 811.068726 311.798889 874.647888 311.846985 874.753418"/>
      <polygon class="cls-2" points="252.976074 874.753479 282.009033 811.054871 281.96051 810.950256 252.927979 874.647949 252.976074 874.753479"/>
      <polygon class="cls-2" points="1724.941406 370.551331 1753.626709 307.615601 1753.578613 307.510132 1724.893311 370.445801 1724.941406 370.551331"/>
      <polygon class="cls-2" points="1018.394226 874.753479 1047.079346 811.817749 1047.03125 811.71228 1018.34613 874.647949 1018.394226 874.753479"/>
      <polygon class="cls-2" points="959.523315 370.551331 988.208496 307.615601 988.1604 307.510132 959.47522 370.445801 959.523315 370.551331"/>
      <polygon class="cls-2" points="1018.394226 370.551331 1047.079346 307.615601 1047.03125 307.510132 1018.34613 370.445801 1018.394226 370.551331"/>
      <polygon class="cls-2" points="1666.070557 370.551331 1694.755737 307.615601 1694.707642 307.510132 1666.022461 370.445801 1666.070557 370.551331"/>
      <polygon class="cls-2" points="1666.070557 874.753479 1694.755737 811.817749 1694.707642 811.71228 1666.022461 874.647949 1666.070557 874.753479"/>
      <polygon class="cls-1" points="1371.42041 117.742981 1400.19165 54.618347 1371.372314 -8.611755 1342.601074 54.512878 1371.42041 117.742981"/>
      <polygon class="cls-1" points="1283.383667 811.71228 1312.432861 875.446594 1341.434082 811.817749 1312.384766 748.083435 1283.383667 811.71228"/>
      <polygon class="cls-1" points="1312.549561 117.742981 1341.320801 54.618347 1312.501465 -8.611755 1283.730225 54.512878 1312.549561 117.742981"/>
      <polygon class="cls-1" points="1312.432861 1000.488708 1340.929077 937.967651 1312.432861 875.446594 1283.936768 937.967651 1312.432861 1000.488708"/>
      <polygon class="cls-1" points="1283.721191 685.194946 1312.384766 748.083435 1341.213135 684.833557 1312.549561 621.945129 1283.721191 685.194946"/>
      <polygon class="cls-1" points="1342.592041 180.992859 1371.255737 243.881287 1400.084106 180.631409 1371.42041 117.742981 1342.592041 180.992859"/>
      <polygon class="cls-1" points="1224.835938 1063.513916 1253.562012 1126.539307 1282.288086 1063.513916 1253.562012 1000.488708 1224.835938 1063.513916"/>
      <polygon class="cls-1" points="1312.501465 495.590332 1340.804688 433.492615 1312.432861 371.244446 1284.129639 433.342224 1312.501465 495.590332"/>
      <polygon class="cls-1" points="1283.721191 180.992859 1312.384766 243.881287 1341.213135 180.631409 1312.549561 117.742981 1283.721191 180.992859"/>
      <polygon class="cls-1" points="1283.730103 558.714966 1312.549561 621.945129 1341.320801 558.820496 1312.501465 495.590332 1283.730103 558.714966"/>
      <polygon class="cls-1" points="1283.383667 307.510132 1312.432861 371.244446 1341.434082 307.615601 1312.384766 243.881287 1283.383667 307.510132"/>
      <polygon class="cls-1" points="1283.706787 1063.513916 1312.432861 1126.539307 1341.158936 1063.513916 1312.432861 1000.488708 1283.706787 1063.513916"/>
      <polygon class="cls-1" points="1430.243164 495.590332 1458.546509 433.492615 1430.174805 371.244446 1401.87146 433.342224 1430.243164 495.590332"/>
      <polygon class="cls-1" points="1401.471924 558.714966 1430.29126 621.945129 1459.062744 558.820496 1430.243164 495.590332 1401.471924 558.714966"/>
      <polygon class="cls-1" points="1401.462891 685.194946 1430.126709 748.083435 1458.955078 684.833557 1430.29126 621.945129 1401.462891 685.194946"/>
      <polygon class="cls-1" points="1401.125488 307.510132 1430.174805 371.244446 1459.175781 307.615601 1430.126709 243.881287 1401.125488 307.510132"/>
      <polygon class="cls-1" points="1401.462891 180.992859 1430.126709 243.881287 1458.955078 180.631409 1430.29126 117.742981 1401.462891 180.992859"/>
      <polygon class="cls-1" points="1401.44873 1063.513916 1430.174805 1126.539307 1458.900757 1063.513916 1430.174805 1000.488708 1401.44873 1063.513916"/>
      <polygon class="cls-1" points="1430.174805 1000.488708 1458.670898 937.967651 1430.174805 875.446594 1401.678467 937.967651 1430.174805 1000.488708"/>
      <polygon class="cls-1" points="1401.125488 811.71228 1430.174805 875.446594 1459.175781 811.817749 1430.126709 748.083435 1401.125488 811.71228"/>
      <polygon class="cls-1" points="1342.577759 1063.513916 1371.303833 1126.539307 1400.029785 1063.513916 1371.303833 1000.488708 1342.577759 1063.513916"/>
      <polygon class="cls-1" points="1430.29126 117.742981 1459.062622 54.618347 1430.243164 -8.611755 1401.471924 54.512878 1430.29126 117.742981"/>
      <polygon class="cls-1" points="1342.254639 811.71228 1371.303833 875.446594 1400.304932 811.817749 1371.255737 748.083435 1342.254639 811.71228"/>
      <polygon class="cls-1" points="1489.162354 117.742981 1517.933594 54.618347 1489.114258 -8.611755 1460.342896 54.512878 1489.162354 117.742981"/>
      <polygon class="cls-1" points="1371.372314 495.590332 1399.675537 433.492615 1371.303833 371.244446 1343.000488 433.342224 1371.372314 495.590332"/>
      <polygon class="cls-1" points="1342.592041 685.194946 1371.255737 748.083435 1400.084106 684.833557 1371.42041 621.945129 1342.592041 685.194946"/>
      <polygon class="cls-1" points="1371.303833 1000.488708 1399.800049 937.967651 1371.303833 875.446594 1342.807617 937.967651 1371.303833 1000.488708"/>
      <polygon class="cls-1" points="1342.254639 307.510132 1371.303833 371.244446 1400.304932 307.615601 1371.255737 243.881287 1342.254639 307.510132"/>
      <polygon class="cls-1" points="1342.601074 558.714966 1371.42041 621.945129 1400.191772 558.820496 1371.372314 495.590332 1342.601074 558.714966"/>
      <polygon class="cls-1" points="1106.770996 307.510132 1135.820068 371.244446 1164.821289 307.615601 1135.771973 243.881287 1106.770996 307.510132"/>
      <polygon class="cls-1" points="1106.770996 811.71228 1135.820068 875.446594 1164.821289 811.817749 1135.771973 748.083435 1106.770996 811.71228"/>
      <polygon class="cls-1" points="1107.11731 558.714966 1135.936768 621.945129 1164.708008 558.820496 1135.888672 495.590332 1107.11731 558.714966"/>
      <polygon class="cls-1" points="1135.888672 495.590332 1164.191895 433.492554 1135.820068 371.244446 1107.516846 433.342285 1135.888672 495.590332"/>
      <polygon class="cls-1" points="1107.108398 685.194885 1135.771973 748.083435 1164.600342 684.833618 1135.936768 621.945129 1107.108398 685.194885"/>
      <polygon class="cls-1" points="1107.094116 1063.513916 1135.820068 1126.539307 1164.546143 1063.513916 1135.820068 1000.488708 1107.094116 1063.513916"/>
      <polygon class="cls-1" points="1135.820068 1000.488708 1164.316406 937.967651 1135.820068 875.446594 1107.323975 937.967651 1135.820068 1000.488708"/>
      <polygon class="cls-1" points="1048.237427 685.194946 1076.901123 748.083435 1105.729492 684.833618 1077.065918 621.945129 1048.237427 685.194946"/>
      <polygon class="cls-1" points="1194.807617 117.742981 1223.578979 54.618347 1194.759521 -8.611755 1165.988281 54.512878 1194.807617 117.742981"/>
      <polygon class="cls-1" points="1047.899902 811.71228 1076.949219 875.446594 1105.950439 811.817749 1076.901123 748.083435 1047.899902 811.71228"/>
      <polygon class="cls-1" points="1107.108398 180.992798 1135.771973 243.881287 1164.600342 180.63147 1135.936768 117.742981 1107.108398 180.992798"/>
      <polygon class="cls-1" points="1076.949219 1000.488708 1105.445435 937.967651 1076.949219 875.446594 1048.453003 937.967651 1076.949219 1000.488708"/>
      <polygon class="cls-1" points="1048.246338 558.714966 1077.065918 621.945129 1105.837158 558.820496 1077.017822 495.590332 1048.246338 558.714966"/>
      <polygon class="cls-1" points="1135.936768 117.742981 1164.708008 54.618347 1135.888672 -8.611755 1107.117432 54.512878 1135.936768 117.742981"/>
      <polygon class="cls-1" points="1048.223145 1063.513916 1076.949219 1126.539307 1105.675293 1063.513916 1076.949219 1000.488708 1048.223145 1063.513916"/>
      <polygon class="cls-1" points="1194.759521 495.590332 1223.062866 433.492615 1194.69104 371.244446 1166.387695 433.342285 1194.759521 495.590332"/>
      <polygon class="cls-1" points="1253.630493 495.590332 1281.933838 433.492615 1253.562012 371.244446 1225.258789 433.342224 1253.630493 495.590332"/>
      <polygon class="cls-1" points="1224.85022 180.992859 1253.513916 243.881287 1282.342285 180.631409 1253.678589 117.742981 1224.85022 180.992859"/>
      <polygon class="cls-1" points="1224.512695 307.510132 1253.562012 371.244446 1282.56311 307.615601 1253.513916 243.881287 1224.512695 307.510132"/>
      <polygon class="cls-1" points="1165.979248 180.992798 1194.642944 243.881287 1223.471436 180.631409 1194.807617 117.742981 1165.979248 180.992798"/>
      <polygon class="cls-1" points="1224.85022 685.194946 1253.513916 748.083435 1282.342285 684.833557 1253.678589 621.945129 1224.85022 685.194946"/>
      <polygon class="cls-1" points="1224.512695 811.71228 1253.562012 875.446594 1282.56311 811.817749 1253.513916 748.083435 1224.512695 811.71228"/>
      <polygon class="cls-1" points="1224.859131 558.714966 1253.678589 621.945129 1282.449951 558.820496 1253.630493 495.590332 1224.859131 558.714966"/>
      <polygon class="cls-1" points="1253.678589 117.742981 1282.449951 54.618347 1253.630493 -8.611755 1224.859253 54.512878 1253.678589 117.742981"/>
      <polygon class="cls-1" points="1165.988281 558.714966 1194.807617 621.945129 1223.579102 558.820496 1194.759521 495.590332 1165.988281 558.714966"/>
      <polygon class="cls-1" points="1253.562012 1000.488708 1282.058105 937.967651 1253.562012 875.446594 1225.065796 937.967651 1253.562012 1000.488708"/>
      <polygon class="cls-1" points="1165.641846 307.510132 1194.69104 371.244446 1223.692139 307.615601 1194.642944 243.881287 1165.641846 307.510132"/>
      <polygon class="cls-1" points="1165.979248 685.194885 1194.642944 748.083435 1223.471436 684.833557 1194.807617 621.945129 1165.979248 685.194885"/>
      <polygon class="cls-1" points="1194.69104 1000.488708 1223.187256 937.967651 1194.69104 875.446594 1166.194824 937.967651 1194.69104 1000.488708"/>
      <polygon class="cls-1" points="1165.641846 811.71228 1194.69104 875.446594 1223.692139 811.817749 1194.642944 748.083435 1165.641846 811.71228"/>
      <polygon class="cls-1" points="1165.965088 1063.513916 1194.69104 1126.539307 1223.417114 1063.513916 1194.69104 1000.488708 1165.965088 1063.513916"/>
      <polygon class="cls-1" points="1842.483887 117.742981 1871.255249 54.618347 1842.435791 -8.611755 1813.664551 54.512878 1842.483887 117.742981"/>
      <polygon class="cls-1" points="1754.770386 1063.513916 1783.496338 1126.539307 1812.222412 1063.513916 1783.496338 1000.488708 1754.770386 1063.513916"/>
      <polygon class="cls-1" points="1783.496338 1000.488708 1811.992676 937.967651 1783.496338 875.446594 1755.000244 937.967651 1783.496338 1000.488708"/>
      <polygon class="cls-1" points="1754.784668 685.194946 1783.448242 748.083435 1812.276733 684.833557 1783.613037 621.945129 1754.784668 685.194946"/>
      <polygon class="cls-1" points="1754.447266 811.71228 1783.496338 875.446594 1812.497559 811.817749 1783.448242 748.083435 1754.447266 811.71228"/>
      <polygon class="cls-1" points="1813.655518 180.992859 1842.319336 243.881287 1871.147705 180.631409 1842.483887 117.742981 1813.655518 180.992859"/>
      <polygon class="cls-1" points="1842.435791 495.590332 1870.739136 433.492615 1842.367432 371.244446 1814.064087 433.342224 1842.435791 495.590332"/>
      <polygon class="cls-1" points="1813.318115 307.510132 1842.367432 371.244446 1871.368408 307.615601 1842.319336 243.881287 1813.318115 307.510132"/>
      <polygon class="cls-1" points="1724.625488 1000.488708 1753.121704 937.967651 1724.625488 875.446594 1696.129395 937.967651 1724.625488 1000.488708"/>
      <polygon class="cls-1" points="1783.613037 117.742981 1812.384277 54.618347 1783.564941 -8.611755 1754.793701 54.512878 1783.613037 117.742981"/>
      <polygon class="cls-1" points="1754.793701 558.714966 1783.613037 621.945129 1812.384399 558.820496 1783.564941 495.590332 1754.793701 558.714966"/>
      <polygon class="cls-1" points="1695.899414 1063.513916 1724.625488 1126.539307 1753.351562 1063.513916 1724.625488 1000.488708 1695.899414 1063.513916"/>
      <polygon class="cls-1" points="1813.664551 558.714966 1842.483887 621.945129 1871.255371 558.820496 1842.435791 495.590332 1813.664551 558.714966"/>
      <polygon class="cls-1" points="1783.564941 495.590332 1811.868164 433.492615 1783.496338 371.244446 1755.193115 433.342224 1783.564941 495.590332"/>
      <polygon class="cls-1" points="1754.784668 180.992859 1783.448242 243.881287 1812.276733 180.631409 1783.613037 117.742981 1754.784668 180.992859"/>
      <polygon class="cls-1" points="1754.447266 307.510132 1783.496338 371.244446 1812.497559 307.615601 1783.448242 243.881287 1754.447266 307.510132"/>
      <polygon class="cls-1" points="1813.655518 685.194946 1842.319336 748.083435 1871.147705 684.833557 1842.483887 621.945129 1813.655518 685.194946"/>
      <polygon class="cls-1" points="1872.188965 811.71228 1901.238281 875.446594 1930.23938 811.817749 1901.190186 748.083435 1872.188965 811.71228"/>
      <polygon class="cls-1" points="1872.526489 685.194946 1901.190186 748.083435 1930.018555 684.833557 1901.354858 621.945129 1872.526489 685.194946"/>
      <polygon class="cls-1" points="1901.306763 495.590332 1929.610107 433.492615 1901.238281 371.244446 1872.935059 433.342224 1901.306763 495.590332"/>
      <polygon class="cls-1" points="1901.238281 1000.488708 1929.734375 937.967651 1901.238281 875.446594 1872.742065 937.967651 1901.238281 1000.488708"/>
      <polygon class="cls-1" points="1460.333862 180.992859 1488.997559 243.881287 1517.825928 180.631409 1489.162354 117.742981 1460.333862 180.992859"/>
      <polygon class="cls-1" points="1077.017822 495.590332 1105.321045 433.492554 1076.949219 371.244446 1048.645996 433.342224 1077.017822 495.590332"/>
      <polygon class="cls-1" points="1872.512207 1063.513916 1901.238281 1126.539307 1929.964355 1063.513916 1901.238281 1000.488708 1872.512207 1063.513916"/>
      <polygon class="cls-1" points="1695.576294 811.71228 1724.625488 875.446594 1724.941406 874.753479 1724.893311 874.647949 1753.578613 811.71228 1724.577393 748.083435 1695.576294 811.71228"/>
      <polygon class="cls-1" points="1842.367432 1000.488708 1870.863525 937.967651 1842.367432 875.446594 1813.871094 937.967651 1842.367432 1000.488708"/>
      <polygon class="cls-1" points="1813.641357 1063.513916 1842.367432 1126.539307 1871.093384 1063.513916 1842.367432 1000.488708 1813.641357 1063.513916"/>
      <polygon class="cls-1" points="1813.318115 811.71228 1842.367432 875.446594 1871.368408 811.817749 1842.319336 748.083435 1813.318115 811.71228"/>
      <polygon class="cls-1" points="1872.526489 180.992859 1901.190186 243.881287 1930.018555 180.631409 1901.354858 117.742981 1872.526489 180.992859"/>
      <polygon class="cls-1" points="1872.188965 307.510132 1901.238281 371.244446 1930.23938 307.615601 1901.190186 243.881287 1872.188965 307.510132"/>
      <polygon class="cls-1" points="1901.354858 117.742981 1930.126221 54.618347 1901.306763 -8.611755 1872.535522 54.512878 1901.354858 117.742981"/>
      <polygon class="cls-1" points="1872.5354 558.714966 1901.354858 621.945129 1930.126221 558.820496 1901.306763 495.590332 1872.5354 558.714966"/>
      <polygon class="cls-1" points="1547.985107 495.590332 1576.28833 433.492615 1547.916504 371.244446 1519.613281 433.342224 1547.985107 495.590332"/>
      <polygon class="cls-1" points="1518.86731 307.510132 1547.916504 371.244446 1576.917725 307.615601 1547.868408 243.881287 1518.86731 307.510132"/>
      <polygon class="cls-1" points="1519.213745 558.714966 1548.033203 621.945129 1576.804443 558.820496 1547.985107 495.590332 1519.213745 558.714966"/>
      <polygon class="cls-1" points="1519.204834 180.992859 1547.868408 243.881287 1576.696777 180.631409 1548.033203 117.742981 1519.204834 180.992859"/>
      <polygon class="cls-1" points="1547.916504 1000.488708 1576.41272 937.967651 1547.916504 875.446594 1519.42041 937.967651 1547.916504 1000.488708"/>
      <polygon class="cls-1" points="1548.033203 117.742981 1576.804443 54.618347 1547.985107 -8.611755 1519.213867 54.512878 1548.033203 117.742981"/>
      <polygon class="cls-1" points="1518.86731 811.71228 1547.916504 875.446594 1576.917725 811.817749 1547.868408 748.083435 1518.86731 811.71228"/>
      <polygon class="cls-1" points="1519.204834 685.194946 1547.868408 748.083435 1576.696777 684.833557 1548.033203 621.945129 1519.204834 685.194946"/>
      <polygon class="cls-1" points="1489.045654 1000.488708 1517.541748 937.967651 1489.045654 875.446594 1460.549438 937.967651 1489.045654 1000.488708"/>
      <polygon class="cls-1" points="1489.114258 495.590332 1517.41748 433.492615 1489.045654 371.244446 1460.742432 433.342224 1489.114258 495.590332"/>
      <polygon class="cls-1" points="1460.342773 558.714966 1489.162354 621.945129 1517.933594 558.820496 1489.114258 495.590332 1460.342773 558.714966"/>
      <polygon class="cls-1" points="1459.996338 307.510132 1489.045654 371.244446 1518.046753 307.615601 1488.997559 243.881287 1459.996338 307.510132"/>
      <polygon class="cls-1" points="1460.333862 685.194946 1488.997559 748.083435 1517.825928 684.833557 1489.162354 621.945129 1460.333862 685.194946"/>
      <polygon class="cls-1" points="1695.913818 685.194946 1724.577393 748.083435 1753.405762 684.833557 1724.742188 621.945129 1695.913818 685.194946"/>
      <polygon class="cls-1" points="1460.31958 1063.513916 1489.045654 1126.539307 1517.771729 1063.513916 1489.045654 1000.488708 1460.31958 1063.513916"/>
      <polygon class="cls-1" points="1459.996338 811.71228 1489.045654 875.446594 1518.046753 811.817749 1488.997559 748.083435 1459.996338 811.71228"/>
      <polygon class="cls-1" points="1519.19043 1063.513916 1547.916504 1126.539307 1576.642578 1063.513916 1547.916504 1000.488708 1519.19043 1063.513916"/>
      <polygon class="cls-1" points="1724.742188 117.742981 1753.513428 54.618347 1724.694092 -8.611755 1695.922852 54.512878 1724.742188 117.742981"/>
      <polygon class="cls-1" points="1606.787476 1000.488708 1635.283691 937.967651 1606.787476 875.446594 1578.29126 937.967651 1606.787476 1000.488708"/>
      <polygon class="cls-1" points="1695.913818 180.992859 1724.577393 243.881287 1753.405762 180.631409 1724.742188 117.742981 1695.913818 180.992859"/>
      <polygon class="cls-1" points="1578.061401 1063.513916 1606.787476 1126.539307 1635.51355 1063.513916 1606.787476 1000.488708 1578.061401 1063.513916"/>
      <polygon class="cls-1" points="1695.922729 558.714966 1724.742188 621.945129 1753.513428 558.820496 1724.694092 495.590332 1695.922729 558.714966"/>
      <polygon class="cls-1" points="1695.576294 307.510132 1724.625488 371.244446 1724.941406 370.551331 1724.893311 370.445801 1753.578613 307.510132 1724.577393 243.881287 1695.576294 307.510132"/>
      <polygon class="cls-1" points="1724.694092 495.590332 1752.997314 433.492615 1724.625488 371.244446 1696.322266 433.342224 1724.694092 495.590332"/>
      <polygon class="cls-1" points="1578.075684 180.992859 1606.73938 243.881287 1635.567749 180.63147 1606.904053 117.742981 1578.075684 180.992859"/>
      <polygon class="cls-1" points="1606.904053 117.742981 1635.675293 54.618347 1606.855957 -8.611755 1578.084717 54.512878 1606.904053 117.742981"/>
      <polygon class="cls-1" points="1577.738281 811.71228 1606.787476 875.446594 1635.788574 811.817749 1606.73938 748.083435 1577.738281 811.71228"/>
      <polygon class="cls-1" points="1577.738281 307.510132 1606.787476 371.244446 1635.788574 307.615601 1606.73938 243.881287 1577.738281 307.510132"/>
      <polygon class="cls-1" points="1606.855957 495.590332 1635.159302 433.492554 1606.787476 371.244446 1578.484131 433.342224 1606.855957 495.590332"/>
      <polygon class="cls-1" points="1578.075684 685.194946 1606.73938 748.083435 1635.567749 684.833618 1606.904053 621.945129 1578.075684 685.194946"/>
      <polygon class="cls-1" points="1578.084717 558.714966 1606.904053 621.945129 1635.675415 558.820496 1606.855957 495.590332 1578.084717 558.714966"/>
      <polygon class="cls-1" points="47.244263 685.184326 76.369751 748.288147 104.737305 684.846313 76.067871 621.945129 47.244263 685.184326"/>
      <polygon class="cls-1" points="-11.645752 1063.513916 17.080322 1126.539307 45.806335 1063.513916 17.080322 1000.488708 -11.645752 1063.513916"/>
      <polygon class="cls-1" points="17.080322 1000.488708 45.576477 937.967651 17.080322 875.446594 -11.415894 937.967651 17.080322 1000.488708"/>
      <polygon class="cls-1" points="-11.63147 685.194946 17.032227 748.083435 -11.968933 811.71228 17.080322 875.446594 46.333069 811.265625 17.290588 748.341858 45.864502 684.842041 17.19696 621.945129 -11.63147 685.194946"/>
      <polygon class="cls-1" points="76.067871 117.742981 104.839111 54.618347 76.019775 -8.611755 47.248474 54.512878 76.067871 117.742981"/>
      <polygon class="cls-1" points="-11.622498 558.714966 17.19696 621.945129 45.968262 558.820496 17.148865 495.590332 -11.622498 558.714966"/>
      <polygon class="cls-1" points="46.901978 307.510132 75.951233 371.244446 104.952332 307.615601 75.903137 243.881287 46.901978 307.510132"/>
      <polygon class="cls-1" points="47.239441 180.992859 75.903137 243.881287 104.731506 180.631409 76.067871 117.742981 47.239441 180.992859"/>
      <polygon class="cls-1" points="47.248413 558.714966 76.067871 621.945129 104.839172 558.820496 76.019775 495.590332 47.248413 558.714966"/>
      <polygon class="cls-1" points="17.148865 495.590332 45.452087 433.492615 17.080322 371.244446 -11.222961 433.342224 17.148865 495.590332"/>
      <polygon class="cls-1" points="76.019775 495.590332 104.322998 433.492615 75.951233 371.244446 47.647949 433.342224 76.019775 495.590332"/>
      <polygon class="cls-1" points="17.19696 117.742981 45.968201 54.618347 17.148865 -8.611755 -11.622437 54.512878 17.19696 117.742981"/>
      <polygon class="cls-1" points="75.951233 1000.488708 47.225159 1063.513916 75.951233 1126.539307 104.677246 1063.513916 75.951233 1000.488708"/>
      <polygon class="cls-1" points="-11.968933 307.510132 17.080322 371.244446 46.081421 307.615601 17.032227 243.881287 -11.968933 307.510132"/>
      <polygon class="cls-1" points="104.447388 937.967651 75.951233 875.446594 47.455017 937.967651 75.951233 1000.488708 104.447388 937.967651"/>
      <polygon class="cls-1" points="134.822144 1000.488708 106.096069 1063.513916 134.822144 1126.539307 163.548218 1063.513916 134.822144 1000.488708"/>
      <polygon class="cls-1" points="163.318359 937.967651 134.822144 875.446594 106.325928 937.967651 134.822144 1000.488708 163.318359 937.967651"/>
      <polygon class="cls-1" points="105.324829 811.000427 76.513794 748.953735 47.592163 813.22644 75.951233 875.446594 105.324829 811.000427"/>
      <polygon class="cls-1" points="1047.899902 307.510132 1076.949219 371.244446 1105.950439 307.615601 1076.901123 243.881287 1047.899902 307.510132"/>
      <polygon class="cls-1" points="134.938782 117.742981 163.710022 54.618347 134.890686 -8.611755 106.119385 54.512878 134.938782 117.742981"/>
      <polygon class="cls-1" points="164.19165 811.009583 135.634827 749.497559 106.804199 813.974915 134.822144 875.446594 164.19165 811.009583"/>
      <polygon class="cls-1" points="282.819336 180.992859 311.482971 243.881287 340.311401 180.631409 311.647705 117.742981 282.819336 180.992859"/>
      <polygon class="cls-1" points="311.647705 117.742981 340.419006 54.618347 311.599609 -8.611755 282.828369 54.512878 311.647705 117.742981"/>
      <polygon class="cls-1" points="311.599609 495.590332 339.902893 433.492615 311.531067 371.244446 283.227844 433.342224 311.599609 495.590332"/>
      <polygon class="cls-1" points="223.861206 54.512878 252.680603 117.742981 223.852234 180.992798 252.515869 243.881287 223.514771 307.510132 252.563965 371.244446 224.260681 433.342285 252.632507 495.590332 223.861145 558.714966 252.680603 621.945129 223.862976 685.171204 253.239258 747.845093 281.445923 684.845398 252.776794 621.945129 281.548157 558.820496 252.728699 495.590332 281.031982 433.492615 252.660156 371.244446 252.976074 370.551331 252.927979 370.445801 281.61322 307.510132 252.612061 243.881287 281.440491 180.631409 252.776794 117.742981 281.548096 54.618347 252.728699 -8.611755 253.114929 -9.459229 252.680603 -10.41217 252.246277 -9.459229 252.632507 -8.611755 223.861206 54.512878"/>
      <polygon class="cls-1" points="282.481873 307.510132 311.531067 371.244446 311.846985 370.55127 311.798889 370.44574 340.484131 307.510132 311.482971 243.881287 282.481873 307.510132"/>
      <polygon class="cls-1" points="370.518616 117.742981 399.289917 54.618347 370.47052 -8.611755 341.69928 54.512878 370.518616 117.742981"/>
      <polygon class="cls-1" points="341.690247 180.992859 370.353882 243.881287 399.182312 180.631409 370.518616 117.742981 341.690247 180.992859"/>
      <polygon class="cls-1" points="282.828308 558.714966 311.647705 621.945129 340.419067 558.820496 311.599609 495.590332 282.828308 558.714966"/>
      <polygon class="cls-1" points="282.82605 685.180237 311.95929 747.998596 340.315979 684.843506 311.647705 621.945129 282.82605 685.180237"/>
      <polygon class="cls-1" points="134.890686 495.590332 163.19397 433.492554 134.822144 371.244446 106.51886 433.342224 134.890686 495.590332"/>
      <polygon class="cls-1" points="106.119324 558.714966 134.938782 621.945129 163.710083 558.820496 134.890686 495.590332 106.119324 558.714966"/>
      <polygon class="cls-1" points="106.117554 685.179199 135.326294 748.08252 163.608154 684.84613 134.938782 621.945129 106.117554 685.179199"/>
      <polygon class="cls-1" points="105.772888 307.510132 134.822144 371.244446 163.823242 307.615723 134.774048 243.881287 105.772888 307.510132"/>
      <polygon class="cls-1" points="106.110352 180.992859 134.774048 243.881287 163.602417 180.631409 134.938782 117.742981 106.110352 180.992859"/>
      <polygon class="cls-1" points="164.990234 558.714966 193.809692 621.945129 222.580994 558.820496 193.761597 495.590332 164.990234 558.714966"/>
      <polygon class="cls-1" points="193.761597 495.590332 222.06488 433.492554 193.693054 371.244446 165.389771 433.342285 193.761597 495.590332"/>
      <polygon class="cls-1" points="164.988342 685.179382 194.345642 748.415588 222.482239 684.853088 193.809692 621.945129 164.988342 685.179382"/>
      <polygon class="cls-1" points="193.809692 117.742981 222.580933 54.618347 193.761597 -8.611755 164.990295 54.512878 193.809692 117.742981"/>
      <polygon class="cls-1" points="164.64386 307.51001 193.693054 371.244446 222.694214 307.615601 193.644958 243.881287 164.64386 307.51001"/>
      <polygon class="cls-1" points="164.981262 180.992859 193.644958 243.881287 222.473328 180.63147 193.809692 117.742981 164.981262 180.992859"/>
      <polygon class="cls-1" points="517.40094 811.256165 489.002014 749.739868 460.232239 814.208252 488.14386 875.446594 517.40094 811.256165"/>
      <polygon class="cls-1" points="987.933411 1063.513916 959.207397 1000.488708 987.572144 938.256042 959.027832 875.629578 930.61499 937.967651 959.111206 1000.488708 930.385132 1063.513916 959.111206 1126.539307 958.765747 1127.297119 959.018616 1127.851807 959.41217 1126.988525 959.207397 1126.539307 987.933411 1063.513916"/>
      <polygon class="cls-1" points="1694.480713 1063.513916 1665.754639 1000.488708 1694.250732 937.967651 1665.754639 875.446594 1666.070557 874.753479 1666.022461 874.647949 1694.707642 811.71228 1665.706543 748.083435 1694.534912 684.833557 1665.871216 621.945129 1694.642578 558.820496 1665.82312 495.590332 1694.126465 433.492615 1665.754639 371.244446 1666.070557 370.551331 1666.022461 370.445801 1694.707642 307.510132 1665.706543 243.881287 1694.534912 180.631409 1665.871216 117.742981 1694.642578 54.618347 1665.82312 -8.611755 1666.209351 -9.459229 1665.775024 -10.41217 1665.340698 -9.459229 1665.726929 -8.611755 1636.955566 54.512878 1665.775024 117.742981 1636.946655 180.992798 1665.610352 243.881287 1636.609131 307.510132 1665.658447 371.244446 1637.355103 433.342285 1665.726929 495.590332 1636.955566 558.714966 1665.775024 621.945129 1636.946655 685.194885 1665.610352 748.083435 1636.609131 811.71228 1665.658447 875.446594 1637.162231 937.967651 1665.658447 1000.488708 1636.932373 1063.513916 1665.658447 1126.539307 1665.312988 1127.297119 1665.565796 1127.851807 1665.959351 1126.988525 1665.754639 1126.539307 1694.480713 1063.513916"/>
      <polygon class="cls-1" points="547.014771 1000.488708 518.288696 1063.513916 547.014771 1126.539307 575.740784 1063.513916 547.014771 1000.488708"/>
      <polygon class="cls-1" points="311.531067 1000.488708 282.805054 1063.513916 311.531067 1126.539307 340.257141 1063.513916 311.531067 1000.488708"/>
      <polygon class="cls-1" points="340.027283 937.967651 311.531067 875.446594 283.034912 937.967651 311.531067 1000.488708 340.027283 937.967651"/>
      <polygon class="cls-1" points="311.798889 874.647888 340.777405 811.068726 312.270325 749.434265 283.442749 813.820435 311.531067 875.446594 311.846985 874.753418 311.798889 874.647888"/>
      <polygon class="cls-1" points="399.816956 810.90979 371.063293 749.114136 342.160767 813.484985 370.401978 875.446594 399.816956 810.90979"/>
      <polygon class="cls-1" points="398.898193 937.967651 370.401978 875.446594 341.905823 937.967651 370.401978 1000.488708 398.898193 937.967651"/>
      <polygon class="cls-1" points="222.18927 937.967651 193.693054 875.446594 165.196899 937.967651 193.693054 1000.488708 222.18927 937.967651"/>
      <polygon class="cls-1" points="223.12854 810.864807 214.131592 791.125366 194.552795 749.354309 165.663391 813.949097 193.693054 875.446594 223.12854 810.864807"/>
      <polygon class="cls-1" points="193.693054 1000.488708 164.967041 1063.513916 193.693054 1126.539307 222.419128 1063.513916 193.693054 1000.488708"/>
      <polygon class="cls-1" points="281.38623 1063.513916 252.660156 1000.488708 281.156372 937.967651 252.660156 875.446594 252.976074 874.753479 252.927979 874.647949 281.96051 810.950256 253.8172 750.266357 225.239807 814.824646 223.254395 810.588745 223.12854 810.864807 252.563965 875.446594 224.06781 937.967651 252.563965 1000.488708 223.837952 1063.513916 252.563965 1126.539307 252.218506 1127.297119 252.471375 1127.851807 252.864929 1126.988525 252.660156 1126.539307 281.38623 1063.513916"/>
      <polygon class="cls-1" points="576.015869 811.817749 547.479858 749.209412 518.667786 813.252991 547.014771 875.446594 576.015869 811.817749"/>
      <polygon class="cls-1" points="516.640015 937.967651 488.14386 875.446594 459.647644 937.967651 488.14386 1000.488708 516.640015 937.967651"/>
      <polygon class="cls-1" points="488.14386 1000.488708 459.417786 1063.513916 488.14386 1126.539307 516.869873 1063.513916 488.14386 1000.488708"/>
      <polygon class="cls-1" points="370.401978 1000.488708 341.675964 1063.513916 370.401978 1126.539307 399.128052 1063.513916 370.401978 1000.488708"/>
      <polygon class="cls-1" points="575.510925 937.967651 547.014771 875.446594 518.518555 937.967651 547.014771 1000.488708 575.510925 937.967651"/>
      <polygon class="cls-1" points="341.352783 307.510132 370.401978 371.244446 399.403137 307.615601 370.353882 243.881287 341.352783 307.510132"/>
      <polygon class="cls-1" points="458.683777 810.918823 430.184692 749.657837 401.373108 814.23407 429.272949 875.446594 458.683777 810.918823"/>
      <polygon class="cls-1" points="457.769104 937.967651 429.272949 875.446594 400.776733 937.967651 429.272949 1000.488708 457.769104 937.967651"/>
      <polygon class="cls-1" points="429.272949 1000.488708 400.546875 1063.513916 429.272949 1126.539307 457.998962 1063.513916 429.272949 1000.488708"/>
      <polygon class="cls-1" points="-11.63147 180.992859 17.032227 243.881287 45.860596 180.631409 17.19696 117.742981 -11.63147 180.992859"/>
      <polygon class="cls-1" points="841.485962 117.742981 870.257263 54.618347 841.437866 -8.611755 812.666626 54.512878 841.485962 117.742981"/>
      <polygon class="cls-1" points="753.7724 1063.513916 782.498413 1126.539307 811.224487 1063.513916 782.498413 1000.488708 753.7724 1063.513916"/>
      <polygon class="cls-1" points="782.498413 1000.488708 810.994629 937.967651 782.498413 875.446594 754.002258 937.967651 782.498413 1000.488708"/>
      <polygon class="cls-1" points="812.657593 180.992859 841.321228 243.881287 870.149658 180.631409 841.485962 117.742981 812.657593 180.992859"/>
      <polygon class="cls-1" points="753.449219 811.71228 782.498413 875.446594 811.499573 811.817749 782.450317 748.083435 753.449219 811.71228"/>
      <polygon class="cls-1" points="812.320129 307.510132 841.369324 371.244446 870.370483 307.615601 841.321228 243.881287 812.320129 307.510132"/>
      <polygon class="cls-1" points="812.320129 811.71228 841.369324 875.446594 870.370483 811.817749 841.321228 748.083435 812.320129 811.71228"/>
      <polygon class="cls-1" points="812.657593 685.194946 841.321228 748.083435 870.149658 684.833557 841.485962 621.945129 812.657593 685.194946"/>
      <polygon class="cls-1" points="753.786682 685.194946 782.450317 748.083435 811.278748 684.833557 782.615051 621.945129 753.786682 685.194946"/>
      <polygon class="cls-1" points="812.666565 558.714966 841.485962 621.945129 870.257324 558.820496 841.437866 495.590332 812.666565 558.714966"/>
      <polygon class="cls-1" points="841.437866 495.590332 869.74115 433.492615 841.369324 371.244446 813.066101 433.342224 841.437866 495.590332"/>
      <polygon class="cls-1" points="753.449219 307.510132 782.498413 371.244446 811.499573 307.615601 782.450317 243.881287 753.449219 307.510132"/>
      <polygon class="cls-1" points="694.578308 811.71228 723.627502 875.446594 752.628662 811.817749 723.579407 748.083435 694.578308 811.71228"/>
      <polygon class="cls-1" points="723.627502 1000.488708 752.123718 937.967651 723.627502 875.446594 695.131348 937.967651 723.627502 1000.488708"/>
      <polygon class="cls-1" points="753.795654 558.714966 782.615051 621.945129 811.386414 558.820496 782.566956 495.590332 753.795654 558.714966"/>
      <polygon class="cls-1" points="694.915771 685.194885 723.579407 748.083435 752.407837 684.833557 723.744141 621.945129 694.915771 685.194885"/>
      <polygon class="cls-1" points="694.901489 1063.513916 723.627502 1126.539307 752.353577 1063.513916 723.627502 1000.488708 694.901489 1063.513916"/>
      <polygon class="cls-1" points="694.924683 558.714966 723.744141 621.945129 752.515503 558.820496 723.696045 495.590332 694.924683 558.714966"/>
      <polygon class="cls-1" points="782.566956 495.590332 810.870239 433.492615 782.498413 371.244446 754.19519 433.342224 782.566956 495.590332"/>
      <polygon class="cls-1" points="841.369324 1000.488708 869.86554 937.967651 841.369324 875.446594 812.873169 937.967651 841.369324 1000.488708"/>
      <polygon class="cls-1" points="753.786682 180.992859 782.450317 243.881287 811.278748 180.631409 782.615051 117.742981 753.786682 180.992859"/>
      <polygon class="cls-1" points="782.615051 117.742981 811.386353 54.618347 782.566956 -8.611755 753.795715 54.512878 782.615051 117.742981"/>
      <polygon class="cls-1" points="871.537476 558.714966 900.356873 621.945129 929.128235 558.820496 900.308777 495.590332 871.537476 558.714966"/>
      <polygon class="cls-1" points="1018.146851 495.590332 1046.450073 433.492615 1018.078308 371.244446 989.775024 433.342224 1018.146851 495.590332"/>
      <polygon class="cls-1" points="989.029053 307.510132 1018.078308 371.244446 1018.394226 370.551331 1018.34613 370.445801 1047.03125 307.510132 1018.030212 243.881287 989.029053 307.510132"/>
      <polygon class="cls-1" points="370.47052 495.590332 398.773804 433.492615 370.401978 371.244446 342.098755 433.342224 370.47052 495.590332"/>
      <polygon class="cls-1" points="989.375488 558.714966 1018.194946 621.945129 1046.966309 558.820496 1018.146851 495.590332 989.375488 558.714966"/>
      <polygon class="cls-1" points="1018.194946 117.742981 1046.966187 54.618347 1018.146851 -8.611755 989.375549 54.512878 1018.194946 117.742981"/>
      <polygon class="cls-1" points="989.366516 180.992859 1018.030212 243.881287 1046.858643 180.631409 1018.194946 117.742981 989.366516 180.992859"/>
      <polygon class="cls-1" points="989.133118 811.483948 1017.830688 874.446777 989.230408 937.196106 1018.078308 1000.488708 1046.574463 937.967651 1018.078308 875.446594 1018.394226 874.753479 1018.34613 874.647949 1047.03125 811.71228 1018.030212 748.083435 989.133118 811.483948"/>
      <polygon class="cls-1" points="1077.065918 117.742981 1105.837158 54.618347 1077.017822 -8.611755 1048.24646 54.512878 1077.065918 117.742981"/>
      <polygon class="cls-1" points="812.643311 1063.513916 841.369324 1126.539307 870.095398 1063.513916 841.369324 1000.488708 812.643311 1063.513916"/>
      <polygon class="cls-1" points="989.352234 1063.513916 1018.078308 1126.539307 1046.804321 1063.513916 1018.078308 1000.488708 989.352234 1063.513916"/>
      <polygon class="cls-1" points="930.408447 54.512878 959.227783 117.742981 930.399414 180.992859 959.06311 243.881287 930.061951 307.510132 959.111206 371.244446 930.807922 433.342224 959.179688 495.590332 930.408386 558.714966 959.227783 621.945129 930.399414 685.194946 959.06311 748.083435 930.061951 811.71228 958.572083 874.263794 987.621338 810.529541 959.159302 748.083435 987.987671 684.833557 959.324036 621.945129 988.095337 558.820496 959.27594 495.590332 987.579163 433.492615 959.207397 371.244446 959.523315 370.551331 959.47522 370.445801 988.1604 307.510132 959.159302 243.881287 987.987671 180.631409 959.324036 117.742981 988.095276 54.618347 959.27594 -8.611755 959.66217 -9.459106 959.227783 -10.41217 958.793457 -9.459229 959.179688 -8.611755 930.408447 54.512878"/>
      <polygon class="cls-1" points="1048.237427 180.992859 1076.901123 243.881287 1105.729492 180.63147 1077.065918 117.742981 1048.237427 180.992859"/>
      <polygon class="cls-1" points="871.528503 180.992859 900.1922 243.881287 929.020569 180.631409 900.356873 117.742981 871.528503 180.992859"/>
      <polygon class="cls-1" points="900.308777 495.590332 928.612061 433.492615 900.240295 371.244446 871.937012 433.342224 900.308777 495.590332"/>
      <polygon class="cls-1" points="871.19104 307.510132 900.240295 371.244446 929.241394 307.615601 900.1922 243.881287 871.19104 307.510132"/>
      <polygon class="cls-1" points="900.356873 117.742981 929.128174 54.618347 900.308777 -8.611755 871.537537 54.512878 900.356873 117.742981"/>
      <polygon class="cls-1" points="900.240295 1000.488708 928.73645 937.967651 900.240295 875.446594 871.74408 937.967651 900.240295 1000.488708"/>
      <polygon class="cls-1" points="723.696045 495.590332 751.999329 433.492615 723.627502 371.244446 695.324219 433.342285 723.696045 495.590332"/>
      <polygon class="cls-1" points="871.514221 1063.513916 900.240295 1126.539307 928.966309 1063.513916 900.240295 1000.488708 871.514221 1063.513916"/>
      <polygon class="cls-1" points="871.19104 811.71228 900.240295 875.446594 929.241394 811.817749 900.1922 748.083435 871.19104 811.71228"/>
      <polygon class="cls-1" points="871.528503 685.194946 900.1922 748.083435 929.020569 684.833557 900.356873 621.945129 871.528503 685.194946"/>
      <polygon class="cls-1" points="989.366516 685.194946 1018.030212 748.083435 1046.858643 684.833557 1018.194946 621.945129 989.366516 685.194946"/>
      <polygon class="cls-1" points="518.302979 180.992859 546.966675 243.881287 575.795044 180.631409 547.131409 117.742981 518.302979 180.992859"/>
      <polygon class="cls-1" points="547.083313 495.590332 575.386536 433.492615 547.014771 371.244446 518.711487 433.342224 547.083313 495.590332"/>
      <polygon class="cls-1" points="518.311951 558.714966 547.131409 621.945129 575.90271 558.820496 547.083313 495.590332 518.311951 558.714966"/>
      <polygon class="cls-1" points="547.131409 117.742981 575.902649 54.618347 547.083313 -8.611755 518.312012 54.512878 547.131409 117.742981"/>
      <polygon class="cls-1" points="518.307922 685.184143 547.154785 747.670776 575.795044 684.833557 547.131409 621.945129 518.307922 685.184143"/>
      <polygon class="cls-1" points="459.439941 685.177673 488.588684 747.835205 516.928101 684.842224 488.260498 621.945129 459.439941 685.177673"/>
      <polygon class="cls-1" points="576.836426 811.71228 605.885681 875.446594 634.886841 811.817749 605.837585 748.083435 576.836426 811.71228"/>
      <polygon class="cls-1" points="577.173889 685.194946 605.837585 748.083435 634.665955 684.833618 606.002319 621.945129 577.173889 685.194946"/>
      <polygon class="cls-1" points="605.954224 495.590332 634.257507 433.492554 605.885681 371.244446 577.582397 433.342224 605.954224 495.590332"/>
      <polygon class="cls-1" points="459.44104 558.714966 488.260498 621.945129 517.031799 558.820496 488.212402 495.590332 459.44104 558.714966"/>
      <polygon class="cls-1" points="577.182861 558.714966 606.002319 621.945129 634.773621 558.820496 605.954224 495.590332 577.182861 558.714966"/>
      <polygon class="cls-1" points="606.002319 117.742981 634.77356 54.618347 605.954224 -8.611755 577.182922 54.512878 606.002319 117.742981"/>
      <polygon class="cls-1" points="577.173889 180.992859 605.837585 243.881287 634.665955 180.63147 606.002319 117.742981 577.173889 180.992859"/>
      <polygon class="cls-1" points="576.836426 307.510132 605.885681 371.244446 634.886841 307.615601 605.837585 243.881287 576.836426 307.510132"/>
      <polygon class="cls-1" points="400.561157 180.992859 429.224854 243.881287 458.053223 180.631409 429.389526 117.742981 400.561157 180.992859"/>
      <polygon class="cls-1" points="429.389526 117.742981 458.160828 54.618347 429.341431 -8.611755 400.57019 54.512878 429.389526 117.742981"/>
      <polygon class="cls-1" points="400.223694 307.510132 429.272949 371.244446 458.274048 307.615601 429.224854 243.881287 400.223694 307.510132"/>
      <polygon class="cls-1" points="341.699219 558.714966 370.518616 621.945129 399.289978 558.820496 370.47052 495.590332 341.699219 558.714966"/>
      <polygon class="cls-1" points="429.341431 495.590332 457.644714 433.492615 429.272949 371.244446 400.969666 433.342224 429.341431 495.590332"/>
      <polygon class="cls-1" points="341.695923 685.182556 370.883667 748.288879 399.188782 684.847778 370.518616 621.945129 341.695923 685.182556"/>
      <polygon class="cls-1" points="400.569153 685.17749 429.839722 748.084045 458.059631 684.847595 429.389526 621.945129 400.569153 685.17749"/>
      <polygon class="cls-1" points="400.570129 558.714966 429.389526 621.945129 458.160889 558.820496 429.341431 495.590332 400.570129 558.714966"/>
      <polygon class="cls-1" points="488.260498 117.742981 517.031738 54.618347 488.212402 -8.611755 459.441101 54.512878 488.260498 117.742981"/>
      <polygon class="cls-1" points="459.094604 307.510132 488.14386 371.244446 517.144958 307.615601 488.095764 243.881287 459.094604 307.510132"/>
      <polygon class="cls-1" points="459.432068 180.992859 488.095764 243.881287 516.924133 180.631409 488.260498 117.742981 459.432068 180.992859"/>
      <polygon class="cls-1" points="488.212402 495.590332 516.515625 433.492615 488.14386 371.244446 459.840576 433.342224 488.212402 495.590332"/>
      <polygon class="cls-1" points="517.965515 307.510132 547.014771 371.244446 576.015869 307.615601 546.966675 243.881287 517.965515 307.510132"/>
      <polygon class="cls-1" points="664.756592 1000.488708 693.252808 937.967651 664.756592 875.446594 636.260437 937.967651 664.756592 1000.488708"/>
      <polygon class="cls-1" points="635.707397 811.71228 664.756592 875.446594 693.757751 811.817749 664.708496 748.083435 635.707397 811.71228"/>
      <polygon class="cls-1" points="636.030579 1063.513916 664.756592 1126.539307 693.482666 1063.513916 664.756592 1000.488708 636.030579 1063.513916"/>
      <polygon class="cls-1" points="636.044861 685.194885 664.708496 748.083435 693.536865 684.833618 664.87323 621.945129 636.044861 685.194885"/>
      <polygon class="cls-1" points="723.744141 117.742981 752.515442 54.618347 723.696045 -8.611755 694.924744 54.512878 723.744141 117.742981"/>
      <polygon class="cls-1" points="694.915771 180.992798 723.579407 243.881287 752.407837 180.631409 723.744141 117.742981 694.915771 180.992798"/>
      <polygon class="cls-1" points="694.578308 307.510132 723.627502 371.244446 752.628662 307.615601 723.579407 243.881287 694.578308 307.510132"/>
      <polygon class="cls-1" points="605.885681 1000.488708 634.381897 937.967651 605.885681 875.446594 577.389465 937.967651 605.885681 1000.488708"/>
      <polygon class="cls-1" points="636.053772 558.714966 664.87323 621.945129 693.644531 558.820496 664.825134 495.590332 636.053772 558.714966"/>
      <polygon class="cls-1" points="635.707397 307.510132 664.756592 371.244446 693.757751 307.615601 664.708496 243.881287 635.707397 307.510132"/>
      <polygon class="cls-1" points="664.825134 495.590332 693.128418 433.492554 664.756592 371.244446 636.453308 433.342285 664.825134 495.590332"/>
      <polygon class="cls-1" points="577.159607 1063.513916 605.885681 1126.539307 634.611755 1063.513916 605.885681 1000.488708 577.159607 1063.513916"/>
      <polygon class="cls-1" points="636.044861 180.992798 664.708496 243.881287 693.536865 180.63147 664.87323 117.742981 636.044861 180.992798"/>
      <polygon class="cls-1" points="664.87323 117.742981 693.64447 54.618347 664.825134 -8.611755 636.053833 54.512878 664.87323 117.742981"/>
      <polygon class="cls-3" points="1931.406372 558.714966 1960.177734 495.590332 1931.805908 433.342224 1960.109131 371.244446 1931.059937 307.510132 1960.061035 243.881287 1931.397461 180.992859 1960.22583 117.742981 1931.406494 54.512878 1960.177734 -8.611755 1930.742188 -73.193542 1901.741089 -9.564697 1901.306763 -8.611755 1930.126221 54.618347 1901.354858 117.742981 1930.018555 180.631409 1901.190186 243.881287 1930.23938 307.615601 1901.238281 371.244446 1929.610107 433.492615 1901.306763 495.590332 1930.126221 558.820496 1901.354858 621.945129 1930.018555 684.833557 1901.190186 748.083435 1930.23938 811.817749 1901.238281 875.446594 1929.734375 937.967651 1901.238281 1000.488708 1929.964355 1063.513916 1901.238281 1126.539307 1901.491211 1127.093994 1930.673706 1191.121094 1960.109131 1126.539307 1931.383057 1063.513916 1960.109131 1000.488708 1931.613037 937.967651 1960.109131 875.446594 1931.059937 811.71228 1960.061035 748.083435 1931.397461 685.194946 1960.22583 621.945129 1931.406372 558.714966"/>
      <polygon class="cls-3" points="-11.645752 1063.513916 17.080322 1000.488708 -11.415894 937.967651 17.080322 875.446594 -11.968933 811.71228 17.032227 748.083435 -11.63147 685.194946 17.19696 621.945129 -11.622498 558.714966 17.148865 495.590332 -11.222961 433.342224 17.080322 371.244446 -11.968933 307.510132 17.032227 243.881287 -11.63147 180.992859 17.19696 117.742981 -11.622437 54.512878 17.148865 -8.611755 16.762634 -9.459229 -12.286621 -73.193542 -41.722046 -8.611755 -12.90271 54.618347 -41.67395 117.742981 -13.010315 180.631409 -41.838684 243.881287 -12.78949 307.615601 -41.790588 371.244446 -13.418823 433.492615 -41.722046 495.590332 -12.902649 558.820496 -41.67395 621.945129 -13.010315 684.833557 -41.838684 748.083435 -12.78949 811.817749 -41.790588 875.446594 -13.294434 937.967651 -41.790588 1000.488708 -13.064575 1063.513916 -41.790588 1126.539307 -12.355164 1191.121094 16.734863 1127.297119 17.080322 1126.539307 -11.645752 1063.513916"/>
      <polygon class="cls-3" points="223.837952 1063.513916 252.563965 1000.488708 224.06781 937.967651 252.563965 875.446594 223.12854 810.864807 193.693054 875.446594 222.18927 937.967651 193.693054 1000.488708 222.419128 1063.513916 193.693054 1126.539307 193.945923 1127.093994 223.12854 1191.121094 252.218506 1127.297119 252.563965 1126.539307 223.837952 1063.513916"/>
      <polygon class="cls-3" points="577.159607 1063.513916 605.885681 1000.488708 577.389465 937.967651 605.885681 875.446594 576.836426 811.71228 605.837585 748.083435 577.173889 685.194946 606.002319 621.945129 577.182861 558.714966 605.954224 495.590332 577.582397 433.342224 605.885681 371.244446 576.836426 307.510132 605.837585 243.881287 577.173889 180.992859 606.002319 117.742981 577.182922 54.512878 605.954224 -8.611755 605.567993 -9.459229 576.518738 -73.193542 547.517639 -9.564697 547.083313 -8.611755 575.902649 54.618347 547.131409 117.742981 575.795044 180.631409 546.966675 243.881287 576.015869 307.615601 547.014771 371.244446 575.386536 433.492615 547.083313 495.590332 575.90271 558.820496 547.131409 621.945129 575.795044 684.833557 547.154785 747.670776 518.307922 685.184143 547.131409 621.945129 518.311951 558.714966 547.083313 495.590332 518.711487 433.342224 547.014771 371.244446 517.965515 307.510132 546.966675 243.881287 518.302979 180.992859 547.131409 117.742981 518.312012 54.512878 547.083313 -8.611755 546.697083 -9.459229 517.647827 -73.193542 488.646729 -9.564697 488.212402 -8.611755 517.031738 54.618347 488.260498 117.742981 516.924133 180.631409 488.095764 243.881287 517.144958 307.615601 488.14386 371.244446 516.515625 433.492615 488.212402 495.590332 517.031799 558.820496 488.260498 621.945129 516.928101 684.842224 488.588684 747.835205 459.439941 685.177673 488.260498 621.945129 459.44104 558.714966 488.212402 495.590332 459.840576 433.342224 488.14386 371.244446 459.094604 307.510132 488.095764 243.881287 459.432068 180.992859 488.260498 117.742981 459.441101 54.512878 488.212402 -8.611755 487.826172 -9.459229 458.776917 -73.193542 429.775757 -9.564697 429.341431 -8.611755 458.160828 54.618347 429.389526 117.742981 458.053223 180.631409 429.224854 243.881287 458.274048 307.615601 429.272949 371.244446 457.644714 433.492615 429.341431 495.590332 458.160889 558.820496 429.389526 621.945129 458.059631 684.847595 429.839722 748.084045 400.569153 685.17749 429.389526 621.945129 400.570129 558.714966 429.341431 495.590332 400.969666 433.342224 429.272949 371.244446 400.223694 307.510132 429.224854 243.881287 400.561157 180.992859 429.389526 117.742981 400.57019 54.512878 429.341431 -8.611755 428.9552 -9.459229 399.906006 -73.193542 370.904846 -9.564697 370.47052 -8.611755 399.289917 54.618347 370.518616 117.742981 399.182312 180.631409 370.353882 243.881287 399.403137 307.615601 370.401978 371.244446 398.773804 433.492615 370.47052 495.590332 399.289978 558.820496 370.518616 621.945129 399.188782 684.847778 370.883667 748.288879 341.695923 685.182556 370.518616 621.945129 341.699219 558.714966 370.47052 495.590332 342.098755 433.342224 370.401978 371.244446 341.352783 307.510132 370.353882 243.881287 341.690247 180.992859 370.518616 117.742981 341.69928 54.512878 370.47052 -8.611755 370.08429 -9.459229 341.035095 -73.193542 311.98584 -9.459229 311.599609 -8.611755 340.419006 54.618347 311.647705 117.742981 340.311401 180.631409 311.482971 243.881287 340.484131 307.510132 340.532227 307.615601 311.846985 370.55127 311.531067 371.244446 339.902893 433.492615 311.599609 495.590332 340.419067 558.820496 311.647705 621.945129 340.315979 684.843506 311.95929 747.998596 282.82605 685.180237 311.647705 621.945129 282.828308 558.714966 311.599609 495.590332 283.227844 433.342224 311.531067 371.244446 282.481873 307.510132 311.482971 243.881287 282.819336 180.992859 311.647705 117.742981 282.828369 54.512878 311.599609 -8.611755 311.165283 -9.564697 282.164185 -73.193542 253.114929 -9.459229 252.728699 -8.611755 281.548096 54.618347 252.776794 117.742981 281.440491 180.631409 252.612061 243.881287 281.61322 307.510132 281.661316 307.615601 252.976074 370.551331 252.660156 371.244446 281.031982 433.492615 252.728699 495.590332 281.548157 558.820496 252.776794 621.945129 281.445923 684.845398 253.239258 747.845093 223.862976 685.171204 252.680603 621.945129 223.861145 558.714966 252.632507 495.590332 224.260681 433.342285 252.563965 371.244446 223.514771 307.510132 252.515869 243.881287 223.852234 180.992798 252.680603 117.742981 223.861206 54.512878 252.632507 -8.611755 252.246277 -9.459229 223.197021 -73.193542 194.195923 -9.564697 193.761597 -8.611755 222.580933 54.618347 193.809692 117.742981 222.473328 180.63147 193.644958 243.881287 222.694214 307.615601 193.693054 371.244446 222.06488 433.492554 193.761597 495.590332 222.580994 558.820496 193.809692 621.945129 222.482239 684.853088 194.345642 748.415588 164.988342 685.179382 193.809692 621.945129 164.990234 558.714966 193.761597 495.590332 165.389771 433.342285 193.693054 371.244446 164.64386 307.51001 193.644958 243.881287 164.981262 180.992859 193.809692 117.742981 164.990295 54.512878 193.761597 -8.611755 193.375366 -9.459229 164.326111 -73.193542 135.325012 -9.564697 134.890686 -8.611755 163.710022 54.618347 134.938782 117.742981 163.602417 180.631409 134.774048 243.881287 163.823242 307.615723 134.822144 371.244446 163.19397 433.492554 134.890686 495.590332 163.710083 558.820496 134.938782 621.945129 163.608154 684.84613 135.326294 748.08252 106.117554 685.179199 134.938782 621.945129 106.119324 558.714966 134.890686 495.590332 106.51886 433.342224 134.822144 371.244446 105.772888 307.510132 134.774048 243.881287 106.110352 180.992859 134.938782 117.742981 106.119385 54.512878 134.890686 -8.611755 134.504456 -9.459229 105.4552 -73.193542 76.454102 -9.564697 76.019775 -8.611755 104.839111 54.618347 76.067871 117.742981 104.731506 180.631409 75.903137 243.881287 104.952332 307.615601 75.951233 371.244446 104.322998 433.492615 76.019775 495.590332 104.839172 558.820496 76.067871 621.945129 104.737305 684.846313 76.369751 748.288147 47.244263 685.184326 76.067871 621.945129 47.248413 558.714966 76.019775 495.590332 47.647949 433.342224 75.951233 371.244446 46.901978 307.510132 75.903137 243.881287 47.239441 180.992859 76.067871 117.742981 47.248474 54.512878 76.019775 -8.611755 75.633545 -9.459229 46.58429 -73.193542 17.583191 -9.564697 17.148865 -8.611755 45.968201 54.618347 17.19696 117.742981 45.860596 180.631409 17.032227 243.881287 46.081421 307.615601 17.080322 371.244446 45.452087 433.492615 17.148865 495.590332 45.968262 558.820496 17.19696 621.945129 45.864502 684.842041 17.290588 748.341858 46.333069 811.265625 17.080322 875.446594 45.576477 937.967651 17.080322 1000.488708 45.806335 1063.513916 17.080322 1126.539307 17.333191 1127.093994 46.515747 1191.121094 75.605774 1127.297119 75.951233 1126.539307 47.225159 1063.513916 75.951233 1000.488708 47.455017 937.967651 75.951233 875.446594 47.592163 813.22644 76.513794 748.953735 105.324829 811.000427 75.951233 875.446594 104.447388 937.967651 75.951233 1000.488708 104.677246 1063.513916 75.951233 1126.539307 76.204102 1127.093994 105.386658 1191.121094 134.476685 1127.297119 134.822144 1126.539307 106.096069 1063.513916 134.822144 1000.488708 106.325928 937.967651 134.822144 875.446594 106.804199 813.974915 135.634827 749.497559 164.19165 811.009583 134.822144 875.446594 163.318359 937.967651 134.822144 1000.488708 163.548218 1063.513916 134.822144 1126.539307 135.075012 1127.093994 164.257629 1191.121094 193.347595 1127.297119 193.693054 1126.539307 164.967041 1063.513916 193.693054 1000.488708 165.196899 937.967651 193.693054 875.446594 165.663391 813.949097 194.552795 749.354309 214.131592 791.125366 223.254395 810.588745 225.239807 814.824646 253.8172 750.266357 281.96051 810.950256 282.009033 811.054871 252.976074 874.753479 252.660156 875.446594 281.156372 937.967651 252.660156 1000.488708 281.38623 1063.513916 252.660156 1126.539307 252.864929 1126.988525 282.095642 1191.121094 311.137573 1127.402588 311.531067 1126.539307 282.805054 1063.513916 311.531067 1000.488708 283.034912 937.967651 311.531067 875.446594 283.442749 813.820435 312.270325 749.434265 340.777405 811.068726 340.825867 811.173523 311.846985 874.753418 311.531067 875.446594 340.027283 937.967651 311.531067 1000.488708 340.257141 1063.513916 311.531067 1126.539307 311.73584 1126.988525 340.966553 1191.121094 370.05658 1127.297119 370.401978 1126.539307 341.675964 1063.513916 370.401978 1000.488708 341.905823 937.967651 370.401978 875.446594 342.160767 813.484985 371.063293 749.114136 399.816956 810.90979 370.401978 875.446594 398.898193 937.967651 370.401978 1000.488708 399.128052 1063.513916 370.401978 1126.539307 370.654846 1127.093994 399.837463 1191.121094 428.92749 1127.297119 429.272949 1126.539307 400.546875 1063.513916 429.272949 1000.488708 400.776733 937.967651 429.272949 875.446594 401.373108 814.23407 430.184692 749.657837 458.683777 810.918823 429.272949 875.446594 457.769104 937.967651 429.272949 1000.488708 457.998962 1063.513916 429.272949 1126.539307 429.525818 1127.093994 458.708374 1191.121094 487.798401 1127.297119 488.14386 1126.539307 459.417786 1063.513916 488.14386 1000.488708 459.647644 937.967651 488.14386 875.446594 460.232239 814.208252 489.002014 749.739868 517.40094 811.256165 488.14386 875.446594 516.640015 937.967651 488.14386 1000.488708 516.869873 1063.513916 488.14386 1126.539307 488.396729 1127.093994 517.579285 1191.121094 546.669312 1127.297119 547.014771 1126.539307 518.288696 1063.513916 547.014771 1000.488708 518.518555 937.967651 547.014771 875.446594 518.667786 813.252991 547.479858 749.209412 576.015869 811.817749 547.014771 875.446594 575.510925 937.967651 547.014771 1000.488708 575.740784 1063.513916 547.014771 1126.539307 547.267639 1127.093994 576.450195 1191.121094 605.540222 1127.297119 605.885681 1126.539307 577.159607 1063.513916"/>
      <polygon class="cls-3" points="636.030579 1063.513916 664.756592 1000.488708 636.260437 937.967651 664.756592 875.446594 635.707397 811.71228 664.708496 748.083435 636.044861 685.194885 664.87323 621.945129 636.053772 558.714966 664.825134 495.590332 636.453308 433.342285 664.756592 371.244446 635.707397 307.510132 664.708496 243.881287 636.044861 180.992798 664.87323 117.742981 636.053833 54.512878 664.825134 -8.611755 664.438904 -9.459229 635.389648 -73.193542 606.38855 -9.564697 605.954224 -8.611755 634.77356 54.618347 606.002319 117.742981 634.665955 180.63147 605.837585 243.881287 634.886841 307.615601 605.885681 371.244446 634.257507 433.492554 605.954224 495.590332 634.773621 558.820496 606.002319 621.945129 634.665955 684.833618 605.837585 748.083435 634.886841 811.817749 605.885681 875.446594 634.381897 937.967651 605.885681 1000.488708 634.611755 1063.513916 605.885681 1126.539307 606.13855 1127.093994 635.321167 1191.121094 664.411133 1127.297119 664.756592 1126.539307 636.030579 1063.513916"/>
      <polygon class="cls-3" points="753.7724 1063.513916 782.498413 1000.488708 754.002258 937.967651 782.498413 875.446594 753.449219 811.71228 782.450317 748.083435 753.786682 685.194946 782.615051 621.945129 753.795654 558.714966 782.566956 495.590332 754.19519 433.342224 782.498413 371.244446 753.449219 307.510132 782.450317 243.881287 753.786682 180.992859 782.615051 117.742981 753.795715 54.512878 782.566956 -8.611755 782.180725 -9.459229 753.131531 -73.193542 724.130371 -9.564697 723.696045 -8.611755 752.515442 54.618347 723.744141 117.742981 752.407837 180.631409 723.579407 243.881287 752.628662 307.615601 723.627502 371.244446 751.999329 433.492615 723.696045 495.590332 752.515503 558.820496 723.744141 621.945129 752.407837 684.833557 723.579407 748.083435 752.628662 811.817749 723.627502 875.446594 752.123718 937.967651 723.627502 1000.488708 752.353577 1063.513916 723.627502 1126.539307 723.880371 1127.093994 753.062988 1191.121094 782.153015 1127.297119 782.498413 1126.539307 753.7724 1063.513916"/>
      <polygon class="cls-3" points="694.901489 1063.513916 723.627502 1000.488708 695.131348 937.967651 723.627502 875.446594 694.578308 811.71228 723.579407 748.083435 694.915771 685.194885 723.744141 621.945129 694.924683 558.714966 723.696045 495.590332 695.324219 433.342285 723.627502 371.244446 694.578308 307.510132 723.579407 243.881287 694.915771 180.992798 723.744141 117.742981 694.924744 54.512878 723.696045 -8.611755 723.309814 -9.459229 694.260559 -73.193542 665.25946 -9.564697 664.825134 -8.611755 693.64447 54.618347 664.87323 117.742981 693.536865 180.63147 664.708496 243.881287 693.757751 307.615601 664.756592 371.244446 693.128418 433.492554 664.825134 495.590332 693.644531 558.820496 664.87323 621.945129 693.536865 684.833618 664.708496 748.083435 693.757751 811.817749 664.756592 875.446594 693.252808 937.967651 664.756592 1000.488708 693.482666 1063.513916 664.756592 1126.539307 665.00946 1127.093994 694.192078 1191.121094 723.282043 1127.297119 723.627502 1126.539307 694.901489 1063.513916"/>
      <polygon class="cls-3" points="812.643311 1063.513916 841.369324 1000.488708 812.873169 937.967651 841.369324 875.446594 812.320129 811.71228 841.321228 748.083435 812.657593 685.194946 841.485962 621.945129 812.666565 558.714966 841.437866 495.590332 813.066101 433.342224 841.369324 371.244446 812.320129 307.510132 841.321228 243.881287 812.657593 180.992859 841.485962 117.742981 812.666626 54.512878 841.437866 -8.611755 841.051636 -9.459229 812.002441 -73.193542 783.001282 -9.564697 782.566956 -8.611755 811.386353 54.618347 782.615051 117.742981 811.278748 180.631409 782.450317 243.881287 811.499573 307.615601 782.498413 371.244446 810.870239 433.492615 782.566956 495.590332 811.386414 558.820496 782.615051 621.945129 811.278748 684.833557 782.450317 748.083435 811.499573 811.817749 782.498413 875.446594 810.994629 937.967651 782.498413 1000.488708 811.224487 1063.513916 782.498413 1126.539307 782.751282 1127.093994 811.933899 1191.121094 841.023926 1127.297119 841.369324 1126.539307 812.643311 1063.513916"/>
      <polygon class="cls-3" points="871.514221 1063.513916 900.240295 1000.488708 871.74408 937.967651 900.240295 875.446594 871.19104 811.71228 900.1922 748.083435 871.528503 685.194946 900.356873 621.945129 871.537476 558.714966 900.308777 495.590332 871.937012 433.342224 900.240295 371.244446 871.19104 307.510132 900.1922 243.881287 871.528503 180.992859 900.356873 117.742981 871.537537 54.512878 900.308777 -8.611755 899.922546 -9.459229 870.873352 -73.193542 841.872192 -9.564697 841.437866 -8.611755 870.257263 54.618347 841.485962 117.742981 870.149658 180.631409 841.321228 243.881287 870.370483 307.615601 841.369324 371.244446 869.74115 433.492615 841.437866 495.590332 870.257324 558.820496 841.485962 621.945129 870.149658 684.833557 841.321228 748.083435 870.370483 811.817749 841.369324 875.446594 869.86554 937.967651 841.369324 1000.488708 870.095398 1063.513916 841.369324 1126.539307 841.622192 1127.093994 870.80481 1191.121094 899.894836 1127.297119 900.240295 1126.539307 871.514221 1063.513916"/>
      <polygon class="cls-3" points="989.352234 1063.513916 1018.078308 1000.488708 989.230408 937.196106 1017.830688 874.446777 989.133118 811.483948 1018.030212 748.083435 989.366516 685.194946 1018.194946 621.945129 989.375488 558.714966 1018.146851 495.590332 989.775024 433.342224 1018.078308 371.244446 989.029053 307.510132 1018.030212 243.881287 989.366516 180.992859 1018.194946 117.742981 989.375549 54.512878 1018.146851 -8.611755 1017.712524 -9.564697 988.711365 -73.193542 959.66217 -9.459106 959.27594 -8.611755 988.095276 54.618347 959.324036 117.742981 987.987671 180.631409 959.159302 243.881287 988.1604 307.510132 988.208496 307.615601 959.523315 370.551331 959.207397 371.244446 987.579163 433.492615 959.27594 495.590332 988.095337 558.820496 959.324036 621.945129 987.987671 684.833557 959.159302 748.083435 987.621338 810.529541 958.572083 874.263794 930.061951 811.71228 959.06311 748.083435 930.399414 685.194946 959.227783 621.945129 930.408386 558.714966 959.179688 495.590332 930.807922 433.342224 959.111206 371.244446 930.061951 307.510132 959.06311 243.881287 930.399414 180.992859 959.227783 117.742981 930.408447 54.512878 959.179688 -8.611755 958.793457 -9.459229 929.744263 -73.193542 900.743103 -9.564697 900.308777 -8.611755 929.128174 54.618347 900.356873 117.742981 929.020569 180.631409 900.1922 243.881287 929.241394 307.615601 900.240295 371.244446 928.612061 433.492615 900.308777 495.590332 929.128235 558.820496 900.356873 621.945129 929.020569 684.833557 900.1922 748.083435 929.241394 811.817749 900.240295 875.446594 928.73645 937.967651 900.240295 1000.488708 928.966309 1063.513916 900.240295 1126.539307 900.493164 1127.093994 929.67572 1191.121094 958.765747 1127.297119 959.111206 1126.539307 930.385132 1063.513916 959.111206 1000.488708 930.61499 937.967651 959.027832 875.629578 987.572144 938.256042 959.207397 1000.488708 987.933411 1063.513916 959.207397 1126.539307 959.41217 1126.988525 988.642822 1191.121094 1017.684753 1127.402588 1018.078308 1126.539307 989.352234 1063.513916"/>
      <polygon class="cls-3" points="1107.094116 1063.513916 1135.820068 1000.488708 1107.323975 937.967651 1135.820068 875.446594 1106.770996 811.71228 1135.771973 748.083435 1107.108398 685.194885 1135.936768 621.945129 1107.11731 558.714966 1135.888672 495.590332 1107.516846 433.342285 1135.820068 371.244446 1106.770996 307.510132 1135.771973 243.881287 1107.108398 180.992798 1135.936768 117.742981 1107.117432 54.512878 1135.888672 -8.611755 1135.502441 -9.459229 1106.453125 -73.193542 1077.452148 -9.564697 1077.017822 -8.611755 1105.837158 54.618347 1077.065918 117.742981 1105.729492 180.63147 1076.901123 243.881287 1105.950439 307.615601 1076.949219 371.244446 1105.321045 433.492554 1077.017822 495.590332 1105.837158 558.820496 1077.065918 621.945129 1105.729492 684.833618 1076.901123 748.083435 1105.950439 811.817749 1076.949219 875.446594 1105.445435 937.967651 1076.949219 1000.488708 1105.675293 1063.513916 1076.949219 1126.539307 1077.202148 1127.093994 1106.384766 1191.121094 1135.474609 1127.297119 1135.820068 1126.539307 1107.094116 1063.513916"/>
      <polygon class="cls-3" points="1048.223145 1063.513916 1076.949219 1000.488708 1048.453003 937.967651 1076.949219 875.446594 1047.899902 811.71228 1076.901123 748.083435 1048.237427 685.194946 1077.065918 621.945129 1048.246338 558.714966 1077.017822 495.590332 1048.645996 433.342224 1076.949219 371.244446 1047.899902 307.510132 1076.901123 243.881287 1048.237427 180.992859 1077.065918 117.742981 1048.24646 54.512878 1077.017822 -8.611755 1076.631592 -9.459229 1047.582275 -73.193542 1018.533081 -9.459229 1018.146851 -8.611755 1046.966187 54.618347 1018.194946 117.742981 1046.858643 180.631409 1018.030212 243.881287 1047.03125 307.510132 1047.079346 307.615601 1018.394226 370.551331 1018.078308 371.244446 1046.450073 433.492615 1018.146851 495.590332 1046.966309 558.820496 1018.194946 621.945129 1046.858643 684.833557 1018.030212 748.083435 1047.03125 811.71228 1047.079346 811.817749 1018.394226 874.753479 1018.078308 875.446594 1046.574463 937.967651 1018.078308 1000.488708 1046.804321 1063.513916 1018.078308 1126.539307 1018.283081 1126.988525 1047.513672 1191.121094 1076.60376 1127.297119 1076.949219 1126.539307 1048.223145 1063.513916"/>
      <polygon class="cls-3" points="1165.965088 1063.513916 1194.69104 1000.488708 1166.194824 937.967651 1194.69104 875.446594 1165.641846 811.71228 1194.642944 748.083435 1165.979248 685.194885 1194.807617 621.945129 1165.988281 558.714966 1194.759521 495.590332 1166.387695 433.342285 1194.69104 371.244446 1165.641846 307.510132 1194.642944 243.881287 1165.979248 180.992798 1194.807617 117.742981 1165.988281 54.512878 1194.759521 -8.611755 1194.373291 -9.459229 1165.324097 -73.193542 1136.322998 -9.564697 1135.888672 -8.611755 1164.708008 54.618347 1135.936768 117.742981 1164.600342 180.63147 1135.771973 243.881287 1164.821289 307.615601 1135.820068 371.244446 1164.191895 433.492554 1135.888672 495.590332 1164.708008 558.820496 1135.936768 621.945129 1164.600342 684.833618 1135.771973 748.083435 1164.821289 811.817749 1135.820068 875.446594 1164.316406 937.967651 1135.820068 1000.488708 1164.546143 1063.513916 1135.820068 1126.539307 1136.072998 1127.093994 1165.255615 1191.121094 1194.345581 1127.297119 1194.69104 1126.539307 1165.965088 1063.513916"/>
      <polygon class="cls-3" points="1283.706787 1063.513916 1312.432861 1000.488708 1283.936768 937.967651 1312.432861 875.446594 1283.383667 811.71228 1312.384766 748.083435 1283.721191 685.194946 1312.549561 621.945129 1283.730103 558.714966 1312.501465 495.590332 1284.129639 433.342224 1312.432861 371.244446 1283.383667 307.510132 1312.384766 243.881287 1283.721191 180.992859 1312.549561 117.742981 1283.730225 54.512878 1312.501465 -8.611755 1312.115234 -9.459229 1283.065918 -73.193542 1254.064819 -9.564697 1253.630493 -8.611755 1282.449951 54.618347 1253.678589 117.742981 1282.342285 180.631409 1253.513916 243.881287 1282.56311 307.615601 1253.562012 371.244446 1281.933838 433.492615 1253.630493 495.590332 1282.449951 558.820496 1253.678589 621.945129 1282.342285 684.833557 1253.513916 748.083435 1282.56311 811.817749 1253.562012 875.446594 1282.058105 937.967651 1253.562012 1000.488708 1282.288086 1063.513916 1253.562012 1126.539307 1253.814819 1127.093994 1282.997437 1191.121094 1312.087402 1127.297119 1312.432861 1126.539307 1283.706787 1063.513916"/>
      <polygon class="cls-3" points="1224.835938 1063.513916 1253.562012 1000.488708 1225.065796 937.967651 1253.562012 875.446594 1224.512695 811.71228 1253.513916 748.083435 1224.85022 685.194946 1253.678589 621.945129 1224.859131 558.714966 1253.630493 495.590332 1225.258789 433.342224 1253.562012 371.244446 1224.512695 307.510132 1253.513916 243.881287 1224.85022 180.992859 1253.678589 117.742981 1224.859253 54.512878 1253.630493 -8.611755 1253.244263 -9.459229 1224.195068 -73.193542 1195.193848 -9.564697 1194.759521 -8.611755 1223.578979 54.618347 1194.807617 117.742981 1223.471436 180.631409 1194.642944 243.881287 1223.692139 307.615601 1194.69104 371.244446 1223.062866 433.492615 1194.759521 495.590332 1223.579102 558.820496 1194.807617 621.945129 1223.471436 684.833557 1194.642944 748.083435 1223.692139 811.817749 1194.69104 875.446594 1223.187256 937.967651 1194.69104 1000.488708 1223.417114 1063.513916 1194.69104 1126.539307 1194.943848 1127.093994 1224.126465 1191.121094 1253.216553 1127.297119 1253.562012 1126.539307 1224.835938 1063.513916"/>
      <polygon class="cls-3" points="1342.577759 1063.513916 1371.303833 1000.488708 1342.807617 937.967651 1371.303833 875.446594 1342.254639 811.71228 1371.255737 748.083435 1342.592041 685.194946 1371.42041 621.945129 1342.601074 558.714966 1371.372314 495.590332 1343.000488 433.342224 1371.303833 371.244446 1342.254639 307.510132 1371.255737 243.881287 1342.592041 180.992859 1371.42041 117.742981 1342.601074 54.512878 1371.372314 -8.611755 1370.986084 -9.459229 1341.93689 -73.193542 1312.935791 -9.564697 1312.501465 -8.611755 1341.320801 54.618347 1312.549561 117.742981 1341.213135 180.631409 1312.384766 243.881287 1341.434082 307.615601 1312.432861 371.244446 1340.804688 433.492615 1312.501465 495.590332 1341.320801 558.820496 1312.549561 621.945129 1341.213135 684.833557 1312.384766 748.083435 1341.434082 811.817749 1312.432861 875.446594 1340.929077 937.967651 1312.432861 1000.488708 1341.158936 1063.513916 1312.432861 1126.539307 1312.685791 1127.093994 1341.868408 1191.121094 1370.958374 1127.297119 1371.303833 1126.539307 1342.577759 1063.513916"/>
      <polygon class="cls-3" points="1460.31958 1063.513916 1489.045654 1000.488708 1460.549438 937.967651 1489.045654 875.446594 1459.996338 811.71228 1488.997559 748.083435 1460.333862 685.194946 1489.162354 621.945129 1460.342773 558.714966 1489.114258 495.590332 1460.742432 433.342224 1489.045654 371.244446 1459.996338 307.510132 1488.997559 243.881287 1460.333862 180.992859 1489.162354 117.742981 1460.342896 54.512878 1489.114258 -8.611755 1488.728027 -9.459229 1459.678711 -73.193542 1430.67749 -9.564697 1430.243164 -8.611755 1459.062622 54.618347 1430.29126 117.742981 1458.955078 180.631409 1430.126709 243.881287 1459.175781 307.615601 1430.174805 371.244446 1458.546509 433.492615 1430.243164 495.590332 1459.062744 558.820496 1430.29126 621.945129 1458.955078 684.833557 1430.126709 748.083435 1459.175781 811.817749 1430.174805 875.446594 1458.670898 937.967651 1430.174805 1000.488708 1458.900757 1063.513916 1430.174805 1126.539307 1430.427612 1127.093994 1459.610107 1191.121094 1488.700195 1127.297119 1489.045654 1126.539307 1460.31958 1063.513916"/>
      <polygon class="cls-3" points="1401.44873 1063.513916 1430.174805 1000.488708 1401.678467 937.967651 1430.174805 875.446594 1401.125488 811.71228 1430.126709 748.083435 1401.462891 685.194946 1430.29126 621.945129 1401.471924 558.714966 1430.243164 495.590332 1401.87146 433.342224 1430.174805 371.244446 1401.125488 307.510132 1430.126709 243.881287 1401.462891 180.992859 1430.29126 117.742981 1401.471924 54.512878 1430.243164 -8.611755 1429.856934 -9.459229 1400.807861 -73.193542 1371.806641 -9.564697 1371.372314 -8.611755 1400.19165 54.618347 1371.42041 117.742981 1400.084106 180.631409 1371.255737 243.881287 1400.304932 307.615601 1371.303833 371.244446 1399.675537 433.492615 1371.372314 495.590332 1400.191772 558.820496 1371.42041 621.945129 1400.084106 684.833557 1371.255737 748.083435 1400.304932 811.817749 1371.303833 875.446594 1399.800049 937.967651 1371.303833 1000.488708 1400.029785 1063.513916 1371.303833 1126.539307 1371.556641 1127.093994 1400.739258 1191.121094 1429.829346 1127.297119 1430.174805 1126.539307 1401.44873 1063.513916"/>
      <polygon class="cls-3" points="1519.19043 1063.513916 1547.916504 1000.488708 1519.42041 937.967651 1547.916504 875.446594 1518.86731 811.71228 1547.868408 748.083435 1519.204834 685.194946 1548.033203 621.945129 1519.213745 558.714966 1547.985107 495.590332 1519.613281 433.342224 1547.916504 371.244446 1518.86731 307.510132 1547.868408 243.881287 1519.204834 180.992859 1548.033203 117.742981 1519.213867 54.512878 1547.985107 -8.611755 1547.598877 -9.459229 1518.549561 -73.193542 1489.548584 -9.564697 1489.114258 -8.611755 1517.933594 54.618347 1489.162354 117.742981 1517.825928 180.631409 1488.997559 243.881287 1518.046753 307.615601 1489.045654 371.244446 1517.41748 433.492615 1489.114258 495.590332 1517.933594 558.820496 1489.162354 621.945129 1517.825928 684.833557 1488.997559 748.083435 1518.046753 811.817749 1489.045654 875.446594 1517.541748 937.967651 1489.045654 1000.488708 1517.771729 1063.513916 1489.045654 1126.539307 1489.298584 1127.093994 1518.481079 1191.121094 1547.571045 1127.297119 1547.916504 1126.539307 1519.19043 1063.513916"/>
      <polygon class="cls-3" points="1636.932373 1063.513916 1665.658447 1000.488708 1637.162231 937.967651 1665.658447 875.446594 1636.609131 811.71228 1665.610352 748.083435 1636.946655 685.194885 1665.775024 621.945129 1636.955566 558.714966 1665.726929 495.590332 1637.355103 433.342285 1665.658447 371.244446 1636.609131 307.510132 1665.610352 243.881287 1636.946655 180.992798 1665.775024 117.742981 1636.955566 54.512878 1665.726929 -8.611755 1665.340698 -9.459229 1636.291504 -73.193542 1607.290283 -9.564697 1606.855957 -8.611755 1635.675293 54.618347 1606.904053 117.742981 1635.567749 180.63147 1606.73938 243.881287 1635.788574 307.615601 1606.787476 371.244446 1635.159302 433.492554 1606.855957 495.590332 1635.675415 558.820496 1606.904053 621.945129 1635.567749 684.833618 1606.73938 748.083435 1635.788574 811.817749 1606.787476 875.446594 1635.283691 937.967651 1606.787476 1000.488708 1635.51355 1063.513916 1606.787476 1126.539307 1607.040283 1127.093994 1636.2229 1191.121094 1665.312988 1127.297119 1665.658447 1126.539307 1636.932373 1063.513916"/>
      <polygon class="cls-3" points="1578.061401 1063.513916 1606.787476 1000.488708 1578.29126 937.967651 1606.787476 875.446594 1577.738281 811.71228 1606.73938 748.083435 1578.075684 685.194946 1606.904053 621.945129 1578.084717 558.714966 1606.855957 495.590332 1578.484131 433.342224 1606.787476 371.244446 1577.738281 307.510132 1606.73938 243.881287 1578.075684 180.992859 1606.904053 117.742981 1578.084717 54.512878 1606.855957 -8.611755 1606.469727 -9.459229 1577.420532 -73.193542 1548.419434 -9.564697 1547.985107 -8.611755 1576.804443 54.618347 1548.033203 117.742981 1576.696777 180.631409 1547.868408 243.881287 1576.917725 307.615601 1547.916504 371.244446 1576.28833 433.492615 1547.985107 495.590332 1576.804443 558.820496 1548.033203 621.945129 1576.696777 684.833557 1547.868408 748.083435 1576.917725 811.817749 1547.916504 875.446594 1576.41272 937.967651 1547.916504 1000.488708 1576.642578 1063.513916 1547.916504 1126.539307 1548.169434 1127.093994 1577.352051 1191.121094 1606.442017 1127.297119 1606.787476 1126.539307 1578.061401 1063.513916"/>
      <polygon class="cls-3" points="1695.899414 1063.513916 1724.625488 1000.488708 1696.129395 937.967651 1724.625488 875.446594 1695.576294 811.71228 1724.577393 748.083435 1695.913818 685.194946 1724.742188 621.945129 1695.922729 558.714966 1724.694092 495.590332 1696.322266 433.342224 1724.625488 371.244446 1695.576294 307.510132 1724.577393 243.881287 1695.913818 180.992859 1724.742188 117.742981 1695.922852 54.512878 1724.694092 -8.611755 1724.259766 -9.564697 1695.258545 -73.193542 1666.209351 -9.459229 1665.82312 -8.611755 1694.642578 54.618347 1665.871216 117.742981 1694.534912 180.631409 1665.706543 243.881287 1694.707642 307.510132 1694.755737 307.615601 1666.070557 370.551331 1665.754639 371.244446 1694.126465 433.492615 1665.82312 495.590332 1694.642578 558.820496 1665.871216 621.945129 1694.534912 684.833557 1665.706543 748.083435 1694.707642 811.71228 1694.755737 811.817749 1666.070557 874.753479 1665.754639 875.446594 1694.250732 937.967651 1665.754639 1000.488708 1694.480713 1063.513916 1665.754639 1126.539307 1665.959351 1126.988525 1695.190063 1191.121094 1724.231934 1127.402588 1724.625488 1126.539307 1695.899414 1063.513916"/>
      <polygon class="cls-3" points="1813.641357 1063.513916 1842.367432 1000.488708 1813.871094 937.967651 1842.367432 875.446594 1813.318115 811.71228 1842.319336 748.083435 1813.655518 685.194946 1842.483887 621.945129 1813.664551 558.714966 1842.435791 495.590332 1814.064087 433.342224 1842.367432 371.244446 1813.318115 307.510132 1842.319336 243.881287 1813.655518 180.992859 1842.483887 117.742981 1813.664551 54.512878 1842.435791 -8.611755 1842.049561 -9.459229 1813.000488 -73.193542 1783.999268 -9.564697 1783.564941 -8.611755 1812.384277 54.618347 1783.613037 117.742981 1812.276733 180.631409 1783.448242 243.881287 1812.497559 307.615601 1783.496338 371.244446 1811.868164 433.492615 1783.564941 495.590332 1812.384399 558.820496 1783.613037 621.945129 1812.276733 684.833557 1783.448242 748.083435 1812.497559 811.817749 1783.496338 875.446594 1811.992676 937.967651 1783.496338 1000.488708 1812.222412 1063.513916 1783.496338 1126.539307 1783.749268 1127.093994 1812.931885 1191.121094 1842.021973 1127.297119 1842.367432 1126.539307 1813.641357 1063.513916"/>
      <polygon class="cls-3" points="1754.770386 1063.513916 1783.496338 1000.488708 1755.000244 937.967651 1783.496338 875.446594 1754.447266 811.71228 1783.448242 748.083435 1754.784668 685.194946 1783.613037 621.945129 1754.793701 558.714966 1783.564941 495.590332 1755.193115 433.342224 1783.496338 371.244446 1754.447266 307.510132 1783.448242 243.881287 1754.784668 180.992859 1783.613037 117.742981 1754.793701 54.512878 1783.564941 -8.611755 1783.178711 -9.459229 1754.129517 -73.193542 1725.080322 -9.459229 1724.694092 -8.611755 1753.513428 54.618347 1724.742188 117.742981 1753.405762 180.631409 1724.577393 243.881287 1753.578613 307.510132 1753.626709 307.615601 1724.941406 370.551331 1724.625488 371.244446 1752.997314 433.492615 1724.694092 495.590332 1753.513428 558.820496 1724.742188 621.945129 1753.405762 684.833557 1724.577393 748.083435 1753.578613 811.71228 1753.626709 811.817749 1724.941406 874.753479 1724.625488 875.446594 1753.121704 937.967651 1724.625488 1000.488708 1753.351562 1063.513916 1724.625488 1126.539307 1724.830322 1126.988525 1754.061035 1191.121094 1783.151001 1127.297119 1783.496338 1126.539307 1754.770386 1063.513916"/>
      <polygon class="cls-3" points="1872.512207 1063.513916 1901.238281 1000.488708 1872.742065 937.967651 1901.238281 875.446594 1872.188965 811.71228 1901.190186 748.083435 1872.526489 685.194946 1901.354858 621.945129 1872.5354 558.714966 1901.306763 495.590332 1872.935059 433.342224 1901.238281 371.244446 1872.188965 307.510132 1901.190186 243.881287 1872.526489 180.992859 1901.354858 117.742981 1872.535522 54.512878 1901.306763 -8.611755 1900.920532 -9.459229 1871.871338 -73.193542 1842.870117 -9.564697 1842.435791 -8.611755 1871.255249 54.618347 1842.483887 117.742981 1871.147705 180.631409 1842.319336 243.881287 1871.368408 307.615601 1842.367432 371.244446 1870.739136 433.492615 1842.435791 495.590332 1871.255371 558.820496 1842.483887 621.945129 1871.147705 684.833557 1842.319336 748.083435 1871.368408 811.817749 1842.367432 875.446594 1870.863525 937.967651 1842.367432 1000.488708 1871.093384 1063.513916 1842.367432 1126.539307 1842.620239 1127.093994 1871.802734 1191.121094 1900.892822 1127.297119 1901.238281 1126.539307 1872.512207 1063.513916"/>
    </g>
  </g>
</svg>