<?xml version="1.0" encoding="UTF-8"?>
<svg xmlns="http://www.w3.org/2000/svg" viewBox="0 0 1920 1080">
  <defs>
    <style>
      .cls-1 {
        fill: #a7dff4;
      }

      .cls-1, .cls-2 {
        stroke-width: 0px;
      }

      .cls-2 {
        fill: #fff;
      }
    </style>
  </defs>
  <g id="Layer_1" data-name="Layer 1">
    <rect class="cls-2" width="1920" height="1080"/>
  </g>
  <g id="TRYINGBODYAGAIN">
    <polygon class="cls-1" points="1894.414883 -1 1864.979424 63.581783 1894.414883 128.163566 1923.850342 63.581783 1894.414883 -1"/>
    <polygon class="cls-1" points="1776.673047 -1 1747.237588 63.581783 1776.673047 128.163566 1806.108506 63.581783 1776.673047 -1"/>
    <polygon class="cls-1" points="1658.931211 -1 1629.495752 63.581783 1658.931211 128.163566 1688.36667 63.581783 1658.931211 -1"/>
    <polygon class="cls-1" points="1541.189375 -1 1511.753916 63.581783 1541.189375 128.163566 1570.624834 63.581783 1541.189375 -1"/>
    <polygon class="cls-1" points="1423.447539 -1 1394.01208 63.581783 1423.447539 128.163566 1452.882998 63.581783 1423.447539 -1"/>
    <polygon class="cls-1" points="1305.705703 -1 1276.270245 63.581783 1305.705703 128.163566 1335.141162 63.581783 1305.705703 -1"/>
    <polygon class="cls-1" points="1187.963868 -1 1158.528409 63.581783 1187.963868 128.163566 1217.399327 63.581783 1187.963868 -1"/>
    <polygon class="cls-1" points="1070.222032 -1 1040.786573 63.581783 1070.222032 128.163566 1099.657491 63.581783 1070.222032 -1"/>
    <polygon class="cls-1" points="952.480196 -1 923.044737 63.581783 952.480196 128.163566 981.915655 63.581783 952.480196 -1"/>
    <polygon class="cls-1" points="834.73836 -1 805.302901 63.581783 834.73836 128.163566 864.173819 63.581783 834.73836 -1"/>
    <polygon class="cls-1" points="716.996524 -1 687.561065 63.581783 716.996524 128.163566 746.431983 63.581783 716.996524 -1"/>
    <polygon class="cls-1" points="599.254688 -1 569.819229 63.581783 599.254688 128.163566 628.690147 63.581783 599.254688 -1"/>
    <polygon class="cls-1" points="481.512852 -1 452.077393 63.581783 481.512852 128.163566 510.948311 63.581783 481.512852 -1"/>
    <polygon class="cls-1" points="363.771016 -1 334.335557 63.581783 363.771016 128.163566 393.206475 63.581783 363.771016 -1"/>
    <polygon class="cls-1" points="246.02918 -1 216.593722 63.581783 246.02918 128.163566 275.464639 63.581783 246.02918 -1"/>
    <polygon class="cls-1" points="128.287345 -1 98.851886 63.581783 128.287345 128.163566 157.722804 63.581783 128.287345 -1"/>
    <polygon class="cls-1" points="10.545509 -1 -18.88995 63.581783 10.545509 128.163566 39.980968 63.581783 10.545509 -1"/>
    <polygon class="cls-1" points="1835.543965 -1 1806.108506 63.581783 1835.543965 128.163566 1864.979424 63.581783 1835.543965 -1"/>
    <polygon class="cls-1" points="1717.802129 -1 1688.36667 63.581783 1717.802129 128.163566 1747.237588 63.581783 1717.802129 -1"/>
    <polygon class="cls-1" points="1600.060293 -1 1570.624834 63.581783 1600.060293 128.163566 1629.495752 63.581783 1600.060293 -1"/>
    <polygon class="cls-1" points="1482.318457 -1 1452.882998 63.581783 1482.318457 128.163566 1511.753916 63.581783 1482.318457 -1"/>
    <polygon class="cls-1" points="1364.576621 -1 1335.141162 63.581783 1364.576621 128.163566 1394.01208 63.581783 1364.576621 -1"/>
    <polygon class="cls-1" points="1246.834786 -1 1217.399327 63.581783 1246.834786 128.163566 1276.270245 63.581783 1246.834786 -1"/>
    <polygon class="cls-1" points="1129.09295 -1 1099.657491 63.581783 1129.09295 128.163566 1158.528409 63.581783 1129.09295 -1"/>
    <polygon class="cls-1" points="1011.351114 -1 981.915655 63.581783 1011.351114 128.163566 1040.786573 63.581783 1011.351114 -1"/>
    <polygon class="cls-1" points="893.609278 -1 864.173819 63.581783 893.609278 128.163566 923.044737 63.581783 893.609278 -1"/>
    <polygon class="cls-1" points="775.867442 -1 746.431983 63.581783 775.867442 128.163566 805.302901 63.581783 775.867442 -1"/>
    <polygon class="cls-1" points="658.125606 -1 628.690147 63.581783 658.125606 128.163566 687.561065 63.581783 658.125606 -1"/>
    <polygon class="cls-1" points="540.38377 -1 510.948311 63.581783 540.38377 128.163566 569.819229 63.581783 540.38377 -1"/>
    <polygon class="cls-1" points="422.641934 -1 393.206475 63.581783 422.641934 128.163566 452.077393 63.581783 422.641934 -1"/>
    <polygon class="cls-1" points="304.900098 -1 275.464639 63.581783 304.900098 128.163566 334.335557 63.581783 304.900098 -1"/>
    <polygon class="cls-1" points="187.158263 -1 157.722804 63.581783 187.158263 128.163566 216.593722 63.581783 187.158263 -1"/>
    <polygon class="cls-1" points="69.416427 -1 39.980968 63.581783 69.416427 128.163566 98.851886 63.581783 69.416427 -1"/>
    <polygon class="cls-1" points="1923.850342 63.581783 1894.414883 128.163566 1923.850342 192.745349 1953.285801 128.163566 1923.850342 63.581783"/>
    <polygon class="cls-1" points="1806.108506 63.581783 1776.673047 128.163566 1806.108506 192.745349 1835.543965 128.163566 1806.108506 63.581783"/>
    <polygon class="cls-1" points="1688.36667 63.581783 1658.931211 128.163566 1688.36667 192.745349 1717.802129 128.163566 1688.36667 63.581783"/>
    <polygon class="cls-1" points="1570.624834 63.581783 1541.189375 128.163566 1570.624834 192.745349 1600.060293 128.163566 1570.624834 63.581783"/>
    <polygon class="cls-1" points="1452.882998 63.581783 1423.447539 128.163566 1452.882998 192.745349 1482.318457 128.163566 1452.882998 63.581783"/>
    <polygon class="cls-1" points="1335.141162 63.581783 1305.705703 128.163566 1335.141162 192.745349 1364.576621 128.163566 1335.141162 63.581783"/>
    <polygon class="cls-1" points="1217.399327 63.581783 1187.963868 128.163566 1217.399327 192.745349 1246.834786 128.163566 1217.399327 63.581783"/>
    <polygon class="cls-1" points="1099.657491 63.581783 1070.222032 128.163566 1099.657491 192.745349 1129.09295 128.163566 1099.657491 63.581783"/>
    <polygon class="cls-1" points="981.915655 63.581783 952.480196 128.163566 981.915655 192.745349 1011.351114 128.163566 981.915655 63.581783"/>
    <polygon class="cls-1" points="864.173819 63.581783 834.73836 128.163566 864.173819 192.745349 893.609278 128.163566 864.173819 63.581783"/>
    <polygon class="cls-1" points="746.431983 63.581783 716.996524 128.163566 746.431983 192.745349 775.867442 128.163566 746.431983 63.581783"/>
    <polygon class="cls-1" points="628.690147 63.581783 599.254688 128.163566 628.690147 192.745349 658.125606 128.163566 628.690147 63.581783"/>
    <polygon class="cls-1" points="510.948311 63.581783 481.512852 128.163566 510.948311 192.745349 540.38377 128.163566 510.948311 63.581783"/>
    <polygon class="cls-1" points="393.206475 63.581783 363.771016 128.163566 393.206475 192.745349 422.641934 128.163566 393.206475 63.581783"/>
    <polygon class="cls-1" points="275.464639 63.581783 246.02918 128.163566 275.464639 192.745349 304.900098 128.163566 275.464639 63.581783"/>
    <polygon class="cls-1" points="157.722804 63.581783 128.287345 128.163566 157.722804 192.745349 187.158263 128.163566 157.722804 63.581783"/>
    <polygon class="cls-1" points="39.980968 63.581783 10.545509 128.163566 39.980968 192.745349 69.416427 128.163566 39.980968 63.581783"/>
    <polygon class="cls-1" points="1864.979424 63.581783 1835.543965 128.163566 1864.979424 192.745349 1894.414883 128.163566 1864.979424 63.581783"/>
    <polygon class="cls-1" points="1747.237588 63.581783 1717.802129 128.163566 1747.237588 192.745349 1776.673047 128.163566 1747.237588 63.581783"/>
    <polygon class="cls-1" points="1629.495752 63.581783 1600.060293 128.163566 1629.495752 192.745349 1658.931211 128.163566 1629.495752 63.581783"/>
    <polygon class="cls-1" points="1511.753916 63.581783 1482.318457 128.163566 1511.753916 192.745349 1541.189375 128.163566 1511.753916 63.581783"/>
    <polygon class="cls-1" points="1394.01208 63.581783 1364.576621 128.163566 1394.01208 192.745349 1423.447539 128.163566 1394.01208 63.581783"/>
    <polygon class="cls-1" points="1276.270244 63.581783 1246.834786 128.163566 1276.270245 192.745349 1305.705703 128.163566 1276.270244 63.581783"/>
    <polygon class="cls-1" points="1158.528409 63.581783 1129.09295 128.163566 1158.528409 192.745349 1187.963868 128.163566 1158.528409 63.581783"/>
    <polygon class="cls-1" points="1040.786573 63.581783 1011.351114 128.163566 1040.786573 192.745349 1070.222032 128.163566 1040.786573 63.581783"/>
    <polygon class="cls-1" points="923.044737 63.581783 893.609278 128.163566 923.044737 192.745349 952.480196 128.163566 923.044737 63.581783"/>
    <polygon class="cls-1" points="805.302901 63.581783 775.867442 128.163566 805.302901 192.745349 834.73836 128.163566 805.302901 63.581783"/>
    <polygon class="cls-1" points="687.561065 63.581783 658.125606 128.163566 687.561065 192.745349 716.996524 128.163566 687.561065 63.581783"/>
    <polygon class="cls-1" points="569.819229 63.581783 540.38377 128.163566 569.819229 192.745349 599.254688 128.163566 569.819229 63.581783"/>
    <polygon class="cls-1" points="452.077393 63.581783 422.641934 128.163566 452.077393 192.745349 481.512852 128.163566 452.077393 63.581783"/>
    <polygon class="cls-1" points="334.335557 63.581783 304.900098 128.163566 334.335557 192.745349 363.771016 128.163566 334.335557 63.581783"/>
    <polygon class="cls-1" points="216.593722 63.581783 187.158263 128.163566 216.593722 192.745349 246.02918 128.163566 216.593722 63.581783"/>
    <polygon class="cls-1" points="98.851886 63.581783 69.416427 128.163566 98.851886 192.745349 128.287345 128.163566 98.851886 63.581783"/>
    <polygon class="cls-1" points="-18.88995 63.581783 -48.325409 128.163566 -18.88995 192.745349 10.545509 128.163566 -18.88995 63.581783"/>
    <polygon class="cls-1" points="1894.414883 128.163566 1864.979424 192.745349 1894.414883 257.327132 1923.850342 192.745349 1894.414883 128.163566"/>
    <polygon class="cls-1" points="1776.673047 128.163566 1747.237588 192.745349 1776.673047 257.327132 1806.108506 192.745349 1776.673047 128.163566"/>
    <polygon class="cls-1" points="1658.931211 128.163566 1629.495752 192.745349 1658.931211 257.327132 1688.36667 192.745349 1658.931211 128.163566"/>
    <polygon class="cls-1" points="1541.189375 128.163566 1511.753916 192.745349 1541.189375 257.327132 1570.624834 192.745349 1541.189375 128.163566"/>
    <polygon class="cls-1" points="1423.447539 128.163566 1394.01208 192.745349 1423.447539 257.327132 1452.882998 192.745349 1423.447539 128.163566"/>
    <polygon class="cls-1" points="1305.705703 128.163566 1276.270245 192.745349 1305.705703 257.327132 1335.141162 192.745349 1305.705703 128.163566"/>
    <polygon class="cls-1" points="1187.963868 128.163566 1158.528409 192.745349 1187.963868 257.327132 1217.399327 192.745349 1187.963868 128.163566"/>
    <polygon class="cls-1" points="1070.222032 128.163566 1040.786573 192.745349 1070.222032 257.327132 1099.657491 192.745349 1070.222032 128.163566"/>
    <polygon class="cls-1" points="952.480196 128.163566 923.044737 192.745349 952.480196 257.327132 981.915655 192.745349 952.480196 128.163566"/>
    <polygon class="cls-1" points="834.73836 128.163566 805.302901 192.745349 834.73836 257.327132 864.173819 192.745349 834.73836 128.163566"/>
    <polygon class="cls-1" points="716.996524 128.163566 687.561065 192.745349 716.996524 257.327132 746.431983 192.745349 716.996524 128.163566"/>
    <polygon class="cls-1" points="599.254688 128.163566 569.819229 192.745349 599.254688 257.327132 628.690147 192.745349 599.254688 128.163566"/>
    <polygon class="cls-1" points="481.512852 128.163566 452.077393 192.745349 481.512852 257.327132 510.948311 192.745349 481.512852 128.163566"/>
    <polygon class="cls-1" points="363.771016 128.163566 334.335557 192.745349 363.771016 257.327132 393.206475 192.745349 363.771016 128.163566"/>
    <polygon class="cls-1" points="246.02918 128.163566 216.593722 192.745349 246.02918 257.327132 275.464639 192.745349 246.02918 128.163566"/>
    <polygon class="cls-1" points="128.287345 128.163566 98.851886 192.745349 128.287345 257.327132 157.722804 192.745349 128.287345 128.163566"/>
    <polygon class="cls-1" points="10.545509 128.163566 -18.88995 192.745349 10.545509 257.327132 39.980968 192.745349 10.545509 128.163566"/>
    <polygon class="cls-1" points="1835.543965 128.163566 1806.108506 192.745349 1835.543965 257.327132 1864.979424 192.745349 1835.543965 128.163566"/>
    <polygon class="cls-1" points="1717.802129 128.163566 1688.36667 192.745349 1717.802129 257.327132 1747.237588 192.745349 1717.802129 128.163566"/>
    <polygon class="cls-1" points="1600.060293 128.163566 1570.624834 192.745349 1600.060293 257.327132 1629.495752 192.745349 1600.060293 128.163566"/>
    <polygon class="cls-1" points="1482.318457 128.163566 1452.882998 192.745349 1482.318457 257.327132 1511.753916 192.745349 1482.318457 128.163566"/>
    <polygon class="cls-1" points="1364.576621 128.163566 1335.141162 192.745349 1364.576621 257.327132 1394.01208 192.745349 1364.576621 128.163566"/>
    <polygon class="cls-1" points="1246.834786 128.163566 1217.399327 192.745349 1246.834786 257.327132 1276.270245 192.745349 1246.834786 128.163566"/>
    <polygon class="cls-1" points="1129.09295 128.163566 1099.657491 192.745349 1129.09295 257.327132 1158.528409 192.745349 1129.09295 128.163566"/>
    <polygon class="cls-1" points="1011.351114 128.163566 981.915655 192.745349 1011.351114 257.327132 1040.786573 192.745349 1011.351114 128.163566"/>
    <polygon class="cls-1" points="893.609278 128.163566 864.173819 192.745349 893.609278 257.327132 923.044737 192.745349 893.609278 128.163566"/>
    <polygon class="cls-1" points="775.867442 128.163566 746.431983 192.745349 775.867442 257.327132 805.302901 192.745349 775.867442 128.163566"/>
    <polygon class="cls-1" points="658.125606 128.163566 628.690147 192.745349 658.125606 257.327132 687.561065 192.745349 658.125606 128.163566"/>
    <polygon class="cls-1" points="540.38377 128.163566 510.948311 192.745349 540.38377 257.327132 569.819229 192.745349 540.38377 128.163566"/>
    <polygon class="cls-1" points="422.641934 128.163566 393.206475 192.745349 422.641934 257.327132 452.077393 192.745349 422.641934 128.163566"/>
    <polygon class="cls-1" points="304.900098 128.163566 275.464639 192.745349 304.900098 257.327132 334.335557 192.745349 304.900098 128.163566"/>
    <polygon class="cls-1" points="187.158263 128.163566 157.722804 192.745349 187.158263 257.327132 216.593722 192.745349 187.158263 128.163566"/>
    <polygon class="cls-1" points="69.416427 128.163566 39.980968 192.745349 69.416427 257.327132 98.851886 192.745349 69.416427 128.163566"/>
    <polygon class="cls-1" points="1864.979424 192.745349 1835.543965 257.327132 1864.979424 321.908915 1894.414883 257.327132 1864.979424 192.745349"/>
    <polygon class="cls-1" points="1747.237588 192.745349 1717.802129 257.327132 1747.237588 321.908915 1776.673047 257.327132 1747.237588 192.745349"/>
    <polygon class="cls-1" points="1629.495752 192.745349 1600.060293 257.327132 1629.495752 321.908915 1658.931211 257.327132 1629.495752 192.745349"/>
    <polygon class="cls-1" points="1511.753916 192.745349 1482.318457 257.327132 1511.753916 321.908915 1541.189375 257.327132 1511.753916 192.745349"/>
    <polygon class="cls-1" points="1394.01208 192.745349 1364.576621 257.327132 1394.01208 321.908915 1423.447539 257.327132 1394.01208 192.745349"/>
    <polygon class="cls-1" points="1276.270244 192.745349 1246.834786 257.327132 1276.270245 321.908915 1305.705703 257.327132 1276.270244 192.745349"/>
    <polygon class="cls-1" points="1158.528409 192.745349 1129.09295 257.327132 1158.528409 321.908915 1187.963868 257.327132 1158.528409 192.745349"/>
    <polygon class="cls-1" points="1040.786573 192.745349 1011.351114 257.327132 1040.786573 321.908915 1070.222032 257.327132 1040.786573 192.745349"/>
    <polygon class="cls-1" points="923.044737 192.745349 893.609278 257.327132 923.044737 321.908915 952.480196 257.327132 923.044737 192.745349"/>
    <polygon class="cls-1" points="805.302901 192.745349 775.867442 257.327132 805.302901 321.908915 834.73836 257.327132 805.302901 192.745349"/>
    <polygon class="cls-1" points="687.561065 192.745349 658.125606 257.327132 687.561065 321.908915 716.996524 257.327132 687.561065 192.745349"/>
    <polygon class="cls-1" points="569.819229 192.745349 540.38377 257.327132 569.819229 321.908915 599.254688 257.327132 569.819229 192.745349"/>
    <polygon class="cls-1" points="452.077393 192.745349 422.641934 257.327132 452.077393 321.908915 481.512852 257.327132 452.077393 192.745349"/>
    <polygon class="cls-1" points="334.335557 192.745349 304.900098 257.327132 334.335557 321.908915 363.771016 257.327132 334.335557 192.745349"/>
    <polygon class="cls-1" points="216.593722 192.745349 187.158263 257.327132 216.593722 321.908915 246.02918 257.327132 216.593722 192.745349"/>
    <polygon class="cls-1" points="98.851886 192.745349 69.416427 257.327132 98.851886 321.908915 128.287345 257.327132 98.851886 192.745349"/>
    <polygon class="cls-1" points="-18.88995 192.745349 -48.325409 257.327132 -18.88995 321.908915 10.545509 257.327132 -18.88995 192.745349"/>
    <polygon class="cls-1" points="1923.850342 192.745349 1894.414883 257.327132 1923.850342 321.908915 1953.285801 257.327132 1923.850342 192.745349"/>
    <polygon class="cls-1" points="1806.108506 192.745349 1776.673047 257.327132 1806.108506 321.908915 1835.543965 257.327132 1806.108506 192.745349"/>
    <polygon class="cls-1" points="1688.36667 192.745349 1658.931211 257.327132 1688.36667 321.908915 1717.802129 257.327132 1688.36667 192.745349"/>
    <polygon class="cls-1" points="1570.624834 192.745349 1541.189375 257.327132 1570.624834 321.908915 1600.060293 257.327132 1570.624834 192.745349"/>
    <polygon class="cls-1" points="1452.882998 192.745349 1423.447539 257.327132 1452.882998 321.908915 1482.318457 257.327132 1452.882998 192.745349"/>
    <polygon class="cls-1" points="1335.141162 192.745349 1305.705703 257.327132 1335.141162 321.908915 1364.576621 257.327132 1335.141162 192.745349"/>
    <polygon class="cls-1" points="1217.399327 192.745349 1187.963868 257.327132 1217.399327 321.908915 1246.834786 257.327132 1217.399327 192.745349"/>
    <polygon class="cls-1" points="1099.657491 192.745349 1070.222032 257.327132 1099.657491 321.908915 1129.09295 257.327132 1099.657491 192.745349"/>
    <polygon class="cls-1" points="981.915655 192.745349 952.480196 257.327132 981.915655 321.908915 1011.351114 257.327132 981.915655 192.745349"/>
    <polygon class="cls-1" points="864.173819 192.745349 834.73836 257.327132 864.173819 321.908915 893.609278 257.327132 864.173819 192.745349"/>
    <polygon class="cls-1" points="746.431983 192.745349 716.996524 257.327132 746.431983 321.908915 775.867442 257.327132 746.431983 192.745349"/>
    <polygon class="cls-1" points="628.690147 192.745349 599.254688 257.327132 628.690147 321.908915 658.125606 257.327132 628.690147 192.745349"/>
    <polygon class="cls-1" points="510.948311 192.745349 481.512852 257.327132 510.948311 321.908915 540.38377 257.327132 510.948311 192.745349"/>
    <polygon class="cls-1" points="393.206475 192.745349 363.771016 257.327132 393.206475 321.908915 422.641934 257.327132 393.206475 192.745349"/>
    <polygon class="cls-1" points="275.464639 192.745349 246.02918 257.327132 275.464639 321.908915 304.900098 257.327132 275.464639 192.745349"/>
    <polygon class="cls-1" points="157.722804 192.745349 128.287345 257.327132 157.722804 321.908915 187.158263 257.327132 157.722804 192.745349"/>
    <polygon class="cls-1" points="39.980968 192.745349 10.545509 257.327132 39.980968 321.908915 69.416427 257.327132 39.980968 192.745349"/>
    <polygon class="cls-1" points="1835.543965 257.327132 1806.108506 321.908915 1835.543965 386.490698 1864.979424 321.908915 1835.543965 257.327132"/>
    <polygon class="cls-1" points="1717.802129 257.327132 1688.36667 321.908915 1717.802129 386.490698 1747.237588 321.908915 1717.802129 257.327132"/>
    <polygon class="cls-1" points="1600.060293 257.327132 1570.624834 321.908915 1600.060293 386.490698 1629.495752 321.908915 1600.060293 257.327132"/>
    <polygon class="cls-1" points="1482.318457 257.327132 1452.882998 321.908915 1482.318457 386.490698 1511.753916 321.908915 1482.318457 257.327132"/>
    <polygon class="cls-1" points="1364.576621 257.327132 1335.141162 321.908915 1364.576621 386.490698 1394.01208 321.908915 1364.576621 257.327132"/>
    <polygon class="cls-1" points="1246.834786 257.327132 1217.399327 321.908915 1246.834786 386.490698 1276.270245 321.908915 1246.834786 257.327132"/>
    <polygon class="cls-1" points="1129.09295 257.327132 1099.657491 321.908915 1129.09295 386.490698 1158.528409 321.908915 1129.09295 257.327132"/>
    <polygon class="cls-1" points="1011.351114 257.327132 981.915655 321.908915 1011.351114 386.490698 1040.786573 321.908915 1011.351114 257.327132"/>
    <polygon class="cls-1" points="893.609278 257.327132 864.173819 321.908915 893.609278 386.490698 923.044737 321.908915 893.609278 257.327132"/>
    <polygon class="cls-1" points="775.867442 257.327132 746.431983 321.908915 775.867442 386.490698 805.302901 321.908915 775.867442 257.327132"/>
    <polygon class="cls-1" points="658.125606 257.327132 628.690147 321.908915 658.125606 386.490698 687.561065 321.908915 658.125606 257.327132"/>
    <polygon class="cls-1" points="540.38377 257.327132 510.948311 321.908915 540.38377 386.490698 569.819229 321.908915 540.38377 257.327132"/>
    <polygon class="cls-1" points="422.641934 257.327132 393.206475 321.908915 422.641934 386.490698 452.077393 321.908915 422.641934 257.327132"/>
    <polygon class="cls-1" points="304.900098 257.327132 275.464639 321.908915 304.900098 386.490698 334.335557 321.908915 304.900098 257.327132"/>
    <polygon class="cls-1" points="187.158263 257.327132 157.722804 321.908915 187.158263 386.490698 216.593722 321.908915 187.158263 257.327132"/>
    <polygon class="cls-1" points="69.416427 257.327132 39.980968 321.908915 69.416427 386.490698 98.851886 321.908915 69.416427 257.327132"/>
    <polygon class="cls-1" points="1894.414883 257.327132 1864.979424 321.908915 1894.414883 386.490698 1923.850342 321.908915 1894.414883 257.327132"/>
    <polygon class="cls-1" points="1776.673047 257.327132 1747.237588 321.908915 1776.673047 386.490698 1806.108506 321.908915 1776.673047 257.327132"/>
    <polygon class="cls-1" points="1658.931211 257.327132 1629.495752 321.908915 1658.931211 386.490698 1688.36667 321.908915 1658.931211 257.327132"/>
    <polygon class="cls-1" points="1541.189375 257.327132 1511.753916 321.908915 1541.189375 386.490698 1570.624834 321.908915 1541.189375 257.327132"/>
    <polygon class="cls-1" points="1423.447539 257.327132 1394.01208 321.908915 1423.447539 386.490698 1452.882998 321.908915 1423.447539 257.327132"/>
    <polygon class="cls-1" points="1305.705703 257.327132 1276.270245 321.908915 1305.705703 386.490698 1335.141162 321.908915 1305.705703 257.327132"/>
    <polygon class="cls-1" points="1187.963868 257.327132 1158.528409 321.908915 1187.963868 386.490698 1217.399327 321.908915 1187.963868 257.327132"/>
    <polygon class="cls-1" points="1070.222032 257.327132 1040.786573 321.908915 1070.222032 386.490698 1099.657491 321.908915 1070.222032 257.327132"/>
    <polygon class="cls-1" points="952.480196 257.327132 923.044737 321.908915 952.480196 386.490698 981.915655 321.908915 952.480196 257.327132"/>
    <polygon class="cls-1" points="834.73836 257.327132 805.302901 321.908915 834.73836 386.490698 864.173819 321.908915 834.73836 257.327132"/>
    <polygon class="cls-1" points="716.996524 257.327132 687.561065 321.908915 716.996524 386.490698 746.431983 321.908915 716.996524 257.327132"/>
    <polygon class="cls-1" points="599.254688 257.327132 569.819229 321.908915 599.254688 386.490698 628.690147 321.908915 599.254688 257.327132"/>
    <polygon class="cls-1" points="481.512852 257.327132 452.077393 321.908915 481.512852 386.490698 510.948311 321.908915 481.512852 257.327132"/>
    <polygon class="cls-1" points="363.771016 257.327132 334.335557 321.908915 363.771016 386.490698 393.206475 321.908915 363.771016 257.327132"/>
    <polygon class="cls-1" points="246.02918 257.327132 216.593722 321.908915 246.02918 386.490698 275.464639 321.908915 246.02918 257.327132"/>
    <polygon class="cls-1" points="128.287345 257.327132 98.851886 321.908915 128.287345 386.490698 157.722804 321.908915 128.287345 257.327132"/>
    <polygon class="cls-1" points="10.545509 257.327132 -18.88995 321.908915 10.545509 386.490698 39.980968 321.908915 10.545509 257.327132"/>
    <polygon class="cls-1" points="1923.850342 321.908915 1894.414883 386.490698 1923.850342 451.072481 1953.285801 386.490698 1923.850342 321.908915"/>
    <polygon class="cls-1" points="1806.108506 321.908915 1776.673047 386.490698 1806.108506 451.072481 1835.543965 386.490698 1806.108506 321.908915"/>
    <polygon class="cls-1" points="1688.36667 321.908915 1658.931211 386.490698 1688.36667 451.072481 1717.802129 386.490698 1688.36667 321.908915"/>
    <polygon class="cls-1" points="1570.624834 321.908915 1541.189375 386.490698 1570.624834 451.072481 1600.060293 386.490698 1570.624834 321.908915"/>
    <polygon class="cls-1" points="1452.882998 321.908915 1423.447539 386.490698 1452.882998 451.072481 1482.318457 386.490698 1452.882998 321.908915"/>
    <polygon class="cls-1" points="1335.141162 321.908915 1305.705703 386.490698 1335.141162 451.072481 1364.576621 386.490698 1335.141162 321.908915"/>
    <polygon class="cls-1" points="1217.399327 321.908915 1187.963868 386.490698 1217.399327 451.072481 1246.834786 386.490698 1217.399327 321.908915"/>
    <polygon class="cls-1" points="1099.657491 321.908915 1070.222032 386.490698 1099.657491 451.072481 1129.09295 386.490698 1099.657491 321.908915"/>
    <polygon class="cls-1" points="981.915655 321.908915 952.480196 386.490698 981.915655 451.072481 1011.351114 386.490698 981.915655 321.908915"/>
    <polygon class="cls-1" points="864.173819 321.908915 834.73836 386.490698 864.173819 451.072481 893.609278 386.490698 864.173819 321.908915"/>
    <polygon class="cls-1" points="746.431983 321.908915 716.996524 386.490698 746.431983 451.072481 775.867442 386.490698 746.431983 321.908915"/>
    <polygon class="cls-1" points="628.690147 321.908915 599.254688 386.490698 628.690147 451.072481 658.125606 386.490698 628.690147 321.908915"/>
    <polygon class="cls-1" points="510.948311 321.908915 481.512852 386.490698 510.948311 451.072481 540.38377 386.490698 510.948311 321.908915"/>
    <polygon class="cls-1" points="393.206475 321.908915 363.771016 386.490698 393.206475 451.072481 422.641934 386.490698 393.206475 321.908915"/>
    <polygon class="cls-1" points="275.464639 321.908915 246.02918 386.490698 275.464639 451.072481 304.900098 386.490698 275.464639 321.908915"/>
    <polygon class="cls-1" points="157.722804 321.908915 128.287345 386.490698 157.722804 451.072481 187.158263 386.490698 157.722804 321.908915"/>
    <polygon class="cls-1" points="39.980968 321.908915 10.545509 386.490698 39.980968 451.072481 69.416427 386.490698 39.980968 321.908915"/>
    <polygon class="cls-1" points="1864.979424 321.908915 1835.543965 386.490698 1864.979424 451.072481 1894.414883 386.490698 1864.979424 321.908915"/>
    <polygon class="cls-1" points="1747.237588 321.908915 1717.802129 386.490698 1747.237588 451.072481 1776.673047 386.490698 1747.237588 321.908915"/>
    <polygon class="cls-1" points="1629.495752 321.908915 1600.060293 386.490698 1629.495752 451.072481 1658.931211 386.490698 1629.495752 321.908915"/>
    <polygon class="cls-1" points="1511.753916 321.908915 1482.318457 386.490698 1511.753916 451.072481 1541.189375 386.490698 1511.753916 321.908915"/>
    <polygon class="cls-1" points="1394.01208 321.908915 1364.576621 386.490698 1394.01208 451.072481 1423.447539 386.490698 1394.01208 321.908915"/>
    <polygon class="cls-1" points="1276.270244 321.908915 1246.834786 386.490698 1276.270245 451.072481 1305.705703 386.490698 1276.270244 321.908915"/>
    <polygon class="cls-1" points="1158.528409 321.908915 1129.09295 386.490698 1158.528409 451.072481 1187.963868 386.490698 1158.528409 321.908915"/>
    <polygon class="cls-1" points="1040.786573 321.908915 1011.351114 386.490698 1040.786573 451.072481 1070.222032 386.490698 1040.786573 321.908915"/>
    <polygon class="cls-1" points="923.044737 321.908915 893.609278 386.490698 923.044737 451.072481 952.480196 386.490698 923.044737 321.908915"/>
    <polygon class="cls-1" points="805.302901 321.908915 775.867442 386.490698 805.302901 451.072481 834.73836 386.490698 805.302901 321.908915"/>
    <polygon class="cls-1" points="687.561065 321.908915 658.125606 386.490698 687.561065 451.072481 716.996524 386.490698 687.561065 321.908915"/>
    <polygon class="cls-1" points="569.819229 321.908915 540.38377 386.490698 569.819229 451.072481 599.254688 386.490698 569.819229 321.908915"/>
    <polygon class="cls-1" points="452.077393 321.908915 422.641934 386.490698 452.077393 451.072481 481.512852 386.490698 452.077393 321.908915"/>
    <polygon class="cls-1" points="334.335557 321.908915 304.900098 386.490698 334.335557 451.072481 363.771016 386.490698 334.335557 321.908915"/>
    <polygon class="cls-1" points="216.593722 321.908915 187.158263 386.490698 216.593722 451.072481 246.02918 386.490698 216.593722 321.908915"/>
    <polygon class="cls-1" points="98.851886 321.908915 69.416427 386.490698 98.851886 451.072481 128.287345 386.490698 98.851886 321.908915"/>
    <polygon class="cls-1" points="-18.88995 321.908915 -48.325409 386.490698 -18.88995 451.072481 10.545509 386.490698 -18.88995 321.908915"/>
    <polygon class="cls-1" points="1894.414883 386.490698 1864.979424 451.072481 1894.414883 515.654264 1923.850342 451.072481 1894.414883 386.490698"/>
    <polygon class="cls-1" points="1776.673047 386.490698 1747.237588 451.072481 1776.673047 515.654264 1806.108506 451.072481 1776.673047 386.490698"/>
    <polygon class="cls-1" points="1658.931211 386.490698 1629.495752 451.072481 1658.931211 515.654264 1688.36667 451.072481 1658.931211 386.490698"/>
    <polygon class="cls-1" points="1541.189375 386.490698 1511.753916 451.072481 1541.189375 515.654264 1570.624834 451.072481 1541.189375 386.490698"/>
    <polygon class="cls-1" points="1423.447539 386.490698 1394.01208 451.072481 1423.447539 515.654264 1452.882998 451.072481 1423.447539 386.490698"/>
    <polygon class="cls-1" points="1305.705703 386.490698 1276.270245 451.072481 1305.705703 515.654264 1335.141162 451.072481 1305.705703 386.490698"/>
    <polygon class="cls-1" points="1187.963868 386.490698 1158.528409 451.072481 1187.963868 515.654264 1217.399327 451.072481 1187.963868 386.490698"/>
    <polygon class="cls-1" points="1070.222032 386.490698 1040.786573 451.072481 1070.222032 515.654264 1099.657491 451.072481 1070.222032 386.490698"/>
    <polygon class="cls-1" points="952.480196 386.490698 923.044737 451.072481 952.480196 515.654264 981.915655 451.072481 952.480196 386.490698"/>
    <polygon class="cls-1" points="834.73836 386.490698 805.302901 451.072481 834.73836 515.654264 864.173819 451.072481 834.73836 386.490698"/>
    <polygon class="cls-1" points="716.996524 386.490698 687.561065 451.072481 716.996524 515.654264 746.431983 451.072481 716.996524 386.490698"/>
    <polygon class="cls-1" points="599.254688 386.490698 569.819229 451.072481 599.254688 515.654264 628.690147 451.072481 599.254688 386.490698"/>
    <polygon class="cls-1" points="481.512852 386.490698 452.077393 451.072481 481.512852 515.654264 510.948311 451.072481 481.512852 386.490698"/>
    <polygon class="cls-1" points="363.771016 386.490698 334.335557 451.072481 363.771016 515.654264 393.206475 451.072481 363.771016 386.490698"/>
    <polygon class="cls-1" points="246.02918 386.490698 216.593722 451.072481 246.02918 515.654264 275.464639 451.072481 246.02918 386.490698"/>
    <polygon class="cls-1" points="128.287345 386.490698 98.851886 451.072481 128.287345 515.654264 157.722804 451.072481 128.287345 386.490698"/>
    <polygon class="cls-1" points="10.545509 386.490698 -18.88995 451.072481 10.545509 515.654264 39.980968 451.072481 10.545509 386.490698"/>
    <polygon class="cls-1" points="1835.543965 386.490698 1806.108506 451.072481 1835.543965 515.654264 1864.979424 451.072481 1835.543965 386.490698"/>
    <polygon class="cls-1" points="1717.802129 386.490698 1688.36667 451.072481 1717.802129 515.654264 1747.237588 451.072481 1717.802129 386.490698"/>
    <polygon class="cls-1" points="1600.060293 386.490698 1570.624834 451.072481 1600.060293 515.654264 1629.495752 451.072481 1600.060293 386.490698"/>
    <polygon class="cls-1" points="1482.318457 386.490698 1452.882998 451.072481 1482.318457 515.654264 1511.753916 451.072481 1482.318457 386.490698"/>
    <polygon class="cls-1" points="1364.576621 386.490698 1335.141162 451.072481 1364.576621 515.654264 1394.01208 451.072481 1364.576621 386.490698"/>
    <polygon class="cls-1" points="1246.834786 386.490698 1217.399327 451.072481 1246.834786 515.654264 1276.270245 451.072481 1246.834786 386.490698"/>
    <polygon class="cls-1" points="1129.09295 386.490698 1099.657491 451.072481 1129.09295 515.654264 1158.528409 451.072481 1129.09295 386.490698"/>
    <polygon class="cls-1" points="1011.351114 386.490698 981.915655 451.072481 1011.351114 515.654264 1040.786573 451.072481 1011.351114 386.490698"/>
    <polygon class="cls-1" points="893.609278 386.490698 864.173819 451.072481 893.609278 515.654264 923.044737 451.072481 893.609278 386.490698"/>
    <polygon class="cls-1" points="775.867442 386.490698 746.431983 451.072481 775.867442 515.654264 805.302901 451.072481 775.867442 386.490698"/>
    <polygon class="cls-1" points="658.125606 386.490698 628.690147 451.072481 658.125606 515.654264 687.561065 451.072481 658.125606 386.490698"/>
    <polygon class="cls-1" points="540.38377 386.490698 510.948311 451.072481 540.38377 515.654264 569.819229 451.072481 540.38377 386.490698"/>
    <polygon class="cls-1" points="422.641934 386.490698 393.206475 451.072481 422.641934 515.654264 452.077393 451.072481 422.641934 386.490698"/>
    <polygon class="cls-1" points="304.900098 386.490698 275.464639 451.072481 304.900098 515.654264 334.335557 451.072481 304.900098 386.490698"/>
    <polygon class="cls-1" points="187.158263 386.490698 157.722804 451.072481 187.158263 515.654264 216.593722 451.072481 187.158263 386.490698"/>
    <polygon class="cls-1" points="69.416427 386.490698 39.980968 451.072481 69.416427 515.654264 98.851886 451.072481 69.416427 386.490698"/>
    <polygon class="cls-1" points="1923.850342 451.072481 1894.414883 515.654264 1923.850342 580.236047 1953.285801 515.654264 1923.850342 451.072481"/>
    <polygon class="cls-1" points="1806.108506 451.072481 1776.673047 515.654264 1806.108506 580.236047 1835.543965 515.654264 1806.108506 451.072481"/>
    <polygon class="cls-1" points="1688.36667 451.072481 1658.931211 515.654264 1688.36667 580.236047 1717.802129 515.654264 1688.36667 451.072481"/>
    <polygon class="cls-1" points="1570.624834 451.072481 1541.189375 515.654264 1570.624834 580.236047 1600.060293 515.654264 1570.624834 451.072481"/>
    <polygon class="cls-1" points="1452.882998 451.072481 1423.447539 515.654264 1452.882998 580.236047 1482.318457 515.654264 1452.882998 451.072481"/>
    <polygon class="cls-1" points="1335.141162 451.072481 1305.705703 515.654264 1335.141162 580.236047 1364.576621 515.654264 1335.141162 451.072481"/>
    <polygon class="cls-1" points="1217.399327 451.072481 1187.963868 515.654264 1217.399327 580.236047 1246.834786 515.654264 1217.399327 451.072481"/>
    <polygon class="cls-1" points="1099.657491 451.072481 1070.222032 515.654264 1099.657491 580.236047 1129.09295 515.654264 1099.657491 451.072481"/>
    <polygon class="cls-1" points="981.915655 451.072481 952.480196 515.654264 981.915655 580.236047 1011.351114 515.654264 981.915655 451.072481"/>
    <polygon class="cls-1" points="864.173819 451.072481 834.73836 515.654264 864.173819 580.236047 893.609278 515.654264 864.173819 451.072481"/>
    <polygon class="cls-1" points="746.431983 451.072481 716.996524 515.654264 746.431983 580.236047 775.867442 515.654264 746.431983 451.072481"/>
    <polygon class="cls-1" points="628.690147 451.072481 599.254688 515.654264 628.690147 580.236047 658.125606 515.654264 628.690147 451.072481"/>
    <polygon class="cls-1" points="510.948311 451.072481 481.512852 515.654264 510.948311 580.236047 540.38377 515.654264 510.948311 451.072481"/>
    <polygon class="cls-1" points="393.206475 451.072481 363.771016 515.654264 393.206475 580.236047 422.641934 515.654264 393.206475 451.072481"/>
    <polygon class="cls-1" points="275.464639 451.072481 246.02918 515.654264 275.464639 580.236047 304.900098 515.654264 275.464639 451.072481"/>
    <polygon class="cls-1" points="157.722804 451.072481 128.287345 515.654264 157.722804 580.236047 187.158263 515.654264 157.722804 451.072481"/>
    <polygon class="cls-1" points="39.980968 451.072481 10.545509 515.654264 39.980968 580.236047 69.416427 515.654264 39.980968 451.072481"/>
    <polygon class="cls-1" points="1864.979424 451.072481 1835.543965 515.654264 1864.979424 580.236047 1894.414883 515.654264 1864.979424 451.072481"/>
    <polygon class="cls-1" points="1747.237588 451.072481 1717.802129 515.654264 1747.237588 580.236047 1776.673047 515.654264 1747.237588 451.072481"/>
    <polygon class="cls-1" points="1629.495752 451.072481 1600.060293 515.654264 1629.495752 580.236047 1658.931211 515.654264 1629.495752 451.072481"/>
    <polygon class="cls-1" points="1511.753916 451.072481 1482.318457 515.654264 1511.753916 580.236047 1541.189375 515.654264 1511.753916 451.072481"/>
    <polygon class="cls-1" points="1394.01208 451.072481 1364.576621 515.654264 1394.01208 580.236047 1423.447539 515.654264 1394.01208 451.072481"/>
    <polygon class="cls-1" points="1276.270244 451.072481 1246.834786 515.654264 1276.270245 580.236047 1305.705703 515.654264 1276.270244 451.072481"/>
    <polygon class="cls-1" points="1158.528409 451.072481 1129.09295 515.654264 1158.528409 580.236047 1187.963868 515.654264 1158.528409 451.072481"/>
    <polygon class="cls-1" points="1040.786573 451.072481 1011.351114 515.654264 1040.786573 580.236047 1070.222032 515.654264 1040.786573 451.072481"/>
    <polygon class="cls-1" points="923.044737 451.072481 893.609278 515.654264 923.044737 580.236047 952.480196 515.654264 923.044737 451.072481"/>
    <polygon class="cls-1" points="805.302901 451.072481 775.867442 515.654264 805.302901 580.236047 834.73836 515.654264 805.302901 451.072481"/>
    <polygon class="cls-1" points="687.561065 451.072481 658.125606 515.654264 687.561065 580.236047 716.996524 515.654264 687.561065 451.072481"/>
    <polygon class="cls-1" points="569.819229 451.072481 540.38377 515.654264 569.819229 580.236047 599.254688 515.654264 569.819229 451.072481"/>
    <polygon class="cls-1" points="452.077393 451.072481 422.641934 515.654264 452.077393 580.236047 481.512852 515.654264 452.077393 451.072481"/>
    <polygon class="cls-1" points="334.335557 451.072481 304.900098 515.654264 334.335557 580.236047 363.771016 515.654264 334.335557 451.072481"/>
    <polygon class="cls-1" points="216.593722 451.072481 187.158263 515.654264 216.593722 580.236047 246.02918 515.654264 216.593722 451.072481"/>
    <polygon class="cls-1" points="98.851886 451.072481 69.416427 515.654264 98.851886 580.236047 128.287345 515.654264 98.851886 451.072481"/>
    <polygon class="cls-1" points="-18.88995 451.072481 -48.325409 515.654264 -18.88995 580.236047 10.545509 515.654264 -18.88995 451.072481"/>
    <polygon class="cls-1" points="1894.414883 515.654264 1864.979424 580.236047 1894.414883 644.81783 1923.850342 580.236047 1894.414883 515.654264"/>
    <polygon class="cls-1" points="1776.673047 515.654264 1747.237588 580.236047 1776.673047 644.81783 1806.108506 580.236047 1776.673047 515.654264"/>
    <polygon class="cls-1" points="1658.931211 515.654264 1629.495752 580.236047 1658.931211 644.81783 1688.36667 580.236047 1658.931211 515.654264"/>
    <polygon class="cls-1" points="1541.189375 515.654264 1511.753916 580.236047 1541.189375 644.81783 1570.624834 580.236047 1541.189375 515.654264"/>
    <polygon class="cls-1" points="1423.447539 515.654264 1394.01208 580.236047 1423.447539 644.81783 1452.882998 580.236047 1423.447539 515.654264"/>
    <polygon class="cls-1" points="1305.705703 515.654264 1276.270245 580.236047 1305.705703 644.81783 1335.141162 580.236047 1305.705703 515.654264"/>
    <polygon class="cls-1" points="1187.963868 515.654264 1158.528409 580.236047 1187.963868 644.81783 1217.399327 580.236047 1187.963868 515.654264"/>
    <polygon class="cls-1" points="1070.222032 515.654264 1040.786573 580.236047 1070.222032 644.81783 1099.657491 580.236047 1070.222032 515.654264"/>
    <polygon class="cls-1" points="952.480196 515.654264 923.044737 580.236047 952.480196 644.81783 981.915655 580.236047 952.480196 515.654264"/>
    <polygon class="cls-1" points="834.73836 515.654264 805.302901 580.236047 834.73836 644.81783 864.173819 580.236047 834.73836 515.654264"/>
    <polygon class="cls-1" points="716.996524 515.654264 687.561065 580.236047 716.996524 644.81783 746.431983 580.236047 716.996524 515.654264"/>
    <polygon class="cls-1" points="599.254688 515.654264 569.819229 580.236047 599.254688 644.81783 628.690147 580.236047 599.254688 515.654264"/>
    <polygon class="cls-1" points="481.512852 515.654264 452.077393 580.236047 481.512852 644.81783 510.948311 580.236047 481.512852 515.654264"/>
    <polygon class="cls-1" points="363.771016 515.654264 334.335557 580.236047 363.771016 644.81783 393.206475 580.236047 363.771016 515.654264"/>
    <polygon class="cls-1" points="246.02918 515.654264 216.593722 580.236047 246.02918 644.81783 275.464639 580.236047 246.02918 515.654264"/>
    <polygon class="cls-1" points="128.287345 515.654264 98.851886 580.236047 128.287345 644.81783 157.722804 580.236047 128.287345 515.654264"/>
    <polygon class="cls-1" points="10.545509 515.654264 -18.88995 580.236047 10.545509 644.81783 39.980968 580.236047 10.545509 515.654264"/>
    <polygon class="cls-1" points="1835.543965 515.654264 1806.108506 580.236047 1835.543965 644.81783 1864.979424 580.236047 1835.543965 515.654264"/>
    <polygon class="cls-1" points="1717.802129 515.654264 1688.36667 580.236047 1717.802129 644.81783 1747.237588 580.236047 1717.802129 515.654264"/>
    <polygon class="cls-1" points="1600.060293 515.654264 1570.624834 580.236047 1600.060293 644.81783 1629.495752 580.236047 1600.060293 515.654264"/>
    <polygon class="cls-1" points="1482.318457 515.654264 1452.882998 580.236047 1482.318457 644.81783 1511.753916 580.236047 1482.318457 515.654264"/>
    <polygon class="cls-1" points="1364.576621 515.654264 1335.141162 580.236047 1364.576621 644.81783 1394.01208 580.236047 1364.576621 515.654264"/>
    <polygon class="cls-1" points="1246.834786 515.654264 1217.399327 580.236047 1246.834786 644.81783 1276.270245 580.236047 1246.834786 515.654264"/>
    <polygon class="cls-1" points="1129.09295 515.654264 1099.657491 580.236047 1129.09295 644.81783 1158.528409 580.236047 1129.09295 515.654264"/>
    <polygon class="cls-1" points="1011.351114 515.654264 981.915655 580.236047 1011.351114 644.81783 1040.786573 580.236047 1011.351114 515.654264"/>
    <polygon class="cls-1" points="893.609278 515.654264 864.173819 580.236047 893.609278 644.81783 923.044737 580.236047 893.609278 515.654264"/>
    <polygon class="cls-1" points="775.867442 515.654264 746.431983 580.236047 775.867442 644.81783 805.302901 580.236047 775.867442 515.654264"/>
    <polygon class="cls-1" points="658.125606 515.654264 628.690147 580.236047 658.125606 644.81783 687.561065 580.236047 658.125606 515.654264"/>
    <polygon class="cls-1" points="540.38377 515.654264 510.948311 580.236047 540.38377 644.81783 569.819229 580.236047 540.38377 515.654264"/>
    <polygon class="cls-1" points="422.641934 515.654264 393.206475 580.236047 422.641934 644.81783 452.077393 580.236047 422.641934 515.654264"/>
    <polygon class="cls-1" points="304.900098 515.654264 275.464639 580.236047 304.900098 644.81783 334.335557 580.236047 304.900098 515.654264"/>
    <polygon class="cls-1" points="187.158263 515.654264 157.722804 580.236047 187.158263 644.81783 216.593722 580.236047 187.158263 515.654264"/>
    <polygon class="cls-1" points="69.416427 515.654264 39.980968 580.236047 69.416427 644.81783 98.851886 580.236047 69.416427 515.654264"/>
    <polygon class="cls-1" points="1864.979424 580.236047 1835.543965 644.81783 1864.979424 709.399613 1894.414883 644.81783 1864.979424 580.236047"/>
    <polygon class="cls-1" points="1747.237588 580.236047 1717.802129 644.81783 1747.237588 709.399613 1776.673047 644.81783 1747.237588 580.236047"/>
    <polygon class="cls-1" points="1629.495752 580.236047 1600.060293 644.81783 1629.495752 709.399613 1658.931211 644.81783 1629.495752 580.236047"/>
    <polygon class="cls-1" points="1511.753916 580.236047 1482.318457 644.81783 1511.753916 709.399613 1541.189375 644.81783 1511.753916 580.236047"/>
    <polygon class="cls-1" points="1394.01208 580.236047 1364.576621 644.81783 1394.01208 709.399613 1423.447539 644.81783 1394.01208 580.236047"/>
    <polygon class="cls-1" points="1276.270244 580.236047 1246.834786 644.81783 1276.270245 709.399613 1305.705703 644.81783 1276.270244 580.236047"/>
    <polygon class="cls-1" points="1158.528409 580.236047 1129.09295 644.81783 1158.528409 709.399613 1187.963868 644.81783 1158.528409 580.236047"/>
    <polygon class="cls-1" points="1040.786573 580.236047 1011.351114 644.81783 1040.786573 709.399613 1070.222032 644.81783 1040.786573 580.236047"/>
    <polygon class="cls-1" points="923.044737 580.236047 893.609278 644.81783 923.044737 709.399613 952.480196 644.81783 923.044737 580.236047"/>
    <polygon class="cls-1" points="805.302901 580.236047 775.867442 644.81783 805.302901 709.399613 834.73836 644.81783 805.302901 580.236047"/>
    <polygon class="cls-1" points="687.561065 580.236047 658.125606 644.81783 687.561065 709.399613 716.996524 644.81783 687.561065 580.236047"/>
    <polygon class="cls-1" points="569.819229 580.236047 540.38377 644.81783 569.819229 709.399613 599.254688 644.81783 569.819229 580.236047"/>
    <polygon class="cls-1" points="452.077393 580.236047 422.641934 644.81783 452.077393 709.399613 481.512852 644.81783 452.077393 580.236047"/>
    <polygon class="cls-1" points="334.335557 580.236047 304.900098 644.81783 334.335557 709.399613 363.771016 644.81783 334.335557 580.236047"/>
    <polygon class="cls-1" points="216.593722 580.236047 187.158263 644.81783 216.593722 709.399613 246.02918 644.81783 216.593722 580.236047"/>
    <polygon class="cls-1" points="98.851886 580.236047 69.416427 644.81783 98.851886 709.399613 128.287345 644.81783 98.851886 580.236047"/>
    <polygon class="cls-1" points="-18.88995 580.236047 -48.325409 644.81783 -18.88995 709.399613 10.545509 644.81783 -18.88995 580.236047"/>
    <polygon class="cls-1" points="1923.850342 580.236047 1894.414883 644.81783 1923.850342 709.399613 1953.285801 644.81783 1923.850342 580.236047"/>
    <polygon class="cls-1" points="1806.108506 580.236047 1776.673047 644.81783 1806.108506 709.399613 1835.543965 644.81783 1806.108506 580.236047"/>
    <polygon class="cls-1" points="1688.36667 580.236047 1658.931211 644.81783 1688.36667 709.399613 1717.802129 644.81783 1688.36667 580.236047"/>
    <polygon class="cls-1" points="1570.624834 580.236047 1541.189375 644.81783 1570.624834 709.399613 1600.060293 644.81783 1570.624834 580.236047"/>
    <polygon class="cls-1" points="1452.882998 580.236047 1423.447539 644.81783 1452.882998 709.399613 1482.318457 644.81783 1452.882998 580.236047"/>
    <polygon class="cls-1" points="1335.141162 580.236047 1305.705703 644.81783 1335.141162 709.399613 1364.576621 644.81783 1335.141162 580.236047"/>
    <polygon class="cls-1" points="1217.399327 580.236047 1187.963868 644.81783 1217.399327 709.399613 1246.834786 644.81783 1217.399327 580.236047"/>
    <polygon class="cls-1" points="1099.657491 580.236047 1070.222032 644.81783 1099.657491 709.399613 1129.09295 644.81783 1099.657491 580.236047"/>
    <polygon class="cls-1" points="981.915655 580.236047 952.480196 644.81783 981.915655 709.399613 1011.351114 644.81783 981.915655 580.236047"/>
    <polygon class="cls-1" points="864.173819 580.236047 834.73836 644.81783 864.173819 709.399613 893.609278 644.81783 864.173819 580.236047"/>
    <polygon class="cls-1" points="746.431983 580.236047 716.996524 644.81783 746.431983 709.399613 775.867442 644.81783 746.431983 580.236047"/>
    <polygon class="cls-1" points="628.690147 580.236047 599.254688 644.81783 628.690147 709.399613 658.125606 644.81783 628.690147 580.236047"/>
    <polygon class="cls-1" points="510.948311 580.236047 481.512852 644.81783 510.948311 709.399613 540.38377 644.81783 510.948311 580.236047"/>
    <polygon class="cls-1" points="393.206475 580.236047 363.771016 644.81783 393.206475 709.399613 422.641934 644.81783 393.206475 580.236047"/>
    <polygon class="cls-1" points="275.464639 580.236047 246.02918 644.81783 275.464639 709.399613 304.900098 644.81783 275.464639 580.236047"/>
    <polygon class="cls-1" points="157.722804 580.236047 128.287345 644.81783 157.722804 709.399613 187.158263 644.81783 157.722804 580.236047"/>
    <polygon class="cls-1" points="39.980968 580.236047 10.545509 644.81783 39.980968 709.399613 69.416427 644.81783 39.980968 580.236047"/>
    <polygon class="cls-1" points="1894.414883 644.81783 1864.979424 709.399613 1894.414883 773.981396 1923.850342 709.399613 1894.414883 644.81783"/>
    <polygon class="cls-1" points="1776.673047 644.81783 1747.237588 709.399613 1776.673047 773.981396 1806.108506 709.399613 1776.673047 644.81783"/>
    <polygon class="cls-1" points="1658.931211 644.81783 1629.495752 709.399613 1658.931211 773.981396 1688.36667 709.399613 1658.931211 644.81783"/>
    <polygon class="cls-1" points="1541.189375 644.81783 1511.753916 709.399613 1541.189375 773.981396 1570.624834 709.399613 1541.189375 644.81783"/>
    <polygon class="cls-1" points="1423.447539 644.81783 1394.01208 709.399613 1423.447539 773.981396 1452.882998 709.399613 1423.447539 644.81783"/>
    <polygon class="cls-1" points="1305.705703 644.81783 1276.270245 709.399613 1305.705703 773.981396 1335.141162 709.399613 1305.705703 644.81783"/>
    <polygon class="cls-1" points="1187.963868 644.81783 1158.528409 709.399613 1187.963868 773.981396 1217.399327 709.399613 1187.963868 644.81783"/>
    <polygon class="cls-1" points="1070.222032 644.81783 1040.786573 709.399613 1070.222032 773.981396 1099.657491 709.399613 1070.222032 644.81783"/>
    <polygon class="cls-1" points="952.480196 644.81783 923.044737 709.399613 952.480196 773.981396 981.915655 709.399613 952.480196 644.81783"/>
    <polygon class="cls-1" points="834.73836 644.81783 805.302901 709.399613 834.73836 773.981396 864.173819 709.399613 834.73836 644.81783"/>
    <polygon class="cls-1" points="716.996524 644.81783 687.561065 709.399613 716.996524 773.981396 746.431983 709.399613 716.996524 644.81783"/>
    <polygon class="cls-1" points="599.254688 644.81783 569.819229 709.399613 599.254688 773.981396 628.690147 709.399613 599.254688 644.81783"/>
    <polygon class="cls-1" points="481.512852 644.81783 452.077393 709.399613 481.512852 773.981396 510.948311 709.399613 481.512852 644.81783"/>
    <polygon class="cls-1" points="363.771016 644.81783 334.335557 709.399613 363.771016 773.981396 393.206475 709.399613 363.771016 644.81783"/>
    <polygon class="cls-1" points="246.02918 644.81783 216.593722 709.399613 246.02918 773.981396 275.464639 709.399613 246.02918 644.81783"/>
    <polygon class="cls-1" points="128.287345 644.81783 98.851886 709.399613 128.287345 773.981396 157.722804 709.399613 128.287345 644.81783"/>
    <polygon class="cls-1" points="10.545509 644.81783 -18.88995 709.399613 10.545509 773.981396 39.980968 709.399613 10.545509 644.81783"/>
    <polygon class="cls-1" points="1835.543965 644.81783 1806.108506 709.399613 1835.543965 773.981396 1864.979424 709.399613 1835.543965 644.81783"/>
    <polygon class="cls-1" points="1717.802129 644.81783 1688.36667 709.399613 1717.802129 773.981396 1747.237588 709.399613 1717.802129 644.81783"/>
    <polygon class="cls-1" points="1600.060293 644.81783 1570.624834 709.399613 1600.060293 773.981396 1629.495752 709.399613 1600.060293 644.81783"/>
    <polygon class="cls-1" points="1482.318457 644.81783 1452.882998 709.399613 1482.318457 773.981396 1511.753916 709.399613 1482.318457 644.81783"/>
    <polygon class="cls-1" points="1364.576621 644.81783 1335.141162 709.399613 1364.576621 773.981396 1394.01208 709.399613 1364.576621 644.81783"/>
    <polygon class="cls-1" points="1246.834786 644.81783 1217.399327 709.399613 1246.834786 773.981396 1276.270245 709.399613 1246.834786 644.81783"/>
    <polygon class="cls-1" points="1129.09295 644.81783 1099.657491 709.399613 1129.09295 773.981396 1158.528409 709.399613 1129.09295 644.81783"/>
    <polygon class="cls-1" points="1011.351114 644.81783 981.915655 709.399613 1011.351114 773.981396 1040.786573 709.399613 1011.351114 644.81783"/>
    <polygon class="cls-1" points="893.609278 644.81783 864.173819 709.399613 893.609278 773.981396 923.044737 709.399613 893.609278 644.81783"/>
    <polygon class="cls-1" points="775.867442 644.81783 746.431983 709.399613 775.867442 773.981396 805.302901 709.399613 775.867442 644.81783"/>
    <polygon class="cls-1" points="658.125606 644.81783 628.690147 709.399613 658.125606 773.981396 687.561065 709.399613 658.125606 644.81783"/>
    <polygon class="cls-1" points="540.38377 644.81783 510.948311 709.399613 540.38377 773.981396 569.819229 709.399613 540.38377 644.81783"/>
    <polygon class="cls-1" points="422.641934 644.81783 393.206475 709.399613 422.641934 773.981396 452.077393 709.399613 422.641934 644.81783"/>
    <polygon class="cls-1" points="304.900098 644.81783 275.464639 709.399613 304.900098 773.981396 334.335557 709.399613 304.900098 644.81783"/>
    <polygon class="cls-1" points="187.158263 644.81783 157.722804 709.399613 187.158263 773.981396 216.593722 709.399613 187.158263 644.81783"/>
    <polygon class="cls-1" points="69.416427 644.81783 39.980968 709.399613 69.416427 773.981396 98.851886 709.399613 69.416427 644.81783"/>
    <polygon class="cls-1" points="1864.979424 709.399613 1835.543965 773.981396 1864.979424 838.563179 1894.414883 773.981396 1864.979424 709.399613"/>
    <polygon class="cls-1" points="1747.237588 709.399613 1717.802129 773.981396 1747.237588 838.563179 1776.673047 773.981396 1747.237588 709.399613"/>
    <polygon class="cls-1" points="1629.495752 709.399613 1600.060293 773.981396 1629.495752 838.563179 1658.931211 773.981396 1629.495752 709.399613"/>
    <polygon class="cls-1" points="1511.753916 709.399613 1482.318457 773.981396 1511.753916 838.563179 1541.189375 773.981396 1511.753916 709.399613"/>
    <polygon class="cls-1" points="1394.01208 709.399613 1364.576621 773.981396 1394.01208 838.563179 1423.447539 773.981396 1394.01208 709.399613"/>
    <polygon class="cls-1" points="1276.270244 709.399613 1246.834786 773.981396 1276.270245 838.563179 1305.705703 773.981396 1276.270244 709.399613"/>
    <polygon class="cls-1" points="1158.528409 709.399613 1129.09295 773.981396 1158.528409 838.563179 1187.963868 773.981396 1158.528409 709.399613"/>
    <polygon class="cls-1" points="1040.786573 709.399613 1011.351114 773.981396 1040.786573 838.563179 1070.222032 773.981396 1040.786573 709.399613"/>
    <polygon class="cls-1" points="923.044737 709.399613 893.609278 773.981396 923.044737 838.563179 952.480196 773.981396 923.044737 709.399613"/>
    <polygon class="cls-1" points="805.302901 709.399613 775.867442 773.981396 805.302901 838.563179 834.73836 773.981396 805.302901 709.399613"/>
    <polygon class="cls-1" points="687.561065 709.399613 658.125606 773.981396 687.561065 838.563179 716.996524 773.981396 687.561065 709.399613"/>
    <polygon class="cls-1" points="569.819229 709.399613 540.38377 773.981396 569.819229 838.563179 599.254688 773.981396 569.819229 709.399613"/>
    <polygon class="cls-1" points="452.077393 709.399613 422.641934 773.981396 452.077393 838.563179 481.512852 773.981396 452.077393 709.399613"/>
    <polygon class="cls-1" points="334.335557 709.399613 304.900098 773.981396 334.335557 838.563179 363.771016 773.981396 334.335557 709.399613"/>
    <polygon class="cls-1" points="216.593722 709.399613 187.158263 773.981396 216.593722 838.563179 246.02918 773.981396 216.593722 709.399613"/>
    <polygon class="cls-1" points="98.851886 709.399613 69.416427 773.981396 98.851886 838.563179 128.287345 773.981396 98.851886 709.399613"/>
    <polygon class="cls-1" points="-18.88995 709.399613 -48.325409 773.981396 -18.88995 838.563179 10.545509 773.981396 -18.88995 709.399613"/>
    <polygon class="cls-1" points="1923.850342 709.399613 1894.414883 773.981396 1923.850342 838.563179 1953.285801 773.981396 1923.850342 709.399613"/>
    <polygon class="cls-1" points="1806.108506 709.399613 1776.673047 773.981396 1806.108506 838.563179 1835.543965 773.981396 1806.108506 709.399613"/>
    <polygon class="cls-1" points="1688.36667 709.399613 1658.931211 773.981396 1688.36667 838.563179 1717.802129 773.981396 1688.36667 709.399613"/>
    <polygon class="cls-1" points="1570.624834 709.399613 1541.189375 773.981396 1570.624834 838.563179 1600.060293 773.981396 1570.624834 709.399613"/>
    <polygon class="cls-1" points="1452.882998 709.399613 1423.447539 773.981396 1452.882998 838.563179 1482.318457 773.981396 1452.882998 709.399613"/>
    <polygon class="cls-1" points="1335.141162 709.399613 1305.705703 773.981396 1335.141162 838.563179 1364.576621 773.981396 1335.141162 709.399613"/>
    <polygon class="cls-1" points="1217.399327 709.399613 1187.963868 773.981396 1217.399327 838.563179 1246.834786 773.981396 1217.399327 709.399613"/>
    <polygon class="cls-1" points="1099.657491 709.399613 1070.222032 773.981396 1099.657491 838.563179 1129.09295 773.981396 1099.657491 709.399613"/>
    <polygon class="cls-1" points="981.915655 709.399613 952.480196 773.981396 981.915655 838.563179 1011.351114 773.981396 981.915655 709.399613"/>
    <polygon class="cls-1" points="864.173819 709.399613 834.73836 773.981396 864.173819 838.563179 893.609278 773.981396 864.173819 709.399613"/>
    <polygon class="cls-1" points="746.431983 709.399613 716.996524 773.981396 746.431983 838.563179 775.867442 773.981396 746.431983 709.399613"/>
    <polygon class="cls-1" points="628.690147 709.399613 599.254688 773.981396 628.690147 838.563179 658.125606 773.981396 628.690147 709.399613"/>
    <polygon class="cls-1" points="510.948311 709.399613 481.512852 773.981396 510.948311 838.563179 540.38377 773.981396 510.948311 709.399613"/>
    <polygon class="cls-1" points="393.206475 709.399613 363.771016 773.981396 393.206475 838.563179 422.641934 773.981396 393.206475 709.399613"/>
    <polygon class="cls-1" points="275.464639 709.399613 246.02918 773.981396 275.464639 838.563179 304.900098 773.981396 275.464639 709.399613"/>
    <polygon class="cls-1" points="157.722804 709.399613 128.287345 773.981396 157.722804 838.563179 187.158263 773.981396 157.722804 709.399613"/>
    <polygon class="cls-1" points="39.980968 709.399613 10.545509 773.981396 39.980968 838.563179 69.416427 773.981396 39.980968 709.399613"/>
    <polygon class="cls-1" points="1894.414883 773.981396 1864.979424 838.563179 1894.414883 903.144962 1923.850342 838.563179 1894.414883 773.981396"/>
    <polygon class="cls-1" points="1776.673047 773.981396 1747.237588 838.563179 1776.673047 903.144962 1806.108506 838.563179 1776.673047 773.981396"/>
    <polygon class="cls-1" points="1658.931211 773.981396 1629.495752 838.563179 1658.931211 903.144962 1688.36667 838.563179 1658.931211 773.981396"/>
    <polygon class="cls-1" points="1541.189375 773.981396 1511.753916 838.563179 1541.189375 903.144962 1570.624834 838.563179 1541.189375 773.981396"/>
    <polygon class="cls-1" points="1423.447539 773.981396 1394.01208 838.563179 1423.447539 903.144962 1452.882998 838.563179 1423.447539 773.981396"/>
    <polygon class="cls-1" points="1305.705703 773.981396 1276.270245 838.563179 1305.705703 903.144962 1335.141162 838.563179 1305.705703 773.981396"/>
    <polygon class="cls-1" points="1187.963868 773.981396 1158.528409 838.563179 1187.963868 903.144962 1217.399327 838.563179 1187.963868 773.981396"/>
    <polygon class="cls-1" points="1070.222032 773.981396 1040.786573 838.563179 1070.222032 903.144962 1099.657491 838.563179 1070.222032 773.981396"/>
    <polygon class="cls-1" points="952.480196 773.981396 923.044737 838.563179 952.480196 903.144962 981.915655 838.563179 952.480196 773.981396"/>
    <polygon class="cls-1" points="834.73836 773.981396 805.302901 838.563179 834.73836 903.144962 864.173819 838.563179 834.73836 773.981396"/>
    <polygon class="cls-1" points="716.996524 773.981396 687.561065 838.563179 716.996524 903.144962 746.431983 838.563179 716.996524 773.981396"/>
    <polygon class="cls-1" points="599.254688 773.981396 569.819229 838.563179 599.254688 903.144962 628.690147 838.563179 599.254688 773.981396"/>
    <polygon class="cls-1" points="481.512852 773.981396 452.077393 838.563179 481.512852 903.144962 510.948311 838.563179 481.512852 773.981396"/>
    <polygon class="cls-1" points="363.771016 773.981396 334.335557 838.563179 363.771016 903.144962 393.206475 838.563179 363.771016 773.981396"/>
    <polygon class="cls-1" points="246.02918 773.981396 216.593722 838.563179 246.02918 903.144962 275.464639 838.563179 246.02918 773.981396"/>
    <polygon class="cls-1" points="128.287345 773.981396 98.851886 838.563179 128.287345 903.144962 157.722804 838.563179 128.287345 773.981396"/>
    <polygon class="cls-1" points="10.545509 773.981396 -18.88995 838.563179 10.545509 903.144962 39.980968 838.563179 10.545509 773.981396"/>
    <polygon class="cls-1" points="1835.543965 773.981396 1806.108506 838.563179 1835.543965 903.144962 1864.979424 838.563179 1835.543965 773.981396"/>
    <polygon class="cls-1" points="1717.802129 773.981396 1688.36667 838.563179 1717.802129 903.144962 1747.237588 838.563179 1717.802129 773.981396"/>
    <polygon class="cls-1" points="1600.060293 773.981396 1570.624834 838.563179 1600.060293 903.144962 1629.495752 838.563179 1600.060293 773.981396"/>
    <polygon class="cls-1" points="1482.318457 773.981396 1452.882998 838.563179 1482.318457 903.144962 1511.753916 838.563179 1482.318457 773.981396"/>
    <polygon class="cls-1" points="1364.576621 773.981396 1335.141162 838.563179 1364.576621 903.144962 1394.01208 838.563179 1364.576621 773.981396"/>
    <polygon class="cls-1" points="1246.834786 773.981396 1217.399327 838.563179 1246.834786 903.144962 1276.270245 838.563179 1246.834786 773.981396"/>
    <polygon class="cls-1" points="1129.09295 773.981396 1099.657491 838.563179 1129.09295 903.144962 1158.528409 838.563179 1129.09295 773.981396"/>
    <polygon class="cls-1" points="1011.351114 773.981396 981.915655 838.563179 1011.351114 903.144962 1040.786573 838.563179 1011.351114 773.981396"/>
    <polygon class="cls-1" points="893.609278 773.981396 864.173819 838.563179 893.609278 903.144962 923.044737 838.563179 893.609278 773.981396"/>
    <polygon class="cls-1" points="775.867442 773.981396 746.431983 838.563179 775.867442 903.144962 805.302901 838.563179 775.867442 773.981396"/>
    <polygon class="cls-1" points="658.125606 773.981396 628.690147 838.563179 658.125606 903.144962 687.561065 838.563179 658.125606 773.981396"/>
    <polygon class="cls-1" points="540.38377 773.981396 510.948311 838.563179 540.38377 903.144962 569.819229 838.563179 540.38377 773.981396"/>
    <polygon class="cls-1" points="422.641934 773.981396 393.206475 838.563179 422.641934 903.144962 452.077393 838.563179 422.641934 773.981396"/>
    <polygon class="cls-1" points="304.900098 773.981396 275.464639 838.563179 304.900098 903.144962 334.335557 838.563179 304.900098 773.981396"/>
    <polygon class="cls-1" points="187.158263 773.981396 157.722804 838.563179 187.158263 903.144962 216.593722 838.563179 187.158263 773.981396"/>
    <polygon class="cls-1" points="69.416427 773.981396 39.980968 838.563179 69.416427 903.144962 98.851886 838.563179 69.416427 773.981396"/>
    <polygon class="cls-1" points="1923.850342 838.563179 1894.414883 903.144962 1923.850342 967.726746 1953.285801 903.144962 1923.850342 838.563179"/>
    <polygon class="cls-1" points="1806.108506 838.563179 1776.673047 903.144962 1806.108506 967.726746 1835.543965 903.144962 1806.108506 838.563179"/>
    <polygon class="cls-1" points="1688.36667 838.563179 1658.931211 903.144962 1688.36667 967.726746 1717.802129 903.144962 1688.36667 838.563179"/>
    <polygon class="cls-1" points="1570.624834 838.563179 1541.189375 903.144962 1570.624834 967.726746 1600.060293 903.144962 1570.624834 838.563179"/>
    <polygon class="cls-1" points="1452.882998 838.563179 1423.447539 903.144962 1452.882998 967.726746 1482.318457 903.144962 1452.882998 838.563179"/>
    <polygon class="cls-1" points="1335.141162 838.563179 1305.705703 903.144962 1335.141162 967.726746 1364.576621 903.144962 1335.141162 838.563179"/>
    <polygon class="cls-1" points="1217.399327 838.563179 1187.963868 903.144962 1217.399327 967.726746 1246.834786 903.144962 1217.399327 838.563179"/>
    <polygon class="cls-1" points="1099.657491 838.563179 1070.222032 903.144962 1099.657491 967.726746 1129.09295 903.144962 1099.657491 838.563179"/>
    <polygon class="cls-1" points="981.915655 838.563179 952.480196 903.144962 981.915655 967.726746 1011.351114 903.144962 981.915655 838.563179"/>
    <polygon class="cls-1" points="864.173819 838.563179 834.73836 903.144962 864.173819 967.726746 893.609278 903.144962 864.173819 838.563179"/>
    <polygon class="cls-1" points="746.431983 838.563179 716.996524 903.144962 746.431983 967.726746 775.867442 903.144962 746.431983 838.563179"/>
    <polygon class="cls-1" points="628.690147 838.563179 599.254688 903.144962 628.690147 967.726746 658.125606 903.144962 628.690147 838.563179"/>
    <polygon class="cls-1" points="510.948311 838.563179 481.512852 903.144962 510.948311 967.726746 540.38377 903.144962 510.948311 838.563179"/>
    <polygon class="cls-1" points="393.206475 838.563179 363.771016 903.144962 393.206475 967.726746 422.641934 903.144962 393.206475 838.563179"/>
    <polygon class="cls-1" points="275.464639 838.563179 246.02918 903.144962 275.464639 967.726746 304.900098 903.144962 275.464639 838.563179"/>
    <polygon class="cls-1" points="157.722804 838.563179 128.287345 903.144962 157.722804 967.726746 187.158263 903.144962 157.722804 838.563179"/>
    <polygon class="cls-1" points="39.980968 838.563179 10.545509 903.144962 39.980968 967.726746 69.416427 903.144962 39.980968 838.563179"/>
    <polygon class="cls-1" points="1864.979424 838.563179 1835.543965 903.144962 1864.979424 967.726746 1894.414883 903.144962 1864.979424 838.563179"/>
    <polygon class="cls-1" points="1747.237588 838.563179 1717.802129 903.144962 1747.237588 967.726746 1776.673047 903.144962 1747.237588 838.563179"/>
    <polygon class="cls-1" points="1629.495752 838.563179 1600.060293 903.144962 1629.495752 967.726746 1658.931211 903.144962 1629.495752 838.563179"/>
    <polygon class="cls-1" points="1511.753916 838.563179 1482.318457 903.144962 1511.753916 967.726746 1541.189375 903.144962 1511.753916 838.563179"/>
    <polygon class="cls-1" points="1394.01208 838.563179 1364.576621 903.144962 1394.01208 967.726746 1423.447539 903.144962 1394.01208 838.563179"/>
    <polygon class="cls-1" points="1276.270244 838.563179 1246.834786 903.144962 1276.270245 967.726746 1305.705703 903.144962 1276.270244 838.563179"/>
    <polygon class="cls-1" points="1158.528409 838.563179 1129.09295 903.144962 1158.528409 967.726746 1187.963868 903.144962 1158.528409 838.563179"/>
    <polygon class="cls-1" points="1040.786573 838.563179 1011.351114 903.144962 1040.786573 967.726746 1070.222032 903.144962 1040.786573 838.563179"/>
    <polygon class="cls-1" points="923.044737 838.563179 893.609278 903.144962 923.044737 967.726746 952.480196 903.144962 923.044737 838.563179"/>
    <polygon class="cls-1" points="805.302901 838.563179 775.867442 903.144962 805.302901 967.726746 834.73836 903.144962 805.302901 838.563179"/>
    <polygon class="cls-1" points="687.561065 838.563179 658.125606 903.144962 687.561065 967.726746 716.996524 903.144962 687.561065 838.563179"/>
    <polygon class="cls-1" points="569.819229 838.563179 540.38377 903.144962 569.819229 967.726746 599.254688 903.144962 569.819229 838.563179"/>
    <polygon class="cls-1" points="452.077393 838.563179 422.641934 903.144962 452.077393 967.726746 481.512852 903.144962 452.077393 838.563179"/>
    <polygon class="cls-1" points="334.335557 838.563179 304.900098 903.144962 334.335557 967.726746 363.771016 903.144962 334.335557 838.563179"/>
    <polygon class="cls-1" points="216.593722 838.563179 187.158263 903.144962 216.593722 967.726746 246.02918 903.144962 216.593722 838.563179"/>
    <polygon class="cls-1" points="98.851886 838.563179 69.416427 903.144962 98.851886 967.726746 128.287345 903.144962 98.851886 838.563179"/>
    <polygon class="cls-1" points="-18.88995 838.563179 -48.325409 903.144962 -18.88995 967.726746 10.545509 903.144962 -18.88995 838.563179"/>
    <polygon class="cls-1" points="1894.414883 903.144962 1864.979424 967.726745 1894.414883 1032.308529 1923.850342 967.726746 1894.414883 903.144962"/>
    <polygon class="cls-1" points="1776.673047 903.144962 1747.237588 967.726745 1776.673047 1032.308529 1806.108506 967.726746 1776.673047 903.144962"/>
    <polygon class="cls-1" points="1658.931211 903.144962 1629.495752 967.726745 1658.931211 1032.308529 1688.36667 967.726746 1658.931211 903.144962"/>
    <polygon class="cls-1" points="1541.189375 903.144962 1511.753916 967.726745 1541.189375 1032.308529 1570.624834 967.726746 1541.189375 903.144962"/>
    <polygon class="cls-1" points="1423.447539 903.144962 1394.01208 967.726745 1423.447539 1032.308529 1452.882998 967.726746 1423.447539 903.144962"/>
    <polygon class="cls-1" points="1305.705703 903.144962 1276.270245 967.726745 1305.705703 1032.308529 1335.141162 967.726746 1305.705703 903.144962"/>
    <polygon class="cls-1" points="1187.963868 903.144962 1158.528409 967.726745 1187.963868 1032.308529 1217.399327 967.726746 1187.963868 903.144962"/>
    <polygon class="cls-1" points="1070.222032 903.144962 1040.786573 967.726745 1070.222032 1032.308529 1099.657491 967.726746 1070.222032 903.144962"/>
    <polygon class="cls-1" points="952.480196 903.144962 923.044737 967.726745 952.480196 1032.308529 981.915655 967.726746 952.480196 903.144962"/>
    <polygon class="cls-1" points="834.73836 903.144962 805.302901 967.726745 834.73836 1032.308529 864.173819 967.726746 834.73836 903.144962"/>
    <polygon class="cls-1" points="716.996524 903.144962 687.561065 967.726745 716.996524 1032.308529 746.431983 967.726746 716.996524 903.144962"/>
    <polygon class="cls-1" points="599.254688 903.144962 569.819229 967.726745 599.254688 1032.308529 628.690147 967.726746 599.254688 903.144962"/>
    <polygon class="cls-1" points="481.512852 903.144962 452.077393 967.726745 481.512852 1032.308529 510.948311 967.726746 481.512852 903.144962"/>
    <polygon class="cls-1" points="363.771016 903.144962 334.335557 967.726745 363.771016 1032.308529 393.206475 967.726746 363.771016 903.144962"/>
    <polygon class="cls-1" points="246.02918 903.144962 216.593722 967.726745 246.02918 1032.308529 275.464639 967.726746 246.02918 903.144962"/>
    <polygon class="cls-1" points="128.287345 903.144962 98.851886 967.726745 128.287345 1032.308529 157.722804 967.726746 128.287345 903.144962"/>
    <polygon class="cls-1" points="10.545509 903.144962 -18.88995 967.726745 10.545509 1032.308529 39.980968 967.726746 10.545509 903.144962"/>
    <polygon class="cls-1" points="1835.543965 903.144962 1806.108506 967.726745 1835.543965 1032.308529 1864.979424 967.726746 1835.543965 903.144962"/>
    <polygon class="cls-1" points="1717.802129 903.144962 1688.36667 967.726745 1717.802129 1032.308529 1747.237588 967.726746 1717.802129 903.144962"/>
    <polygon class="cls-1" points="1600.060293 903.144962 1570.624834 967.726745 1600.060293 1032.308529 1629.495752 967.726746 1600.060293 903.144962"/>
    <polygon class="cls-1" points="1482.318457 903.144962 1452.882998 967.726745 1482.318457 1032.308529 1511.753916 967.726746 1482.318457 903.144962"/>
    <polygon class="cls-1" points="1364.576621 903.144962 1335.141162 967.726745 1364.576621 1032.308529 1394.01208 967.726746 1364.576621 903.144962"/>
    <polygon class="cls-1" points="1246.834786 903.144962 1217.399327 967.726745 1246.834786 1032.308529 1276.270245 967.726746 1246.834786 903.144962"/>
    <polygon class="cls-1" points="1129.09295 903.144962 1099.657491 967.726745 1129.09295 1032.308529 1158.528409 967.726746 1129.09295 903.144962"/>
    <polygon class="cls-1" points="1011.351114 903.144962 981.915655 967.726745 1011.351114 1032.308529 1040.786573 967.726746 1011.351114 903.144962"/>
    <polygon class="cls-1" points="893.609278 903.144962 864.173819 967.726745 893.609278 1032.308529 923.044737 967.726746 893.609278 903.144962"/>
    <polygon class="cls-1" points="775.867442 903.144962 746.431983 967.726745 775.867442 1032.308529 805.302901 967.726746 775.867442 903.144962"/>
    <polygon class="cls-1" points="658.125606 903.144962 628.690147 967.726745 658.125606 1032.308529 687.561065 967.726746 658.125606 903.144962"/>
    <polygon class="cls-1" points="540.38377 903.144962 510.948311 967.726745 540.38377 1032.308529 569.819229 967.726746 540.38377 903.144962"/>
    <polygon class="cls-1" points="422.641934 903.144962 393.206475 967.726745 422.641934 1032.308529 452.077393 967.726746 422.641934 903.144962"/>
    <polygon class="cls-1" points="304.900098 903.144962 275.464639 967.726745 304.900098 1032.308529 334.335557 967.726746 304.900098 903.144962"/>
    <polygon class="cls-1" points="187.158263 903.144962 157.722804 967.726745 187.158263 1032.308529 216.593722 967.726746 187.158263 903.144962"/>
    <polygon class="cls-1" points="69.416427 903.144962 39.980968 967.726745 69.416427 1032.308529 98.851886 967.726746 69.416427 903.144962"/>
    <polygon class="cls-1" points="1923.850342 967.726746 1894.414883 1032.308529 1923.850342 1096.890312 1953.285801 1032.308529 1923.850342 967.726746"/>
    <polygon class="cls-1" points="1806.108506 967.726746 1776.673047 1032.308529 1806.108506 1096.890312 1835.543965 1032.308529 1806.108506 967.726746"/>
    <polygon class="cls-1" points="1688.36667 967.726746 1658.931211 1032.308529 1688.36667 1096.890312 1717.802129 1032.308529 1688.36667 967.726746"/>
    <polygon class="cls-1" points="1570.624834 967.726746 1541.189375 1032.308529 1570.624834 1096.890312 1600.060293 1032.308529 1570.624834 967.726746"/>
    <polygon class="cls-1" points="1452.882998 967.726746 1423.447539 1032.308529 1452.882998 1096.890312 1482.318457 1032.308529 1452.882998 967.726746"/>
    <polygon class="cls-1" points="1335.141162 967.726746 1305.705703 1032.308529 1335.141162 1096.890312 1364.576621 1032.308529 1335.141162 967.726746"/>
    <polygon class="cls-1" points="1217.399327 967.726746 1187.963868 1032.308529 1217.399327 1096.890312 1246.834786 1032.308529 1217.399327 967.726746"/>
    <polygon class="cls-1" points="1099.657491 967.726746 1070.222032 1032.308529 1099.657491 1096.890312 1129.09295 1032.308529 1099.657491 967.726746"/>
    <polygon class="cls-1" points="981.915655 967.726746 952.480196 1032.308529 981.915655 1096.890312 1011.351114 1032.308529 981.915655 967.726746"/>
    <polygon class="cls-1" points="864.173819 967.726746 834.73836 1032.308529 864.173819 1096.890312 893.609278 1032.308529 864.173819 967.726746"/>
    <polygon class="cls-1" points="746.431983 967.726746 716.996524 1032.308529 746.431983 1096.890312 775.867442 1032.308529 746.431983 967.726746"/>
    <polygon class="cls-1" points="628.690147 967.726746 599.254688 1032.308529 628.690147 1096.890312 658.125606 1032.308529 628.690147 967.726746"/>
    <polygon class="cls-1" points="510.948311 967.726746 481.512852 1032.308529 510.948311 1096.890312 540.38377 1032.308529 510.948311 967.726746"/>
    <polygon class="cls-1" points="393.206475 967.726746 363.771016 1032.308529 393.206475 1096.890312 422.641934 1032.308529 393.206475 967.726746"/>
    <polygon class="cls-1" points="275.464639 967.726746 246.02918 1032.308529 275.464639 1096.890312 304.900098 1032.308529 275.464639 967.726746"/>
    <polygon class="cls-1" points="157.722804 967.726746 128.287345 1032.308529 157.722804 1096.890312 187.158263 1032.308529 157.722804 967.726746"/>
    <polygon class="cls-1" points="39.980968 967.726746 10.545509 1032.308529 39.980968 1096.890312 69.416427 1032.308529 39.980968 967.726746"/>
    <polygon class="cls-1" points="1864.979424 967.726746 1835.543965 1032.308529 1864.979424 1096.890312 1894.414883 1032.308529 1864.979424 967.726746"/>
    <polygon class="cls-1" points="1747.237588 967.726746 1717.802129 1032.308529 1747.237588 1096.890312 1776.673047 1032.308529 1747.237588 967.726746"/>
    <polygon class="cls-1" points="1629.495752 967.726746 1600.060293 1032.308529 1629.495752 1096.890312 1658.931211 1032.308529 1629.495752 967.726746"/>
    <polygon class="cls-1" points="1511.753916 967.726746 1482.318457 1032.308529 1511.753916 1096.890312 1541.189375 1032.308529 1511.753916 967.726746"/>
    <polygon class="cls-1" points="1394.01208 967.726746 1364.576621 1032.308529 1394.01208 1096.890312 1423.447539 1032.308529 1394.01208 967.726746"/>
    <polygon class="cls-1" points="1276.270244 967.726746 1246.834786 1032.308529 1276.270245 1096.890312 1305.705703 1032.308529 1276.270244 967.726746"/>
    <polygon class="cls-1" points="1158.528409 967.726746 1129.09295 1032.308529 1158.528409 1096.890312 1187.963868 1032.308529 1158.528409 967.726746"/>
    <polygon class="cls-1" points="1040.786573 967.726746 1011.351114 1032.308529 1040.786573 1096.890312 1070.222032 1032.308529 1040.786573 967.726746"/>
    <polygon class="cls-1" points="923.044737 967.726746 893.609278 1032.308529 923.044737 1096.890312 952.480196 1032.308529 923.044737 967.726746"/>
    <polygon class="cls-1" points="805.302901 967.726746 775.867442 1032.308529 805.302901 1096.890312 834.73836 1032.308529 805.302901 967.726746"/>
    <polygon class="cls-1" points="687.561065 967.726746 658.125606 1032.308529 687.561065 1096.890312 716.996524 1032.308529 687.561065 967.726746"/>
    <polygon class="cls-1" points="569.819229 967.726746 540.38377 1032.308529 569.819229 1096.890312 599.254688 1032.308529 569.819229 967.726746"/>
    <polygon class="cls-1" points="452.077393 967.726746 422.641934 1032.308529 452.077393 1096.890312 481.512852 1032.308529 452.077393 967.726746"/>
    <polygon class="cls-1" points="334.335557 967.726746 304.900098 1032.308529 334.335557 1096.890312 363.771016 1032.308529 334.335557 967.726746"/>
    <polygon class="cls-1" points="216.593722 967.726746 187.158263 1032.308529 216.593722 1096.890312 246.02918 1032.308529 216.593722 967.726746"/>
    <polygon class="cls-1" points="98.851886 967.726746 69.416427 1032.308529 98.851886 1096.890312 128.287345 1032.308529 98.851886 967.726746"/>
    <polygon class="cls-1" points="-18.88995 967.726746 -48.325409 1032.308529 -18.88995 1096.890312 10.545509 1032.308529 -18.88995 967.726746"/>
    <polygon class="cls-1" points="1894.414883 1032.308529 1864.979424 1096.890312 1894.414883 1161.472095 1923.850342 1096.890312 1894.414883 1032.308529"/>
    <polygon class="cls-1" points="1776.673047 1032.308529 1747.237588 1096.890312 1776.673047 1161.472095 1806.108506 1096.890312 1776.673047 1032.308529"/>
    <polygon class="cls-1" points="1658.931211 1032.308529 1629.495752 1096.890312 1658.931211 1161.472095 1688.36667 1096.890312 1658.931211 1032.308529"/>
    <polygon class="cls-1" points="1541.189375 1032.308529 1511.753916 1096.890312 1541.189375 1161.472095 1570.624834 1096.890312 1541.189375 1032.308529"/>
    <polygon class="cls-1" points="1423.447539 1032.308529 1394.01208 1096.890312 1423.447539 1161.472095 1452.882998 1096.890312 1423.447539 1032.308529"/>
    <polygon class="cls-1" points="1305.705703 1032.308529 1276.270245 1096.890312 1305.705703 1161.472095 1335.141162 1096.890312 1305.705703 1032.308529"/>
    <polygon class="cls-1" points="1187.963868 1032.308529 1158.528409 1096.890312 1187.963868 1161.472095 1217.399327 1096.890312 1187.963868 1032.308529"/>
    <polygon class="cls-1" points="1070.222032 1032.308529 1040.786573 1096.890312 1070.222032 1161.472095 1099.657491 1096.890312 1070.222032 1032.308529"/>
    <polygon class="cls-1" points="952.480196 1032.308529 923.044737 1096.890312 952.480196 1161.472095 981.915655 1096.890312 952.480196 1032.308529"/>
    <polygon class="cls-1" points="834.73836 1032.308529 805.302901 1096.890312 834.73836 1161.472095 864.173819 1096.890312 834.73836 1032.308529"/>
    <polygon class="cls-1" points="716.996524 1032.308529 687.561065 1096.890312 716.996524 1161.472095 746.431983 1096.890312 716.996524 1032.308529"/>
    <polygon class="cls-1" points="599.254688 1032.308529 569.819229 1096.890312 599.254688 1161.472095 628.690147 1096.890312 599.254688 1032.308529"/>
    <polygon class="cls-1" points="481.512852 1032.308529 452.077393 1096.890312 481.512852 1161.472095 510.948311 1096.890312 481.512852 1032.308529"/>
    <polygon class="cls-1" points="363.771016 1032.308529 334.335557 1096.890312 363.771016 1161.472095 393.206475 1096.890312 363.771016 1032.308529"/>
    <polygon class="cls-1" points="246.02918 1032.308529 216.593722 1096.890312 246.02918 1161.472095 275.464639 1096.890312 246.02918 1032.308529"/>
    <polygon class="cls-1" points="128.287345 1032.308529 98.851886 1096.890312 128.287345 1161.472095 157.722804 1096.890312 128.287345 1032.308529"/>
    <polygon class="cls-1" points="10.545509 1032.308529 -18.88995 1096.890312 10.545509 1161.472095 39.980968 1096.890312 10.545509 1032.308529"/>
    <polygon class="cls-1" points="1835.543965 1032.308529 1806.108506 1096.890312 1835.543965 1161.472095 1864.979424 1096.890312 1835.543965 1032.308529"/>
    <polygon class="cls-1" points="1717.802129 1032.308529 1688.36667 1096.890312 1717.802129 1161.472095 1747.237588 1096.890312 1717.802129 1032.308529"/>
    <polygon class="cls-1" points="1600.060293 1032.308529 1570.624834 1096.890312 1600.060293 1161.472095 1629.495752 1096.890312 1600.060293 1032.308529"/>
    <polygon class="cls-1" points="1482.318457 1032.308529 1452.882998 1096.890312 1482.318457 1161.472095 1511.753916 1096.890312 1482.318457 1032.308529"/>
    <polygon class="cls-1" points="1364.576621 1032.308529 1335.141162 1096.890312 1364.576621 1161.472095 1394.01208 1096.890312 1364.576621 1032.308529"/>
    <polygon class="cls-1" points="1246.834786 1032.308529 1217.399327 1096.890312 1246.834786 1161.472095 1276.270245 1096.890312 1246.834786 1032.308529"/>
    <polygon class="cls-1" points="1129.09295 1032.308529 1099.657491 1096.890312 1129.09295 1161.472095 1158.528409 1096.890312 1129.09295 1032.308529"/>
    <polygon class="cls-1" points="1011.351114 1032.308529 981.915655 1096.890312 1011.351114 1161.472095 1040.786573 1096.890312 1011.351114 1032.308529"/>
    <polygon class="cls-1" points="893.609278 1032.308529 864.173819 1096.890312 893.609278 1161.472095 923.044737 1096.890312 893.609278 1032.308529"/>
    <polygon class="cls-1" points="775.867442 1032.308529 746.431983 1096.890312 775.867442 1161.472095 805.302901 1096.890312 775.867442 1032.308529"/>
    <polygon class="cls-1" points="658.125606 1032.308529 628.690147 1096.890312 658.125606 1161.472095 687.561065 1096.890312 658.125606 1032.308529"/>
    <polygon class="cls-1" points="540.38377 1032.308529 510.948311 1096.890312 540.38377 1161.472095 569.819229 1096.890312 540.38377 1032.308529"/>
    <polygon class="cls-1" points="422.641934 1032.308529 393.206475 1096.890312 422.641934 1161.472095 452.077393 1096.890312 422.641934 1032.308529"/>
    <polygon class="cls-1" points="304.900098 1032.308529 275.464639 1096.890312 304.900098 1161.472095 334.335557 1096.890312 304.900098 1032.308529"/>
    <polygon class="cls-1" points="187.158263 1032.308529 157.722804 1096.890312 187.158263 1161.472095 216.593722 1096.890312 187.158263 1032.308529"/>
    <polygon class="cls-1" points="69.416427 1032.308529 39.980968 1096.890312 69.416427 1161.472095 98.851886 1096.890312 69.416427 1032.308529"/>
    <polygon class="cls-1" points="1923.850342 -64.581783 1894.414883 0 1923.850342 64.581783 1953.285801 0 1923.850342 -64.581783"/>
    <polygon class="cls-1" points="1806.108506 -64.581783 1776.673047 0 1806.108506 64.581783 1835.543965 0 1806.108506 -64.581783"/>
    <polygon class="cls-1" points="1688.36667 -64.581783 1658.931211 0 1688.36667 64.581783 1717.802129 0 1688.36667 -64.581783"/>
    <polygon class="cls-1" points="1570.624834 -64.581783 1541.189375 0 1570.624834 64.581783 1600.060293 0 1570.624834 -64.581783"/>
    <polygon class="cls-1" points="1452.882998 -64.581783 1423.447539 0 1452.882998 64.581783 1482.318457 0 1452.882998 -64.581783"/>
    <polygon class="cls-1" points="1335.141162 -64.581783 1305.705703 0 1335.141162 64.581783 1364.576621 0 1335.141162 -64.581783"/>
    <polygon class="cls-1" points="1217.399327 -64.581783 1187.963868 0 1217.399327 64.581783 1246.834786 0 1217.399327 -64.581783"/>
    <polygon class="cls-1" points="1099.657491 -64.581783 1070.222032 0 1099.657491 64.581783 1129.09295 0 1099.657491 -64.581783"/>
    <polygon class="cls-1" points="981.915655 -64.581783 952.480196 0 981.915655 64.581783 1011.351114 0 981.915655 -64.581783"/>
    <polygon class="cls-1" points="864.173819 -64.581783 834.73836 0 864.173819 64.581783 893.609278 0 864.173819 -64.581783"/>
    <polygon class="cls-1" points="746.431983 -64.581783 716.996524 0 746.431983 64.581783 775.867442 0 746.431983 -64.581783"/>
    <polygon class="cls-1" points="628.690147 -64.581783 599.254688 0 628.690147 64.581783 658.125606 0 628.690147 -64.581783"/>
    <polygon class="cls-1" points="510.948311 -64.581783 481.512852 0 510.948311 64.581783 540.38377 0 510.948311 -64.581783"/>
    <polygon class="cls-1" points="393.206475 -64.581783 363.771016 0 393.206475 64.581783 422.641934 0 393.206475 -64.581783"/>
    <polygon class="cls-1" points="275.464639 -64.581783 246.02918 0 275.464639 64.581783 304.900098 0 275.464639 -64.581783"/>
    <polygon class="cls-1" points="157.722804 -64.581783 128.287345 0 157.722804 64.581783 187.158263 0 157.722804 -64.581783"/>
    <polygon class="cls-1" points="39.980968 -64.581783 10.545509 0 39.980968 64.581783 69.416427 0 39.980968 -64.581783"/>
    <polygon class="cls-1" points="1864.979424 -64.581783 1835.543965 0 1864.979424 64.581783 1894.414883 0 1864.979424 -64.581783"/>
    <polygon class="cls-1" points="1747.237588 -64.581783 1717.802129 0 1747.237588 64.581783 1776.673047 0 1747.237588 -64.581783"/>
    <polygon class="cls-1" points="1629.495752 -64.581783 1600.060293 0 1629.495752 64.581783 1658.931211 0 1629.495752 -64.581783"/>
    <polygon class="cls-1" points="1511.753916 -64.581783 1482.318457 0 1511.753916 64.581783 1541.189375 0 1511.753916 -64.581783"/>
    <polygon class="cls-1" points="1394.01208 -64.581783 1364.576621 0 1394.01208 64.581783 1423.447539 0 1394.01208 -64.581783"/>
    <polygon class="cls-1" points="1276.270244 -64.581783 1246.834786 0 1276.270245 64.581783 1305.705703 0 1276.270244 -64.581783"/>
    <polygon class="cls-1" points="1158.528409 -64.581783 1129.09295 0 1158.528409 64.581783 1187.963868 0 1158.528409 -64.581783"/>
    <polygon class="cls-1" points="1040.786573 -64.581783 1011.351114 0 1040.786573 64.581783 1070.222032 0 1040.786573 -64.581783"/>
    <polygon class="cls-1" points="923.044737 -64.581783 893.609278 0 923.044737 64.581783 952.480196 0 923.044737 -64.581783"/>
    <polygon class="cls-1" points="805.302901 -64.581783 775.867442 0 805.302901 64.581783 834.73836 0 805.302901 -64.581783"/>
    <polygon class="cls-1" points="687.561065 -64.581783 658.125606 0 687.561065 64.581783 716.996524 0 687.561065 -64.581783"/>
    <polygon class="cls-1" points="569.819229 -64.581783 540.38377 0 569.819229 64.581783 599.254688 0 569.819229 -64.581783"/>
    <polygon class="cls-1" points="452.077393 -64.581783 422.641934 0 452.077393 64.581783 481.512852 0 452.077393 -64.581783"/>
    <polygon class="cls-1" points="334.335557 -64.581783 304.900098 0 334.335557 64.581783 363.771016 0 334.335557 -64.581783"/>
    <polygon class="cls-1" points="216.593722 -64.581783 187.158263 0 216.593722 64.581783 246.02918 0 216.593722 -64.581783"/>
    <polygon class="cls-1" points="98.851886 -64.581783 69.416427 0 98.851886 64.581783 128.287345 0 98.851886 -64.581783"/>
    <polygon class="cls-1" points="-18.88995 -64.581783 -48.325409 0 -18.88995 64.581783 10.545509 0 -18.88995 -64.581783"/>
  </g>
</svg>